G04 #@! TF.FileFunction,Legend,Top*
%FSLAX46Y46*%
G04 Gerber Fmt 4.6, Leading zero omitted, Abs format (unit mm)*
G04 Created by KiCad (PCBNEW 4.0.7) date 02/12/20 21:51:44*
%MOMM*%
%LPD*%
G01*
G04 APERTURE LIST*
%ADD10C,0.100000*%
%ADD11C,0.200000*%
%ADD12C,0.250000*%
%ADD13C,0.300000*%
%ADD14C,0.150000*%
%ADD15C,0.120000*%
G04 APERTURE END LIST*
D10*
D11*
X138850000Y-78914286D02*
X138892857Y-78828572D01*
X138892857Y-78700001D01*
X138850000Y-78571429D01*
X138764286Y-78485715D01*
X138678571Y-78442858D01*
X138507143Y-78400001D01*
X138378571Y-78400001D01*
X138207143Y-78442858D01*
X138121429Y-78485715D01*
X138035714Y-78571429D01*
X137992857Y-78700001D01*
X137992857Y-78785715D01*
X138035714Y-78914286D01*
X138078571Y-78957143D01*
X138378571Y-78957143D01*
X138378571Y-78785715D01*
X137992857Y-79342858D02*
X138892857Y-79342858D01*
X137992857Y-79857143D01*
X138892857Y-79857143D01*
X137992857Y-80285715D02*
X138892857Y-80285715D01*
X138892857Y-80500000D01*
X138850000Y-80628572D01*
X138764286Y-80714286D01*
X138678571Y-80757143D01*
X138507143Y-80800000D01*
X138378571Y-80800000D01*
X138207143Y-80757143D01*
X138121429Y-80714286D01*
X138035714Y-80628572D01*
X137992857Y-80500000D01*
X137992857Y-80285715D01*
D12*
X138471429Y-76395239D02*
X138423810Y-76538096D01*
X138376190Y-76585715D01*
X138280952Y-76633334D01*
X138138095Y-76633334D01*
X138042857Y-76585715D01*
X137995238Y-76538096D01*
X137947619Y-76442858D01*
X137947619Y-76061905D01*
X138947619Y-76061905D01*
X138947619Y-76395239D01*
X138900000Y-76490477D01*
X138852381Y-76538096D01*
X138757143Y-76585715D01*
X138661905Y-76585715D01*
X138566667Y-76538096D01*
X138519048Y-76490477D01*
X138471429Y-76395239D01*
X138471429Y-76061905D01*
X138947619Y-77252381D02*
X138947619Y-77347620D01*
X138900000Y-77442858D01*
X138852381Y-77490477D01*
X138757143Y-77538096D01*
X138566667Y-77585715D01*
X138328571Y-77585715D01*
X138138095Y-77538096D01*
X138042857Y-77490477D01*
X137995238Y-77442858D01*
X137947619Y-77347620D01*
X137947619Y-77252381D01*
X137995238Y-77157143D01*
X138042857Y-77109524D01*
X138138095Y-77061905D01*
X138328571Y-77014286D01*
X138566667Y-77014286D01*
X138757143Y-77061905D01*
X138852381Y-77109524D01*
X138900000Y-77157143D01*
X138947619Y-77252381D01*
X138571429Y-73895239D02*
X138523810Y-74038096D01*
X138476190Y-74085715D01*
X138380952Y-74133334D01*
X138238095Y-74133334D01*
X138142857Y-74085715D01*
X138095238Y-74038096D01*
X138047619Y-73942858D01*
X138047619Y-73561905D01*
X139047619Y-73561905D01*
X139047619Y-73895239D01*
X139000000Y-73990477D01*
X138952381Y-74038096D01*
X138857143Y-74085715D01*
X138761905Y-74085715D01*
X138666667Y-74038096D01*
X138619048Y-73990477D01*
X138571429Y-73895239D01*
X138571429Y-73561905D01*
X138047619Y-75085715D02*
X138047619Y-74514286D01*
X138047619Y-74800000D02*
X139047619Y-74800000D01*
X138904762Y-74704762D01*
X138809524Y-74609524D01*
X138761905Y-74514286D01*
D13*
X138292857Y-67200000D02*
X138292857Y-68342857D01*
X137721429Y-67771428D02*
X138864286Y-67771428D01*
X139221429Y-70057143D02*
X137721429Y-70414286D01*
X138792857Y-70700000D01*
X137721429Y-70985714D01*
X139221429Y-71342857D01*
X138292857Y-55464286D02*
X138292857Y-56607143D01*
X137721429Y-56035714D02*
X138864286Y-56035714D01*
X137721429Y-59321429D02*
X138435714Y-58821429D01*
X137721429Y-58464286D02*
X139221429Y-58464286D01*
X139221429Y-59035714D01*
X139150000Y-59178572D01*
X139078571Y-59250000D01*
X138935714Y-59321429D01*
X138721429Y-59321429D01*
X138578571Y-59250000D01*
X138507143Y-59178572D01*
X138435714Y-59035714D01*
X138435714Y-58464286D01*
X139150000Y-61892857D02*
X139221429Y-61750000D01*
X139221429Y-61535714D01*
X139150000Y-61321429D01*
X139007143Y-61178571D01*
X138864286Y-61107143D01*
X138578571Y-61035714D01*
X138364286Y-61035714D01*
X138078571Y-61107143D01*
X137935714Y-61178571D01*
X137792857Y-61321429D01*
X137721429Y-61535714D01*
X137721429Y-61678571D01*
X137792857Y-61892857D01*
X137864286Y-61964286D01*
X138364286Y-61964286D01*
X138364286Y-61678571D01*
X138507143Y-64250000D02*
X138435714Y-64464286D01*
X138364286Y-64535714D01*
X138221429Y-64607143D01*
X138007143Y-64607143D01*
X137864286Y-64535714D01*
X137792857Y-64464286D01*
X137721429Y-64321428D01*
X137721429Y-63750000D01*
X139221429Y-63750000D01*
X139221429Y-64250000D01*
X139150000Y-64392857D01*
X139078571Y-64464286D01*
X138935714Y-64535714D01*
X138792857Y-64535714D01*
X138650000Y-64464286D01*
X138578571Y-64392857D01*
X138507143Y-64250000D01*
X138507143Y-63750000D01*
D11*
X129950000Y-79114286D02*
X129992857Y-79028572D01*
X129992857Y-78900001D01*
X129950000Y-78771429D01*
X129864286Y-78685715D01*
X129778571Y-78642858D01*
X129607143Y-78600001D01*
X129478571Y-78600001D01*
X129307143Y-78642858D01*
X129221429Y-78685715D01*
X129135714Y-78771429D01*
X129092857Y-78900001D01*
X129092857Y-78985715D01*
X129135714Y-79114286D01*
X129178571Y-79157143D01*
X129478571Y-79157143D01*
X129478571Y-78985715D01*
X129092857Y-79542858D02*
X129992857Y-79542858D01*
X129092857Y-80057143D01*
X129992857Y-80057143D01*
X129092857Y-80485715D02*
X129992857Y-80485715D01*
X129992857Y-80700000D01*
X129950000Y-80828572D01*
X129864286Y-80914286D01*
X129778571Y-80957143D01*
X129607143Y-81000000D01*
X129478571Y-81000000D01*
X129307143Y-80957143D01*
X129221429Y-80914286D01*
X129135714Y-80828572D01*
X129092857Y-80700000D01*
X129092857Y-80485715D01*
D12*
X129671429Y-74095239D02*
X129623810Y-74238096D01*
X129576190Y-74285715D01*
X129480952Y-74333334D01*
X129338095Y-74333334D01*
X129242857Y-74285715D01*
X129195238Y-74238096D01*
X129147619Y-74142858D01*
X129147619Y-73761905D01*
X130147619Y-73761905D01*
X130147619Y-74095239D01*
X130100000Y-74190477D01*
X130052381Y-74238096D01*
X129957143Y-74285715D01*
X129861905Y-74285715D01*
X129766667Y-74238096D01*
X129719048Y-74190477D01*
X129671429Y-74095239D01*
X129671429Y-73761905D01*
X129147619Y-75285715D02*
X129147619Y-74714286D01*
X129147619Y-75000000D02*
X130147619Y-75000000D01*
X130004762Y-74904762D01*
X129909524Y-74809524D01*
X129861905Y-74714286D01*
X129671429Y-76595239D02*
X129623810Y-76738096D01*
X129576190Y-76785715D01*
X129480952Y-76833334D01*
X129338095Y-76833334D01*
X129242857Y-76785715D01*
X129195238Y-76738096D01*
X129147619Y-76642858D01*
X129147619Y-76261905D01*
X130147619Y-76261905D01*
X130147619Y-76595239D01*
X130100000Y-76690477D01*
X130052381Y-76738096D01*
X129957143Y-76785715D01*
X129861905Y-76785715D01*
X129766667Y-76738096D01*
X129719048Y-76690477D01*
X129671429Y-76595239D01*
X129671429Y-76261905D01*
X130147619Y-77452381D02*
X130147619Y-77547620D01*
X130100000Y-77642858D01*
X130052381Y-77690477D01*
X129957143Y-77738096D01*
X129766667Y-77785715D01*
X129528571Y-77785715D01*
X129338095Y-77738096D01*
X129242857Y-77690477D01*
X129195238Y-77642858D01*
X129147619Y-77547620D01*
X129147619Y-77452381D01*
X129195238Y-77357143D01*
X129242857Y-77309524D01*
X129338095Y-77261905D01*
X129528571Y-77214286D01*
X129766667Y-77214286D01*
X129957143Y-77261905D01*
X130052381Y-77309524D01*
X130100000Y-77357143D01*
X130147619Y-77452381D01*
D13*
X129592857Y-67200000D02*
X129592857Y-68342857D01*
X129021429Y-67771428D02*
X130164286Y-67771428D01*
X130521429Y-70057143D02*
X129021429Y-70414286D01*
X130092857Y-70700000D01*
X129021429Y-70985714D01*
X130521429Y-71342857D01*
X129492857Y-55564286D02*
X129492857Y-56707143D01*
X128921429Y-56135714D02*
X130064286Y-56135714D01*
X128921429Y-59421429D02*
X129635714Y-58921429D01*
X128921429Y-58564286D02*
X130421429Y-58564286D01*
X130421429Y-59135714D01*
X130350000Y-59278572D01*
X130278571Y-59350000D01*
X130135714Y-59421429D01*
X129921429Y-59421429D01*
X129778571Y-59350000D01*
X129707143Y-59278572D01*
X129635714Y-59135714D01*
X129635714Y-58564286D01*
X130350000Y-61992857D02*
X130421429Y-61850000D01*
X130421429Y-61635714D01*
X130350000Y-61421429D01*
X130207143Y-61278571D01*
X130064286Y-61207143D01*
X129778571Y-61135714D01*
X129564286Y-61135714D01*
X129278571Y-61207143D01*
X129135714Y-61278571D01*
X128992857Y-61421429D01*
X128921429Y-61635714D01*
X128921429Y-61778571D01*
X128992857Y-61992857D01*
X129064286Y-62064286D01*
X129564286Y-62064286D01*
X129564286Y-61778571D01*
X129707143Y-64350000D02*
X129635714Y-64564286D01*
X129564286Y-64635714D01*
X129421429Y-64707143D01*
X129207143Y-64707143D01*
X129064286Y-64635714D01*
X128992857Y-64564286D01*
X128921429Y-64421428D01*
X128921429Y-63850000D01*
X130421429Y-63850000D01*
X130421429Y-64350000D01*
X130350000Y-64492857D01*
X130278571Y-64564286D01*
X130135714Y-64635714D01*
X129992857Y-64635714D01*
X129850000Y-64564286D01*
X129778571Y-64492857D01*
X129707143Y-64350000D01*
X129707143Y-63850000D01*
D14*
X142000000Y-58250000D02*
X162250000Y-58250000D01*
X162250000Y-58250000D02*
X162250000Y-69250000D01*
X162250000Y-69250000D02*
X142000000Y-69250000D01*
X142000000Y-69250000D02*
X142000000Y-58250000D01*
X133950000Y-81330000D02*
X167030000Y-81330000D01*
X169030000Y-79330000D02*
X169030000Y-56670000D01*
X167030000Y-54670000D02*
X140950000Y-54670000D01*
X133950000Y-56820000D02*
X133950000Y-64680000D01*
X133950000Y-64680000D02*
X134950000Y-64680000D01*
X134950000Y-64680000D02*
X134950000Y-72900000D01*
X134950000Y-72900000D02*
X133950000Y-72900000D01*
X133950000Y-72900000D02*
X133950000Y-81329999D01*
X169030000Y-56670000D02*
G75*
G03X167030000Y-54670000I-2000000J0D01*
G01*
X167030000Y-81330000D02*
G75*
G03X169030000Y-79330000I0J2000000D01*
G01*
X133950000Y-56820000D02*
X139950000Y-56820000D01*
X139950000Y-56820000D02*
G75*
G03X140950000Y-55820000I0J1000000D01*
G01*
X140950000Y-55830000D02*
X140950000Y-54670000D01*
X140950000Y-54670000D02*
X140950000Y-54670000D01*
D15*
X166750000Y-60020000D02*
X164750000Y-60020000D01*
X164750000Y-62980000D02*
X166750000Y-62980000D01*
X166750000Y-64020000D02*
X164750000Y-64020000D01*
X164750000Y-66980000D02*
X166750000Y-66980000D01*
X130980000Y-65370000D02*
X136980000Y-65370000D01*
X136980000Y-65370000D02*
X136980000Y-55010000D01*
X136980000Y-55010000D02*
X130980000Y-55010000D01*
X130980000Y-55010000D02*
X130980000Y-65370000D01*
X136980000Y-64000000D02*
X135980000Y-64000000D01*
X135980000Y-64000000D02*
X135980000Y-56380000D01*
X135980000Y-56380000D02*
X136980000Y-56380000D01*
X135980000Y-64000000D02*
X135550000Y-63750000D01*
X135550000Y-63750000D02*
X135550000Y-56630000D01*
X135550000Y-56630000D02*
X135980000Y-56380000D01*
X136980000Y-63750000D02*
X135980000Y-63750000D01*
X136980000Y-56630000D02*
X135980000Y-56630000D01*
X130980000Y-64800000D02*
X131600000Y-64800000D01*
X131600000Y-64800000D02*
X131600000Y-63200000D01*
X131600000Y-63200000D02*
X130980000Y-63200000D01*
X130980000Y-62260000D02*
X131600000Y-62260000D01*
X131600000Y-62260000D02*
X131600000Y-60660000D01*
X131600000Y-60660000D02*
X130980000Y-60660000D01*
X130980000Y-59720000D02*
X131600000Y-59720000D01*
X131600000Y-59720000D02*
X131600000Y-58120000D01*
X131600000Y-58120000D02*
X130980000Y-58120000D01*
X130980000Y-57180000D02*
X131600000Y-57180000D01*
X131600000Y-57180000D02*
X131600000Y-55580000D01*
X131600000Y-55580000D02*
X130980000Y-55580000D01*
X130980000Y-71870000D02*
X136980000Y-71870000D01*
X136980000Y-71870000D02*
X136980000Y-66590000D01*
X136980000Y-66590000D02*
X130980000Y-66590000D01*
X130980000Y-66590000D02*
X130980000Y-71870000D01*
X136980000Y-70500000D02*
X135980000Y-70500000D01*
X135980000Y-70500000D02*
X135980000Y-67960000D01*
X135980000Y-67960000D02*
X136980000Y-67960000D01*
X135980000Y-70500000D02*
X135550000Y-70250000D01*
X135550000Y-70250000D02*
X135550000Y-68210000D01*
X135550000Y-68210000D02*
X135980000Y-67960000D01*
X136980000Y-70250000D02*
X135980000Y-70250000D01*
X136980000Y-68210000D02*
X135980000Y-68210000D01*
X130980000Y-71300000D02*
X131600000Y-71300000D01*
X131600000Y-71300000D02*
X131600000Y-69700000D01*
X131600000Y-69700000D02*
X130980000Y-69700000D01*
X130980000Y-68760000D02*
X131600000Y-68760000D01*
X131600000Y-68760000D02*
X131600000Y-67160000D01*
X131600000Y-67160000D02*
X130980000Y-67160000D01*
X160500000Y-71900000D02*
X169300000Y-71900000D01*
X169300000Y-71900000D02*
X169300000Y-81100000D01*
X154600000Y-74600000D02*
X154600000Y-71900000D01*
X154600000Y-71900000D02*
X156500000Y-71900000D01*
X169300000Y-81100000D02*
X154600000Y-81100000D01*
X154600000Y-81100000D02*
X154600000Y-78500000D01*
X130980000Y-80870000D02*
X136980000Y-80870000D01*
X136980000Y-80870000D02*
X136980000Y-73050000D01*
X136980000Y-73050000D02*
X130980000Y-73050000D01*
X130980000Y-73050000D02*
X130980000Y-80870000D01*
X136980000Y-79500000D02*
X135980000Y-79500000D01*
X135980000Y-79500000D02*
X135980000Y-74420000D01*
X135980000Y-74420000D02*
X136980000Y-74420000D01*
X135980000Y-79500000D02*
X135550000Y-79250000D01*
X135550000Y-79250000D02*
X135550000Y-74670000D01*
X135550000Y-74670000D02*
X135980000Y-74420000D01*
X136980000Y-79250000D02*
X135980000Y-79250000D01*
X136980000Y-74670000D02*
X135980000Y-74670000D01*
X130980000Y-80300000D02*
X131600000Y-80300000D01*
X131600000Y-80300000D02*
X131600000Y-78700000D01*
X131600000Y-78700000D02*
X130980000Y-78700000D01*
X130980000Y-77760000D02*
X131600000Y-77760000D01*
X131600000Y-77760000D02*
X131600000Y-76160000D01*
X131600000Y-76160000D02*
X130980000Y-76160000D01*
X130980000Y-75220000D02*
X131600000Y-75220000D01*
X131600000Y-75220000D02*
X131600000Y-73620000D01*
X131600000Y-73620000D02*
X130980000Y-73620000D01*
D14*
X159488095Y-56952381D02*
X159488095Y-57761905D01*
X159535714Y-57857143D01*
X159583333Y-57904762D01*
X159678571Y-57952381D01*
X159869048Y-57952381D01*
X159964286Y-57904762D01*
X160011905Y-57857143D01*
X160059524Y-57761905D01*
X160059524Y-56952381D01*
X160488095Y-57047619D02*
X160535714Y-57000000D01*
X160630952Y-56952381D01*
X160869048Y-56952381D01*
X160964286Y-57000000D01*
X161011905Y-57047619D01*
X161059524Y-57142857D01*
X161059524Y-57238095D01*
X161011905Y-57380952D01*
X160440476Y-57952381D01*
X161059524Y-57952381D01*
X146000000Y-66952381D02*
X146190477Y-66952381D01*
X146285715Y-67000000D01*
X146380953Y-67095238D01*
X146428572Y-67285714D01*
X146428572Y-67619048D01*
X146380953Y-67809524D01*
X146285715Y-67904762D01*
X146190477Y-67952381D01*
X146000000Y-67952381D01*
X145904762Y-67904762D01*
X145809524Y-67809524D01*
X145761905Y-67619048D01*
X145761905Y-67285714D01*
X145809524Y-67095238D01*
X145904762Y-67000000D01*
X146000000Y-66952381D01*
X146857143Y-66952381D02*
X146857143Y-67761905D01*
X146904762Y-67857143D01*
X146952381Y-67904762D01*
X147047619Y-67952381D01*
X147238096Y-67952381D01*
X147333334Y-67904762D01*
X147380953Y-67857143D01*
X147428572Y-67761905D01*
X147428572Y-66952381D01*
X147761905Y-66952381D02*
X148333334Y-66952381D01*
X148047619Y-67952381D02*
X148047619Y-66952381D01*
X146238096Y-64500000D02*
X146142858Y-64452381D01*
X146000001Y-64452381D01*
X145857143Y-64500000D01*
X145761905Y-64595238D01*
X145714286Y-64690476D01*
X145666667Y-64880952D01*
X145666667Y-65023810D01*
X145714286Y-65214286D01*
X145761905Y-65309524D01*
X145857143Y-65404762D01*
X146000001Y-65452381D01*
X146095239Y-65452381D01*
X146238096Y-65404762D01*
X146285715Y-65357143D01*
X146285715Y-65023810D01*
X146095239Y-65023810D01*
X146714286Y-65452381D02*
X146714286Y-64452381D01*
X147285715Y-65452381D01*
X147285715Y-64452381D01*
X147761905Y-65452381D02*
X147761905Y-64452381D01*
X148000000Y-64452381D01*
X148142858Y-64500000D01*
X148238096Y-64595238D01*
X148285715Y-64690476D01*
X148333334Y-64880952D01*
X148333334Y-65023810D01*
X148285715Y-65214286D01*
X148238096Y-65309524D01*
X148142858Y-65404762D01*
X148000000Y-65452381D01*
X147761905Y-65452381D01*
X146476191Y-62952381D02*
X146476191Y-61952381D01*
X146952381Y-62952381D02*
X146952381Y-61952381D01*
X147523810Y-62952381D01*
X147523810Y-61952381D01*
X146261905Y-59928571D02*
X146595239Y-59928571D01*
X146738096Y-60452381D02*
X146261905Y-60452381D01*
X146261905Y-59452381D01*
X146738096Y-59452381D01*
X147166667Y-60452381D02*
X147166667Y-59452381D01*
X147738096Y-60452381D01*
X147738096Y-59452381D01*
D11*
X150988095Y-62904762D02*
X150988095Y-60904762D01*
X151464286Y-60904762D01*
X151750000Y-61000000D01*
X151940476Y-61190476D01*
X152035715Y-61380952D01*
X152130953Y-61761905D01*
X152130953Y-62047619D01*
X152035715Y-62428571D01*
X151940476Y-62619048D01*
X151750000Y-62809524D01*
X151464286Y-62904762D01*
X150988095Y-62904762D01*
X154130953Y-62714286D02*
X154035715Y-62809524D01*
X153750000Y-62904762D01*
X153559524Y-62904762D01*
X153273810Y-62809524D01*
X153083334Y-62619048D01*
X152988095Y-62428571D01*
X152892857Y-62047619D01*
X152892857Y-61761905D01*
X152988095Y-61380952D01*
X153083334Y-61190476D01*
X153273810Y-61000000D01*
X153559524Y-60904762D01*
X153750000Y-60904762D01*
X154035715Y-61000000D01*
X154130953Y-61095238D01*
X154988095Y-62142857D02*
X156511905Y-62142857D01*
X157464285Y-62904762D02*
X157464285Y-60904762D01*
X157940476Y-60904762D01*
X158226190Y-61000000D01*
X158416666Y-61190476D01*
X158511905Y-61380952D01*
X158607143Y-61761905D01*
X158607143Y-62047619D01*
X158511905Y-62428571D01*
X158416666Y-62619048D01*
X158226190Y-62809524D01*
X157940476Y-62904762D01*
X157464285Y-62904762D01*
X160607143Y-62714286D02*
X160511905Y-62809524D01*
X160226190Y-62904762D01*
X160035714Y-62904762D01*
X159750000Y-62809524D01*
X159559524Y-62619048D01*
X159464285Y-62428571D01*
X159369047Y-62047619D01*
X159369047Y-61761905D01*
X159464285Y-61380952D01*
X159559524Y-61190476D01*
X159750000Y-61000000D01*
X160035714Y-60904762D01*
X160226190Y-60904762D01*
X160511905Y-61000000D01*
X160607143Y-61095238D01*
D14*
X132402381Y-68761905D02*
X133211905Y-68761905D01*
X133307143Y-68714286D01*
X133354762Y-68666667D01*
X133402381Y-68571429D01*
X133402381Y-68380952D01*
X133354762Y-68285714D01*
X133307143Y-68238095D01*
X133211905Y-68190476D01*
X132402381Y-68190476D01*
X133402381Y-67190476D02*
X133402381Y-67761905D01*
X133402381Y-67476191D02*
X132402381Y-67476191D01*
X132545238Y-67571429D01*
X132640476Y-67666667D01*
X132688095Y-67761905D01*
X165583334Y-59607143D02*
X165535715Y-59654762D01*
X165392858Y-59702381D01*
X165297620Y-59702381D01*
X165154762Y-59654762D01*
X165059524Y-59559524D01*
X165011905Y-59464286D01*
X164964286Y-59273810D01*
X164964286Y-59130952D01*
X165011905Y-58940476D01*
X165059524Y-58845238D01*
X165154762Y-58750000D01*
X165297620Y-58702381D01*
X165392858Y-58702381D01*
X165535715Y-58750000D01*
X165583334Y-58797619D01*
X165916667Y-58702381D02*
X166535715Y-58702381D01*
X166202381Y-59083333D01*
X166345239Y-59083333D01*
X166440477Y-59130952D01*
X166488096Y-59178571D01*
X166535715Y-59273810D01*
X166535715Y-59511905D01*
X166488096Y-59607143D01*
X166440477Y-59654762D01*
X166345239Y-59702381D01*
X166059524Y-59702381D01*
X165964286Y-59654762D01*
X165916667Y-59607143D01*
X165583334Y-63607143D02*
X165535715Y-63654762D01*
X165392858Y-63702381D01*
X165297620Y-63702381D01*
X165154762Y-63654762D01*
X165059524Y-63559524D01*
X165011905Y-63464286D01*
X164964286Y-63273810D01*
X164964286Y-63130952D01*
X165011905Y-62940476D01*
X165059524Y-62845238D01*
X165154762Y-62750000D01*
X165297620Y-62702381D01*
X165392858Y-62702381D01*
X165535715Y-62750000D01*
X165583334Y-62797619D01*
X166440477Y-63035714D02*
X166440477Y-63702381D01*
X166202381Y-62654762D02*
X165964286Y-63369048D01*
X166583334Y-63369048D01*
X163616667Y-70202381D02*
X163616667Y-70916667D01*
X163569047Y-71059524D01*
X163473809Y-71154762D01*
X163330952Y-71202381D01*
X163235714Y-71202381D01*
X164569048Y-70202381D02*
X164092857Y-70202381D01*
X164045238Y-70678571D01*
X164092857Y-70630952D01*
X164188095Y-70583333D01*
X164426191Y-70583333D01*
X164521429Y-70630952D01*
X164569048Y-70678571D01*
X164616667Y-70773810D01*
X164616667Y-71011905D01*
X164569048Y-71107143D01*
X164521429Y-71154762D01*
X164426191Y-71202381D01*
X164188095Y-71202381D01*
X164092857Y-71154762D01*
X164045238Y-71107143D01*
M02*
