G04 #@! TF.FileFunction,Copper,L1,Top,Signal*
%FSLAX46Y46*%
G04 Gerber Fmt 4.6, Leading zero omitted, Abs format (unit mm)*
G04 Created by KiCad (PCBNEW 4.0.7) date 02/12/20 20:20:43*
%MOMM*%
%LPD*%
G01*
G04 APERTURE LIST*
%ADD10C,0.100000*%
%ADD11R,3.500000X3.500000*%
%ADD12R,1.700000X1.700000*%
%ADD13O,1.700000X1.700000*%
%ADD14R,0.900000X0.800000*%
%ADD15R,1.300000X0.700000*%
%ADD16C,1.800000*%
%ADD17C,1.100000*%
%ADD18C,0.750000*%
%ADD19C,0.500000*%
%ADD20C,0.350000*%
%ADD21C,0.254000*%
G04 APERTURE END LIST*
D10*
D11*
X152273000Y-102743000D03*
X158273000Y-102743000D03*
X155273000Y-98043000D03*
D12*
X132080000Y-114300000D03*
D13*
X132080000Y-111760000D03*
D12*
X132080000Y-104140000D03*
D13*
X132080000Y-101600000D03*
X132080000Y-99060000D03*
X132080000Y-96520000D03*
D14*
X138160000Y-102550000D03*
X138160000Y-100650000D03*
X136160000Y-101600000D03*
X138160000Y-98232000D03*
X138160000Y-96332000D03*
X136160000Y-97282000D03*
X138160000Y-106868000D03*
X138160000Y-104968000D03*
X136160000Y-105918000D03*
X138033000Y-112075000D03*
X138033000Y-110175000D03*
X136033000Y-111125000D03*
D15*
X140716000Y-102550000D03*
X140716000Y-100650000D03*
X140716000Y-98232000D03*
X140716000Y-96332000D03*
X140716000Y-106868000D03*
X140716000Y-104968000D03*
X140716000Y-112075000D03*
X140716000Y-110175000D03*
D16*
X139611100Y-93573600D03*
X139611100Y-116433600D03*
X142151100Y-93573600D03*
X142151100Y-116433600D03*
X144691100Y-93573600D03*
X144691100Y-116433600D03*
X147231100Y-93573600D03*
X147231100Y-116433600D03*
X149771100Y-93573600D03*
X149771100Y-116433600D03*
X152311100Y-93573600D03*
X152311100Y-116433600D03*
X154851100Y-93573600D03*
X154851100Y-116433600D03*
X157391100Y-93573600D03*
X157391100Y-116433600D03*
D12*
X153162000Y-110490000D03*
D13*
X153162000Y-113030000D03*
D17*
X149352000Y-110490000D03*
X135763000Y-116205000D03*
X150241000Y-113157000D03*
X140081000Y-113919000D03*
D18*
X132080000Y-111760000D02*
X130810000Y-111760000D01*
X130810000Y-111760000D02*
X129794000Y-112776000D01*
X149352000Y-110490000D02*
X153162000Y-110490000D01*
X135001000Y-116967000D02*
X135763000Y-116205000D01*
X130429000Y-116967000D02*
X135001000Y-116967000D01*
X129794000Y-116332000D02*
X130429000Y-116967000D01*
X129794000Y-112776000D02*
X129794000Y-116332000D01*
X152273000Y-102743000D02*
X152273000Y-109601000D01*
X152273000Y-109601000D02*
X153162000Y-110490000D01*
X132080000Y-96520000D02*
X130683000Y-96520000D01*
X129921000Y-110871000D02*
X130810000Y-111760000D01*
X129921000Y-97282000D02*
X129921000Y-110871000D01*
X130683000Y-96520000D02*
X129921000Y-97282000D01*
D19*
X136033000Y-111125000D02*
X135001000Y-111125000D01*
X133731000Y-114300000D02*
X132080000Y-114300000D01*
X134366000Y-113665000D02*
X133731000Y-114300000D01*
X134366000Y-111760000D02*
X134366000Y-113665000D01*
X135001000Y-111125000D02*
X134366000Y-111760000D01*
X136160000Y-105918000D02*
X132715000Y-105918000D01*
X132080000Y-105283000D02*
X132080000Y-104140000D01*
X132715000Y-105918000D02*
X132080000Y-105283000D01*
X136160000Y-101600000D02*
X132080000Y-101600000D01*
X136160000Y-97282000D02*
X134874000Y-97282000D01*
X133096000Y-99060000D02*
X132080000Y-99060000D01*
X134874000Y-97282000D02*
X133096000Y-99060000D01*
D20*
X154851100Y-93573600D02*
X154851100Y-94068900D01*
X154851100Y-94068900D02*
X153543000Y-95377000D01*
X153543000Y-95377000D02*
X149860000Y-95377000D01*
X149860000Y-95377000D02*
X142687000Y-102550000D01*
X142687000Y-102550000D02*
X140716000Y-102550000D01*
X140716000Y-102550000D02*
X138160000Y-102550000D01*
X142151100Y-93573600D02*
X142151100Y-93637100D01*
X142151100Y-93637100D02*
X143764000Y-95250000D01*
X143764000Y-95250000D02*
X143764000Y-97663000D01*
X143764000Y-97663000D02*
X143195000Y-98232000D01*
X143195000Y-98232000D02*
X140716000Y-98232000D01*
X140716000Y-98232000D02*
X138160000Y-98232000D01*
X140716000Y-106868000D02*
X138160000Y-106868000D01*
X147231100Y-116433600D02*
X147231100Y-114465100D01*
X143063000Y-106868000D02*
X140716000Y-106868000D01*
X143764000Y-107569000D02*
X143063000Y-106868000D01*
X143764000Y-110998000D02*
X143764000Y-107569000D01*
X147231100Y-114465100D02*
X143764000Y-110998000D01*
X140716000Y-112075000D02*
X142555000Y-112075000D01*
X144691100Y-114211100D02*
X144691100Y-116433600D01*
X142555000Y-112075000D02*
X144691100Y-114211100D01*
X138033000Y-112075000D02*
X140716000Y-112075000D01*
X139611100Y-116433600D02*
X139611100Y-114388900D01*
X150368000Y-113030000D02*
X153162000Y-113030000D01*
X150241000Y-113157000D02*
X150368000Y-113030000D01*
X139611100Y-114388900D02*
X140081000Y-113919000D01*
D21*
G36*
X165227000Y-118364000D02*
X128270000Y-118364000D01*
X128270000Y-112776000D01*
X128991999Y-112776000D01*
X128992000Y-112776005D01*
X128992000Y-116331995D01*
X128991999Y-116332000D01*
X129053049Y-116638912D01*
X129226900Y-116899100D01*
X129861898Y-117534097D01*
X129861900Y-117534100D01*
X130122088Y-117707951D01*
X130429000Y-117769001D01*
X130429005Y-117769000D01*
X135000995Y-117769000D01*
X135001000Y-117769001D01*
X135307912Y-117707951D01*
X135568100Y-117534100D01*
X135920061Y-117182138D01*
X135956485Y-117182170D01*
X136315703Y-117033744D01*
X136590778Y-116759149D01*
X136616834Y-116696398D01*
X138283871Y-116696398D01*
X138485469Y-117184303D01*
X138858434Y-117557919D01*
X139345985Y-117760369D01*
X139873898Y-117760829D01*
X140361803Y-117559231D01*
X140521266Y-117400045D01*
X141364261Y-117400045D01*
X141462085Y-117598013D01*
X141960135Y-117773053D01*
X142487257Y-117744172D01*
X142840115Y-117598013D01*
X142937939Y-117400045D01*
X142151100Y-116613205D01*
X141364261Y-117400045D01*
X140521266Y-117400045D01*
X140735419Y-117186266D01*
X140874407Y-116851548D01*
X140986687Y-117122615D01*
X141184655Y-117220439D01*
X141971495Y-116433600D01*
X141184655Y-115646761D01*
X140986687Y-115744585D01*
X140883516Y-116038143D01*
X140736731Y-115682897D01*
X140521365Y-115467155D01*
X141364261Y-115467155D01*
X142151100Y-116253995D01*
X142937939Y-115467155D01*
X142840115Y-115269187D01*
X142342065Y-115094147D01*
X141814943Y-115123028D01*
X141462085Y-115269187D01*
X141364261Y-115467155D01*
X140521365Y-115467155D01*
X140363766Y-115309281D01*
X140213100Y-115246719D01*
X140213100Y-114896116D01*
X140274485Y-114896170D01*
X140633703Y-114747744D01*
X140908778Y-114473149D01*
X141057830Y-114114190D01*
X141058170Y-113725515D01*
X140909744Y-113366297D01*
X140635149Y-113091222D01*
X140276190Y-112942170D01*
X139887515Y-112941830D01*
X139528297Y-113090256D01*
X139253222Y-113364851D01*
X139104170Y-113723810D01*
X139103854Y-114085298D01*
X139054925Y-114158525D01*
X139009100Y-114388900D01*
X139009100Y-115246526D01*
X138860397Y-115307969D01*
X138486781Y-115680934D01*
X138284331Y-116168485D01*
X138283871Y-116696398D01*
X136616834Y-116696398D01*
X136739830Y-116400190D01*
X136740170Y-116011515D01*
X136591744Y-115652297D01*
X136317149Y-115377222D01*
X135958190Y-115228170D01*
X135569515Y-115227830D01*
X135210297Y-115376256D01*
X134935222Y-115650851D01*
X134786170Y-116009810D01*
X134786137Y-116047664D01*
X134668800Y-116165000D01*
X130761199Y-116165000D01*
X130596000Y-115999800D01*
X130596000Y-113108200D01*
X131107634Y-112596566D01*
X131152007Y-112662975D01*
X131566295Y-112939794D01*
X131942546Y-113014635D01*
X131230000Y-113014635D01*
X131071763Y-113044409D01*
X130926433Y-113137927D01*
X130828936Y-113280619D01*
X130794635Y-113450000D01*
X130794635Y-115150000D01*
X130824409Y-115308237D01*
X130917927Y-115453567D01*
X131060619Y-115551064D01*
X131230000Y-115585365D01*
X132930000Y-115585365D01*
X133088237Y-115555591D01*
X133233567Y-115462073D01*
X133331064Y-115319381D01*
X133365365Y-115150000D01*
X133365365Y-114977000D01*
X133731000Y-114977000D01*
X133990077Y-114925466D01*
X134209711Y-114778711D01*
X134844712Y-114143711D01*
X134991467Y-113924076D01*
X135043000Y-113665000D01*
X135043000Y-112040422D01*
X135264634Y-111818788D01*
X135270927Y-111828567D01*
X135413619Y-111926064D01*
X135583000Y-111960365D01*
X136483000Y-111960365D01*
X136641237Y-111930591D01*
X136786567Y-111837073D01*
X136884064Y-111694381D01*
X136887988Y-111675000D01*
X137147635Y-111675000D01*
X137147635Y-112475000D01*
X137177409Y-112633237D01*
X137270927Y-112778567D01*
X137413619Y-112876064D01*
X137583000Y-112910365D01*
X138483000Y-112910365D01*
X138641237Y-112880591D01*
X138786567Y-112787073D01*
X138861776Y-112677000D01*
X139720744Y-112677000D01*
X139753927Y-112728567D01*
X139896619Y-112826064D01*
X140066000Y-112860365D01*
X141366000Y-112860365D01*
X141524237Y-112830591D01*
X141669567Y-112737073D01*
X141710613Y-112677000D01*
X142305644Y-112677000D01*
X144089100Y-114460457D01*
X144089100Y-115246526D01*
X143940397Y-115307969D01*
X143566781Y-115680934D01*
X143427793Y-116015652D01*
X143315513Y-115744585D01*
X143117545Y-115646761D01*
X142330705Y-116433600D01*
X143117545Y-117220439D01*
X143315513Y-117122615D01*
X143418684Y-116829057D01*
X143565469Y-117184303D01*
X143938434Y-117557919D01*
X144425985Y-117760369D01*
X144953898Y-117760829D01*
X145441803Y-117559231D01*
X145815419Y-117186266D01*
X145961209Y-116835167D01*
X146105469Y-117184303D01*
X146478434Y-117557919D01*
X146965985Y-117760369D01*
X147493898Y-117760829D01*
X147981803Y-117559231D01*
X148355419Y-117186266D01*
X148501209Y-116835167D01*
X148645469Y-117184303D01*
X149018434Y-117557919D01*
X149505985Y-117760369D01*
X150033898Y-117760829D01*
X150521803Y-117559231D01*
X150895419Y-117186266D01*
X151041209Y-116835167D01*
X151185469Y-117184303D01*
X151558434Y-117557919D01*
X152045985Y-117760369D01*
X152573898Y-117760829D01*
X153061803Y-117559231D01*
X153435419Y-117186266D01*
X153581209Y-116835167D01*
X153725469Y-117184303D01*
X154098434Y-117557919D01*
X154585985Y-117760369D01*
X155113898Y-117760829D01*
X155601803Y-117559231D01*
X155975419Y-117186266D01*
X156121209Y-116835167D01*
X156265469Y-117184303D01*
X156638434Y-117557919D01*
X157125985Y-117760369D01*
X157653898Y-117760829D01*
X158141803Y-117559231D01*
X158515419Y-117186266D01*
X158717869Y-116698715D01*
X158718329Y-116170802D01*
X158516731Y-115682897D01*
X158143766Y-115309281D01*
X157656215Y-115106831D01*
X157128302Y-115106371D01*
X156640397Y-115307969D01*
X156266781Y-115680934D01*
X156120991Y-116032033D01*
X155976731Y-115682897D01*
X155603766Y-115309281D01*
X155116215Y-115106831D01*
X154588302Y-115106371D01*
X154100397Y-115307969D01*
X153726781Y-115680934D01*
X153580991Y-116032033D01*
X153436731Y-115682897D01*
X153063766Y-115309281D01*
X152576215Y-115106831D01*
X152048302Y-115106371D01*
X151560397Y-115307969D01*
X151186781Y-115680934D01*
X151040991Y-116032033D01*
X150896731Y-115682897D01*
X150523766Y-115309281D01*
X150036215Y-115106831D01*
X149508302Y-115106371D01*
X149020397Y-115307969D01*
X148646781Y-115680934D01*
X148500991Y-116032033D01*
X148356731Y-115682897D01*
X147983766Y-115309281D01*
X147833100Y-115246719D01*
X147833100Y-114465100D01*
X147787275Y-114234725D01*
X147656778Y-114039422D01*
X144366000Y-110748644D01*
X144366000Y-110683485D01*
X148374830Y-110683485D01*
X148523256Y-111042703D01*
X148797851Y-111317778D01*
X149156810Y-111466830D01*
X149545485Y-111467170D01*
X149904703Y-111318744D01*
X149931494Y-111292000D01*
X151876635Y-111292000D01*
X151876635Y-111340000D01*
X151906409Y-111498237D01*
X151999927Y-111643567D01*
X152142619Y-111741064D01*
X152312000Y-111775365D01*
X153024546Y-111775365D01*
X152648295Y-111850206D01*
X152234007Y-112127025D01*
X152032901Y-112428000D01*
X150893755Y-112428000D01*
X150795149Y-112329222D01*
X150436190Y-112180170D01*
X150047515Y-112179830D01*
X149688297Y-112328256D01*
X149413222Y-112602851D01*
X149264170Y-112961810D01*
X149263830Y-113350485D01*
X149412256Y-113709703D01*
X149686851Y-113984778D01*
X150045810Y-114133830D01*
X150434485Y-114134170D01*
X150793703Y-113985744D01*
X151068778Y-113711149D01*
X151101643Y-113632000D01*
X152032901Y-113632000D01*
X152234007Y-113932975D01*
X152648295Y-114209794D01*
X153136982Y-114307000D01*
X153187018Y-114307000D01*
X153675705Y-114209794D01*
X154089993Y-113932975D01*
X154366812Y-113518687D01*
X154464018Y-113030000D01*
X154366812Y-112541313D01*
X154089993Y-112127025D01*
X153675705Y-111850206D01*
X153299454Y-111775365D01*
X154012000Y-111775365D01*
X154170237Y-111745591D01*
X154315567Y-111652073D01*
X154413064Y-111509381D01*
X154447365Y-111340000D01*
X154447365Y-109640000D01*
X154417591Y-109481763D01*
X154324073Y-109336433D01*
X154181381Y-109238936D01*
X154012000Y-109204635D01*
X153075000Y-109204635D01*
X153075000Y-104928365D01*
X154023000Y-104928365D01*
X154181237Y-104898591D01*
X154326567Y-104805073D01*
X154424064Y-104662381D01*
X154458365Y-104493000D01*
X154458365Y-102976750D01*
X156096000Y-102976750D01*
X156096000Y-104577936D01*
X156161007Y-104734876D01*
X156281124Y-104854993D01*
X156438065Y-104920000D01*
X158039250Y-104920000D01*
X158146000Y-104813250D01*
X158146000Y-102870000D01*
X158400000Y-102870000D01*
X158400000Y-104813250D01*
X158506750Y-104920000D01*
X160107935Y-104920000D01*
X160264876Y-104854993D01*
X160384993Y-104734876D01*
X160450000Y-104577936D01*
X160450000Y-102976750D01*
X160343250Y-102870000D01*
X158400000Y-102870000D01*
X158146000Y-102870000D01*
X156202750Y-102870000D01*
X156096000Y-102976750D01*
X154458365Y-102976750D01*
X154458365Y-100993000D01*
X154442384Y-100908064D01*
X156096000Y-100908064D01*
X156096000Y-102509250D01*
X156202750Y-102616000D01*
X158146000Y-102616000D01*
X158146000Y-100672750D01*
X158400000Y-100672750D01*
X158400000Y-102616000D01*
X160343250Y-102616000D01*
X160450000Y-102509250D01*
X160450000Y-100908064D01*
X160384993Y-100751124D01*
X160264876Y-100631007D01*
X160107935Y-100566000D01*
X158506750Y-100566000D01*
X158400000Y-100672750D01*
X158146000Y-100672750D01*
X158039250Y-100566000D01*
X156438065Y-100566000D01*
X156281124Y-100631007D01*
X156161007Y-100751124D01*
X156096000Y-100908064D01*
X154442384Y-100908064D01*
X154428591Y-100834763D01*
X154335073Y-100689433D01*
X154192381Y-100591936D01*
X154023000Y-100557635D01*
X150523000Y-100557635D01*
X150364763Y-100587409D01*
X150219433Y-100680927D01*
X150121936Y-100823619D01*
X150087635Y-100993000D01*
X150087635Y-104493000D01*
X150117409Y-104651237D01*
X150210927Y-104796567D01*
X150353619Y-104894064D01*
X150523000Y-104928365D01*
X151471000Y-104928365D01*
X151471000Y-109600995D01*
X151470999Y-109601000D01*
X151488305Y-109688000D01*
X149931882Y-109688000D01*
X149906149Y-109662222D01*
X149547190Y-109513170D01*
X149158515Y-109512830D01*
X148799297Y-109661256D01*
X148524222Y-109935851D01*
X148375170Y-110294810D01*
X148374830Y-110683485D01*
X144366000Y-110683485D01*
X144366000Y-107569000D01*
X144320175Y-107338625D01*
X144189678Y-107143322D01*
X143488678Y-106442322D01*
X143293375Y-106311825D01*
X143063000Y-106266000D01*
X141711256Y-106266000D01*
X141678073Y-106214433D01*
X141535381Y-106116936D01*
X141366000Y-106082635D01*
X140066000Y-106082635D01*
X139907763Y-106112409D01*
X139762433Y-106205927D01*
X139721387Y-106266000D01*
X138987430Y-106266000D01*
X138922073Y-106164433D01*
X138779381Y-106066936D01*
X138610000Y-106032635D01*
X137710000Y-106032635D01*
X137551763Y-106062409D01*
X137406433Y-106155927D01*
X137308936Y-106298619D01*
X137274635Y-106468000D01*
X137274635Y-107268000D01*
X137304409Y-107426237D01*
X137397927Y-107571567D01*
X137540619Y-107669064D01*
X137710000Y-107703365D01*
X138610000Y-107703365D01*
X138768237Y-107673591D01*
X138913567Y-107580073D01*
X138988776Y-107470000D01*
X139720744Y-107470000D01*
X139753927Y-107521567D01*
X139896619Y-107619064D01*
X140066000Y-107653365D01*
X141366000Y-107653365D01*
X141524237Y-107623591D01*
X141669567Y-107530073D01*
X141710613Y-107470000D01*
X142813644Y-107470000D01*
X143162000Y-107818356D01*
X143162000Y-110998000D01*
X143207825Y-111228375D01*
X143338322Y-111423678D01*
X146629100Y-114714456D01*
X146629100Y-115246526D01*
X146480397Y-115307969D01*
X146106781Y-115680934D01*
X145960991Y-116032033D01*
X145816731Y-115682897D01*
X145443766Y-115309281D01*
X145293100Y-115246719D01*
X145293100Y-114211100D01*
X145247275Y-113980725D01*
X145209424Y-113924077D01*
X145116779Y-113785422D01*
X142980678Y-111649322D01*
X142785375Y-111518825D01*
X142555000Y-111473000D01*
X141711256Y-111473000D01*
X141678073Y-111421433D01*
X141535381Y-111323936D01*
X141366000Y-111289635D01*
X140066000Y-111289635D01*
X139907763Y-111319409D01*
X139762433Y-111412927D01*
X139721387Y-111473000D01*
X138860430Y-111473000D01*
X138795073Y-111371433D01*
X138652381Y-111273936D01*
X138483000Y-111239635D01*
X137583000Y-111239635D01*
X137424763Y-111269409D01*
X137279433Y-111362927D01*
X137181936Y-111505619D01*
X137147635Y-111675000D01*
X136887988Y-111675000D01*
X136918365Y-111525000D01*
X136918365Y-110725000D01*
X136888591Y-110566763D01*
X136795073Y-110421433D01*
X136776511Y-110408750D01*
X137156000Y-110408750D01*
X137156000Y-110659936D01*
X137221007Y-110816876D01*
X137341124Y-110936993D01*
X137498065Y-111002000D01*
X137799250Y-111002000D01*
X137906000Y-110895250D01*
X137906000Y-110302000D01*
X138160000Y-110302000D01*
X138160000Y-110895250D01*
X138266750Y-111002000D01*
X138567935Y-111002000D01*
X138724876Y-110936993D01*
X138844993Y-110816876D01*
X138910000Y-110659936D01*
X138910000Y-110408750D01*
X139639000Y-110408750D01*
X139639000Y-110609935D01*
X139704007Y-110766876D01*
X139824124Y-110886993D01*
X139981064Y-110952000D01*
X140482250Y-110952000D01*
X140589000Y-110845250D01*
X140589000Y-110302000D01*
X140843000Y-110302000D01*
X140843000Y-110845250D01*
X140949750Y-110952000D01*
X141450936Y-110952000D01*
X141607876Y-110886993D01*
X141727993Y-110766876D01*
X141793000Y-110609935D01*
X141793000Y-110408750D01*
X141686250Y-110302000D01*
X140843000Y-110302000D01*
X140589000Y-110302000D01*
X139745750Y-110302000D01*
X139639000Y-110408750D01*
X138910000Y-110408750D01*
X138803250Y-110302000D01*
X138160000Y-110302000D01*
X137906000Y-110302000D01*
X137262750Y-110302000D01*
X137156000Y-110408750D01*
X136776511Y-110408750D01*
X136652381Y-110323936D01*
X136483000Y-110289635D01*
X135583000Y-110289635D01*
X135424763Y-110319409D01*
X135279433Y-110412927D01*
X135255469Y-110448000D01*
X135001000Y-110448000D01*
X134741924Y-110499533D01*
X134522289Y-110646288D01*
X133887289Y-111281289D01*
X133740534Y-111500923D01*
X133689000Y-111760000D01*
X133689000Y-113384577D01*
X133450578Y-113623000D01*
X133365365Y-113623000D01*
X133365365Y-113450000D01*
X133335591Y-113291763D01*
X133242073Y-113146433D01*
X133099381Y-113048936D01*
X132930000Y-113014635D01*
X132217454Y-113014635D01*
X132593705Y-112939794D01*
X133007993Y-112662975D01*
X133284812Y-112248687D01*
X133382018Y-111760000D01*
X133284812Y-111271313D01*
X133007993Y-110857025D01*
X132593705Y-110580206D01*
X132105018Y-110483000D01*
X132054982Y-110483000D01*
X131566295Y-110580206D01*
X131152007Y-110857025D01*
X131107634Y-110923434D01*
X130723000Y-110538800D01*
X130723000Y-109690064D01*
X137156000Y-109690064D01*
X137156000Y-109941250D01*
X137262750Y-110048000D01*
X137906000Y-110048000D01*
X137906000Y-109454750D01*
X138160000Y-109454750D01*
X138160000Y-110048000D01*
X138803250Y-110048000D01*
X138910000Y-109941250D01*
X138910000Y-109740065D01*
X139639000Y-109740065D01*
X139639000Y-109941250D01*
X139745750Y-110048000D01*
X140589000Y-110048000D01*
X140589000Y-109504750D01*
X140843000Y-109504750D01*
X140843000Y-110048000D01*
X141686250Y-110048000D01*
X141793000Y-109941250D01*
X141793000Y-109740065D01*
X141727993Y-109583124D01*
X141607876Y-109463007D01*
X141450936Y-109398000D01*
X140949750Y-109398000D01*
X140843000Y-109504750D01*
X140589000Y-109504750D01*
X140482250Y-109398000D01*
X139981064Y-109398000D01*
X139824124Y-109463007D01*
X139704007Y-109583124D01*
X139639000Y-109740065D01*
X138910000Y-109740065D01*
X138910000Y-109690064D01*
X138844993Y-109533124D01*
X138724876Y-109413007D01*
X138567935Y-109348000D01*
X138266750Y-109348000D01*
X138160000Y-109454750D01*
X137906000Y-109454750D01*
X137799250Y-109348000D01*
X137498065Y-109348000D01*
X137341124Y-109413007D01*
X137221007Y-109533124D01*
X137156000Y-109690064D01*
X130723000Y-109690064D01*
X130723000Y-97614200D01*
X131015199Y-97322000D01*
X131084538Y-97322000D01*
X131152007Y-97422975D01*
X131566295Y-97699794D01*
X132019791Y-97790000D01*
X131566295Y-97880206D01*
X131152007Y-98157025D01*
X130875188Y-98571313D01*
X130777982Y-99060000D01*
X130875188Y-99548687D01*
X131152007Y-99962975D01*
X131566295Y-100239794D01*
X132019791Y-100330000D01*
X131566295Y-100420206D01*
X131152007Y-100697025D01*
X130875188Y-101111313D01*
X130777982Y-101600000D01*
X130875188Y-102088687D01*
X131152007Y-102502975D01*
X131566295Y-102779794D01*
X131942546Y-102854635D01*
X131230000Y-102854635D01*
X131071763Y-102884409D01*
X130926433Y-102977927D01*
X130828936Y-103120619D01*
X130794635Y-103290000D01*
X130794635Y-104990000D01*
X130824409Y-105148237D01*
X130917927Y-105293567D01*
X131060619Y-105391064D01*
X131230000Y-105425365D01*
X131431318Y-105425365D01*
X131454534Y-105542077D01*
X131499836Y-105609876D01*
X131601289Y-105761711D01*
X132236289Y-106396712D01*
X132455924Y-106543467D01*
X132715000Y-106595000D01*
X135380831Y-106595000D01*
X135397927Y-106621567D01*
X135540619Y-106719064D01*
X135710000Y-106753365D01*
X136610000Y-106753365D01*
X136768237Y-106723591D01*
X136913567Y-106630073D01*
X137011064Y-106487381D01*
X137045365Y-106318000D01*
X137045365Y-105518000D01*
X137015591Y-105359763D01*
X136922073Y-105214433D01*
X136903511Y-105201750D01*
X137283000Y-105201750D01*
X137283000Y-105452936D01*
X137348007Y-105609876D01*
X137468124Y-105729993D01*
X137625065Y-105795000D01*
X137926250Y-105795000D01*
X138033000Y-105688250D01*
X138033000Y-105095000D01*
X138287000Y-105095000D01*
X138287000Y-105688250D01*
X138393750Y-105795000D01*
X138694935Y-105795000D01*
X138851876Y-105729993D01*
X138971993Y-105609876D01*
X139037000Y-105452936D01*
X139037000Y-105201750D01*
X139639000Y-105201750D01*
X139639000Y-105402935D01*
X139704007Y-105559876D01*
X139824124Y-105679993D01*
X139981064Y-105745000D01*
X140482250Y-105745000D01*
X140589000Y-105638250D01*
X140589000Y-105095000D01*
X140843000Y-105095000D01*
X140843000Y-105638250D01*
X140949750Y-105745000D01*
X141450936Y-105745000D01*
X141607876Y-105679993D01*
X141727993Y-105559876D01*
X141793000Y-105402935D01*
X141793000Y-105201750D01*
X141686250Y-105095000D01*
X140843000Y-105095000D01*
X140589000Y-105095000D01*
X139745750Y-105095000D01*
X139639000Y-105201750D01*
X139037000Y-105201750D01*
X138930250Y-105095000D01*
X138287000Y-105095000D01*
X138033000Y-105095000D01*
X137389750Y-105095000D01*
X137283000Y-105201750D01*
X136903511Y-105201750D01*
X136779381Y-105116936D01*
X136610000Y-105082635D01*
X135710000Y-105082635D01*
X135551763Y-105112409D01*
X135406433Y-105205927D01*
X135382469Y-105241000D01*
X133275296Y-105241000D01*
X133331064Y-105159381D01*
X133365365Y-104990000D01*
X133365365Y-104483064D01*
X137283000Y-104483064D01*
X137283000Y-104734250D01*
X137389750Y-104841000D01*
X138033000Y-104841000D01*
X138033000Y-104247750D01*
X138287000Y-104247750D01*
X138287000Y-104841000D01*
X138930250Y-104841000D01*
X139037000Y-104734250D01*
X139037000Y-104533065D01*
X139639000Y-104533065D01*
X139639000Y-104734250D01*
X139745750Y-104841000D01*
X140589000Y-104841000D01*
X140589000Y-104297750D01*
X140843000Y-104297750D01*
X140843000Y-104841000D01*
X141686250Y-104841000D01*
X141793000Y-104734250D01*
X141793000Y-104533065D01*
X141727993Y-104376124D01*
X141607876Y-104256007D01*
X141450936Y-104191000D01*
X140949750Y-104191000D01*
X140843000Y-104297750D01*
X140589000Y-104297750D01*
X140482250Y-104191000D01*
X139981064Y-104191000D01*
X139824124Y-104256007D01*
X139704007Y-104376124D01*
X139639000Y-104533065D01*
X139037000Y-104533065D01*
X139037000Y-104483064D01*
X138971993Y-104326124D01*
X138851876Y-104206007D01*
X138694935Y-104141000D01*
X138393750Y-104141000D01*
X138287000Y-104247750D01*
X138033000Y-104247750D01*
X137926250Y-104141000D01*
X137625065Y-104141000D01*
X137468124Y-104206007D01*
X137348007Y-104326124D01*
X137283000Y-104483064D01*
X133365365Y-104483064D01*
X133365365Y-103290000D01*
X133335591Y-103131763D01*
X133242073Y-102986433D01*
X133099381Y-102888936D01*
X132930000Y-102854635D01*
X132217454Y-102854635D01*
X132593705Y-102779794D01*
X133007993Y-102502975D01*
X133158985Y-102277000D01*
X135380831Y-102277000D01*
X135397927Y-102303567D01*
X135540619Y-102401064D01*
X135710000Y-102435365D01*
X136610000Y-102435365D01*
X136768237Y-102405591D01*
X136913567Y-102312073D01*
X137011064Y-102169381D01*
X137045365Y-102000000D01*
X137045365Y-101200000D01*
X137015591Y-101041763D01*
X136922073Y-100896433D01*
X136903511Y-100883750D01*
X137283000Y-100883750D01*
X137283000Y-101134936D01*
X137348007Y-101291876D01*
X137468124Y-101411993D01*
X137625065Y-101477000D01*
X137926250Y-101477000D01*
X138033000Y-101370250D01*
X138033000Y-100777000D01*
X138287000Y-100777000D01*
X138287000Y-101370250D01*
X138393750Y-101477000D01*
X138694935Y-101477000D01*
X138851876Y-101411993D01*
X138971993Y-101291876D01*
X139037000Y-101134936D01*
X139037000Y-100883750D01*
X139639000Y-100883750D01*
X139639000Y-101084935D01*
X139704007Y-101241876D01*
X139824124Y-101361993D01*
X139981064Y-101427000D01*
X140482250Y-101427000D01*
X140589000Y-101320250D01*
X140589000Y-100777000D01*
X140843000Y-100777000D01*
X140843000Y-101320250D01*
X140949750Y-101427000D01*
X141450936Y-101427000D01*
X141607876Y-101361993D01*
X141727993Y-101241876D01*
X141793000Y-101084935D01*
X141793000Y-100883750D01*
X141686250Y-100777000D01*
X140843000Y-100777000D01*
X140589000Y-100777000D01*
X139745750Y-100777000D01*
X139639000Y-100883750D01*
X139037000Y-100883750D01*
X138930250Y-100777000D01*
X138287000Y-100777000D01*
X138033000Y-100777000D01*
X137389750Y-100777000D01*
X137283000Y-100883750D01*
X136903511Y-100883750D01*
X136779381Y-100798936D01*
X136610000Y-100764635D01*
X135710000Y-100764635D01*
X135551763Y-100794409D01*
X135406433Y-100887927D01*
X135382469Y-100923000D01*
X133158985Y-100923000D01*
X133007993Y-100697025D01*
X132593705Y-100420206D01*
X132140209Y-100330000D01*
X132593705Y-100239794D01*
X132705546Y-100165064D01*
X137283000Y-100165064D01*
X137283000Y-100416250D01*
X137389750Y-100523000D01*
X138033000Y-100523000D01*
X138033000Y-99929750D01*
X138287000Y-99929750D01*
X138287000Y-100523000D01*
X138930250Y-100523000D01*
X139037000Y-100416250D01*
X139037000Y-100215065D01*
X139639000Y-100215065D01*
X139639000Y-100416250D01*
X139745750Y-100523000D01*
X140589000Y-100523000D01*
X140589000Y-99979750D01*
X140843000Y-99979750D01*
X140843000Y-100523000D01*
X141686250Y-100523000D01*
X141793000Y-100416250D01*
X141793000Y-100215065D01*
X141727993Y-100058124D01*
X141607876Y-99938007D01*
X141450936Y-99873000D01*
X140949750Y-99873000D01*
X140843000Y-99979750D01*
X140589000Y-99979750D01*
X140482250Y-99873000D01*
X139981064Y-99873000D01*
X139824124Y-99938007D01*
X139704007Y-100058124D01*
X139639000Y-100215065D01*
X139037000Y-100215065D01*
X139037000Y-100165064D01*
X138971993Y-100008124D01*
X138851876Y-99888007D01*
X138694935Y-99823000D01*
X138393750Y-99823000D01*
X138287000Y-99929750D01*
X138033000Y-99929750D01*
X137926250Y-99823000D01*
X137625065Y-99823000D01*
X137468124Y-99888007D01*
X137348007Y-100008124D01*
X137283000Y-100165064D01*
X132705546Y-100165064D01*
X133007993Y-99962975D01*
X133168640Y-99722551D01*
X133355077Y-99685466D01*
X133574711Y-99538711D01*
X135154422Y-97959000D01*
X135380831Y-97959000D01*
X135397927Y-97985567D01*
X135540619Y-98083064D01*
X135710000Y-98117365D01*
X136610000Y-98117365D01*
X136768237Y-98087591D01*
X136913567Y-97994073D01*
X137011064Y-97851381D01*
X137014988Y-97832000D01*
X137274635Y-97832000D01*
X137274635Y-98632000D01*
X137304409Y-98790237D01*
X137397927Y-98935567D01*
X137540619Y-99033064D01*
X137710000Y-99067365D01*
X138610000Y-99067365D01*
X138768237Y-99037591D01*
X138913567Y-98944073D01*
X138988776Y-98834000D01*
X139720744Y-98834000D01*
X139753927Y-98885567D01*
X139896619Y-98983064D01*
X140066000Y-99017365D01*
X141366000Y-99017365D01*
X141524237Y-98987591D01*
X141669567Y-98894073D01*
X141710613Y-98834000D01*
X143195000Y-98834000D01*
X143425375Y-98788175D01*
X143620678Y-98657678D01*
X144189679Y-98088678D01*
X144320175Y-97893375D01*
X144366000Y-97663000D01*
X144366000Y-95250000D01*
X144320175Y-95019625D01*
X144189678Y-94824322D01*
X144151924Y-94786568D01*
X144425985Y-94900369D01*
X144953898Y-94900829D01*
X145441803Y-94699231D01*
X145815419Y-94326266D01*
X145961209Y-93975167D01*
X146105469Y-94324303D01*
X146478434Y-94697919D01*
X146965985Y-94900369D01*
X147493898Y-94900829D01*
X147981803Y-94699231D01*
X148355419Y-94326266D01*
X148501209Y-93975167D01*
X148645469Y-94324303D01*
X149018434Y-94697919D01*
X149505985Y-94900369D01*
X149510573Y-94900373D01*
X149434322Y-94951322D01*
X142437644Y-101948000D01*
X141711256Y-101948000D01*
X141678073Y-101896433D01*
X141535381Y-101798936D01*
X141366000Y-101764635D01*
X140066000Y-101764635D01*
X139907763Y-101794409D01*
X139762433Y-101887927D01*
X139721387Y-101948000D01*
X138987430Y-101948000D01*
X138922073Y-101846433D01*
X138779381Y-101748936D01*
X138610000Y-101714635D01*
X137710000Y-101714635D01*
X137551763Y-101744409D01*
X137406433Y-101837927D01*
X137308936Y-101980619D01*
X137274635Y-102150000D01*
X137274635Y-102950000D01*
X137304409Y-103108237D01*
X137397927Y-103253567D01*
X137540619Y-103351064D01*
X137710000Y-103385365D01*
X138610000Y-103385365D01*
X138768237Y-103355591D01*
X138913567Y-103262073D01*
X138988776Y-103152000D01*
X139720744Y-103152000D01*
X139753927Y-103203567D01*
X139896619Y-103301064D01*
X140066000Y-103335365D01*
X141366000Y-103335365D01*
X141524237Y-103305591D01*
X141669567Y-103212073D01*
X141710613Y-103152000D01*
X142687000Y-103152000D01*
X142917375Y-103106175D01*
X143112678Y-102975678D01*
X147811606Y-98276750D01*
X153096000Y-98276750D01*
X153096000Y-99877936D01*
X153161007Y-100034876D01*
X153281124Y-100154993D01*
X153438065Y-100220000D01*
X155039250Y-100220000D01*
X155146000Y-100113250D01*
X155146000Y-98170000D01*
X155400000Y-98170000D01*
X155400000Y-100113250D01*
X155506750Y-100220000D01*
X157107935Y-100220000D01*
X157264876Y-100154993D01*
X157384993Y-100034876D01*
X157450000Y-99877936D01*
X157450000Y-98276750D01*
X157343250Y-98170000D01*
X155400000Y-98170000D01*
X155146000Y-98170000D01*
X153202750Y-98170000D01*
X153096000Y-98276750D01*
X147811606Y-98276750D01*
X150109356Y-95979000D01*
X153233131Y-95979000D01*
X153161007Y-96051124D01*
X153096000Y-96208064D01*
X153096000Y-97809250D01*
X153202750Y-97916000D01*
X155146000Y-97916000D01*
X155146000Y-95972750D01*
X155400000Y-95972750D01*
X155400000Y-97916000D01*
X157343250Y-97916000D01*
X157450000Y-97809250D01*
X157450000Y-96208064D01*
X157384993Y-96051124D01*
X157264876Y-95931007D01*
X157107935Y-95866000D01*
X155506750Y-95866000D01*
X155400000Y-95972750D01*
X155146000Y-95972750D01*
X155039250Y-95866000D01*
X153873910Y-95866000D01*
X153968678Y-95802678D01*
X154870739Y-94900617D01*
X155113898Y-94900829D01*
X155601803Y-94699231D01*
X155975419Y-94326266D01*
X156121209Y-93975167D01*
X156265469Y-94324303D01*
X156638434Y-94697919D01*
X157125985Y-94900369D01*
X157653898Y-94900829D01*
X158141803Y-94699231D01*
X158515419Y-94326266D01*
X158717869Y-93838715D01*
X158718329Y-93310802D01*
X158516731Y-92822897D01*
X158143766Y-92449281D01*
X157656215Y-92246831D01*
X157128302Y-92246371D01*
X156640397Y-92447969D01*
X156266781Y-92820934D01*
X156120991Y-93172033D01*
X155976731Y-92822897D01*
X155603766Y-92449281D01*
X155116215Y-92246831D01*
X154588302Y-92246371D01*
X154100397Y-92447969D01*
X153726781Y-92820934D01*
X153580991Y-93172033D01*
X153436731Y-92822897D01*
X153063766Y-92449281D01*
X152576215Y-92246831D01*
X152048302Y-92246371D01*
X151560397Y-92447969D01*
X151186781Y-92820934D01*
X151040991Y-93172033D01*
X150896731Y-92822897D01*
X150523766Y-92449281D01*
X150036215Y-92246831D01*
X149508302Y-92246371D01*
X149020397Y-92447969D01*
X148646781Y-92820934D01*
X148500991Y-93172033D01*
X148356731Y-92822897D01*
X147983766Y-92449281D01*
X147496215Y-92246831D01*
X146968302Y-92246371D01*
X146480397Y-92447969D01*
X146106781Y-92820934D01*
X145960991Y-93172033D01*
X145816731Y-92822897D01*
X145443766Y-92449281D01*
X144956215Y-92246831D01*
X144428302Y-92246371D01*
X143940397Y-92447969D01*
X143566781Y-92820934D01*
X143420991Y-93172033D01*
X143276731Y-92822897D01*
X142903766Y-92449281D01*
X142416215Y-92246831D01*
X141888302Y-92246371D01*
X141400397Y-92447969D01*
X141026781Y-92820934D01*
X140880991Y-93172033D01*
X140736731Y-92822897D01*
X140363766Y-92449281D01*
X139876215Y-92246831D01*
X139348302Y-92246371D01*
X138860397Y-92447969D01*
X138486781Y-92820934D01*
X138284331Y-93308485D01*
X138283871Y-93836398D01*
X138485469Y-94324303D01*
X138858434Y-94697919D01*
X139345985Y-94900369D01*
X139873898Y-94900829D01*
X140361803Y-94699231D01*
X140735419Y-94326266D01*
X140881209Y-93975167D01*
X141025469Y-94324303D01*
X141398434Y-94697919D01*
X141885985Y-94900369D01*
X142413898Y-94900829D01*
X142519740Y-94857096D01*
X143162000Y-95499356D01*
X143162000Y-97413643D01*
X142945644Y-97630000D01*
X141711256Y-97630000D01*
X141678073Y-97578433D01*
X141535381Y-97480936D01*
X141366000Y-97446635D01*
X140066000Y-97446635D01*
X139907763Y-97476409D01*
X139762433Y-97569927D01*
X139721387Y-97630000D01*
X138987430Y-97630000D01*
X138922073Y-97528433D01*
X138779381Y-97430936D01*
X138610000Y-97396635D01*
X137710000Y-97396635D01*
X137551763Y-97426409D01*
X137406433Y-97519927D01*
X137308936Y-97662619D01*
X137274635Y-97832000D01*
X137014988Y-97832000D01*
X137045365Y-97682000D01*
X137045365Y-96882000D01*
X137015591Y-96723763D01*
X136922073Y-96578433D01*
X136903511Y-96565750D01*
X137283000Y-96565750D01*
X137283000Y-96816936D01*
X137348007Y-96973876D01*
X137468124Y-97093993D01*
X137625065Y-97159000D01*
X137926250Y-97159000D01*
X138033000Y-97052250D01*
X138033000Y-96459000D01*
X138287000Y-96459000D01*
X138287000Y-97052250D01*
X138393750Y-97159000D01*
X138694935Y-97159000D01*
X138851876Y-97093993D01*
X138971993Y-96973876D01*
X139037000Y-96816936D01*
X139037000Y-96565750D01*
X139639000Y-96565750D01*
X139639000Y-96766935D01*
X139704007Y-96923876D01*
X139824124Y-97043993D01*
X139981064Y-97109000D01*
X140482250Y-97109000D01*
X140589000Y-97002250D01*
X140589000Y-96459000D01*
X140843000Y-96459000D01*
X140843000Y-97002250D01*
X140949750Y-97109000D01*
X141450936Y-97109000D01*
X141607876Y-97043993D01*
X141727993Y-96923876D01*
X141793000Y-96766935D01*
X141793000Y-96565750D01*
X141686250Y-96459000D01*
X140843000Y-96459000D01*
X140589000Y-96459000D01*
X139745750Y-96459000D01*
X139639000Y-96565750D01*
X139037000Y-96565750D01*
X138930250Y-96459000D01*
X138287000Y-96459000D01*
X138033000Y-96459000D01*
X137389750Y-96459000D01*
X137283000Y-96565750D01*
X136903511Y-96565750D01*
X136779381Y-96480936D01*
X136610000Y-96446635D01*
X135710000Y-96446635D01*
X135551763Y-96476409D01*
X135406433Y-96569927D01*
X135382469Y-96605000D01*
X134874000Y-96605000D01*
X134614924Y-96656533D01*
X134395289Y-96803289D01*
X133021435Y-98177143D01*
X133007993Y-98157025D01*
X132593705Y-97880206D01*
X132140209Y-97790000D01*
X132593705Y-97699794D01*
X133007993Y-97422975D01*
X133284812Y-97008687D01*
X133382018Y-96520000D01*
X133284812Y-96031313D01*
X133161701Y-95847064D01*
X137283000Y-95847064D01*
X137283000Y-96098250D01*
X137389750Y-96205000D01*
X138033000Y-96205000D01*
X138033000Y-95611750D01*
X138287000Y-95611750D01*
X138287000Y-96205000D01*
X138930250Y-96205000D01*
X139037000Y-96098250D01*
X139037000Y-95897065D01*
X139639000Y-95897065D01*
X139639000Y-96098250D01*
X139745750Y-96205000D01*
X140589000Y-96205000D01*
X140589000Y-95661750D01*
X140843000Y-95661750D01*
X140843000Y-96205000D01*
X141686250Y-96205000D01*
X141793000Y-96098250D01*
X141793000Y-95897065D01*
X141727993Y-95740124D01*
X141607876Y-95620007D01*
X141450936Y-95555000D01*
X140949750Y-95555000D01*
X140843000Y-95661750D01*
X140589000Y-95661750D01*
X140482250Y-95555000D01*
X139981064Y-95555000D01*
X139824124Y-95620007D01*
X139704007Y-95740124D01*
X139639000Y-95897065D01*
X139037000Y-95897065D01*
X139037000Y-95847064D01*
X138971993Y-95690124D01*
X138851876Y-95570007D01*
X138694935Y-95505000D01*
X138393750Y-95505000D01*
X138287000Y-95611750D01*
X138033000Y-95611750D01*
X137926250Y-95505000D01*
X137625065Y-95505000D01*
X137468124Y-95570007D01*
X137348007Y-95690124D01*
X137283000Y-95847064D01*
X133161701Y-95847064D01*
X133007993Y-95617025D01*
X132593705Y-95340206D01*
X132105018Y-95243000D01*
X132054982Y-95243000D01*
X131566295Y-95340206D01*
X131152007Y-95617025D01*
X131084538Y-95718000D01*
X130683005Y-95718000D01*
X130683000Y-95717999D01*
X130376088Y-95779049D01*
X130115900Y-95952900D01*
X130115898Y-95952903D01*
X129353900Y-96714900D01*
X129180049Y-96975088D01*
X129118999Y-97282000D01*
X129119000Y-97282005D01*
X129119000Y-110870995D01*
X129118999Y-110871000D01*
X129180049Y-111177912D01*
X129353900Y-111438100D01*
X129675800Y-111760000D01*
X129226900Y-112208900D01*
X129053049Y-112469088D01*
X128991999Y-112776000D01*
X128270000Y-112776000D01*
X128270000Y-91821000D01*
X165227000Y-91821000D01*
X165227000Y-118364000D01*
X165227000Y-118364000D01*
G37*
X165227000Y-118364000D02*
X128270000Y-118364000D01*
X128270000Y-112776000D01*
X128991999Y-112776000D01*
X128992000Y-112776005D01*
X128992000Y-116331995D01*
X128991999Y-116332000D01*
X129053049Y-116638912D01*
X129226900Y-116899100D01*
X129861898Y-117534097D01*
X129861900Y-117534100D01*
X130122088Y-117707951D01*
X130429000Y-117769001D01*
X130429005Y-117769000D01*
X135000995Y-117769000D01*
X135001000Y-117769001D01*
X135307912Y-117707951D01*
X135568100Y-117534100D01*
X135920061Y-117182138D01*
X135956485Y-117182170D01*
X136315703Y-117033744D01*
X136590778Y-116759149D01*
X136616834Y-116696398D01*
X138283871Y-116696398D01*
X138485469Y-117184303D01*
X138858434Y-117557919D01*
X139345985Y-117760369D01*
X139873898Y-117760829D01*
X140361803Y-117559231D01*
X140521266Y-117400045D01*
X141364261Y-117400045D01*
X141462085Y-117598013D01*
X141960135Y-117773053D01*
X142487257Y-117744172D01*
X142840115Y-117598013D01*
X142937939Y-117400045D01*
X142151100Y-116613205D01*
X141364261Y-117400045D01*
X140521266Y-117400045D01*
X140735419Y-117186266D01*
X140874407Y-116851548D01*
X140986687Y-117122615D01*
X141184655Y-117220439D01*
X141971495Y-116433600D01*
X141184655Y-115646761D01*
X140986687Y-115744585D01*
X140883516Y-116038143D01*
X140736731Y-115682897D01*
X140521365Y-115467155D01*
X141364261Y-115467155D01*
X142151100Y-116253995D01*
X142937939Y-115467155D01*
X142840115Y-115269187D01*
X142342065Y-115094147D01*
X141814943Y-115123028D01*
X141462085Y-115269187D01*
X141364261Y-115467155D01*
X140521365Y-115467155D01*
X140363766Y-115309281D01*
X140213100Y-115246719D01*
X140213100Y-114896116D01*
X140274485Y-114896170D01*
X140633703Y-114747744D01*
X140908778Y-114473149D01*
X141057830Y-114114190D01*
X141058170Y-113725515D01*
X140909744Y-113366297D01*
X140635149Y-113091222D01*
X140276190Y-112942170D01*
X139887515Y-112941830D01*
X139528297Y-113090256D01*
X139253222Y-113364851D01*
X139104170Y-113723810D01*
X139103854Y-114085298D01*
X139054925Y-114158525D01*
X139009100Y-114388900D01*
X139009100Y-115246526D01*
X138860397Y-115307969D01*
X138486781Y-115680934D01*
X138284331Y-116168485D01*
X138283871Y-116696398D01*
X136616834Y-116696398D01*
X136739830Y-116400190D01*
X136740170Y-116011515D01*
X136591744Y-115652297D01*
X136317149Y-115377222D01*
X135958190Y-115228170D01*
X135569515Y-115227830D01*
X135210297Y-115376256D01*
X134935222Y-115650851D01*
X134786170Y-116009810D01*
X134786137Y-116047664D01*
X134668800Y-116165000D01*
X130761199Y-116165000D01*
X130596000Y-115999800D01*
X130596000Y-113108200D01*
X131107634Y-112596566D01*
X131152007Y-112662975D01*
X131566295Y-112939794D01*
X131942546Y-113014635D01*
X131230000Y-113014635D01*
X131071763Y-113044409D01*
X130926433Y-113137927D01*
X130828936Y-113280619D01*
X130794635Y-113450000D01*
X130794635Y-115150000D01*
X130824409Y-115308237D01*
X130917927Y-115453567D01*
X131060619Y-115551064D01*
X131230000Y-115585365D01*
X132930000Y-115585365D01*
X133088237Y-115555591D01*
X133233567Y-115462073D01*
X133331064Y-115319381D01*
X133365365Y-115150000D01*
X133365365Y-114977000D01*
X133731000Y-114977000D01*
X133990077Y-114925466D01*
X134209711Y-114778711D01*
X134844712Y-114143711D01*
X134991467Y-113924076D01*
X135043000Y-113665000D01*
X135043000Y-112040422D01*
X135264634Y-111818788D01*
X135270927Y-111828567D01*
X135413619Y-111926064D01*
X135583000Y-111960365D01*
X136483000Y-111960365D01*
X136641237Y-111930591D01*
X136786567Y-111837073D01*
X136884064Y-111694381D01*
X136887988Y-111675000D01*
X137147635Y-111675000D01*
X137147635Y-112475000D01*
X137177409Y-112633237D01*
X137270927Y-112778567D01*
X137413619Y-112876064D01*
X137583000Y-112910365D01*
X138483000Y-112910365D01*
X138641237Y-112880591D01*
X138786567Y-112787073D01*
X138861776Y-112677000D01*
X139720744Y-112677000D01*
X139753927Y-112728567D01*
X139896619Y-112826064D01*
X140066000Y-112860365D01*
X141366000Y-112860365D01*
X141524237Y-112830591D01*
X141669567Y-112737073D01*
X141710613Y-112677000D01*
X142305644Y-112677000D01*
X144089100Y-114460457D01*
X144089100Y-115246526D01*
X143940397Y-115307969D01*
X143566781Y-115680934D01*
X143427793Y-116015652D01*
X143315513Y-115744585D01*
X143117545Y-115646761D01*
X142330705Y-116433600D01*
X143117545Y-117220439D01*
X143315513Y-117122615D01*
X143418684Y-116829057D01*
X143565469Y-117184303D01*
X143938434Y-117557919D01*
X144425985Y-117760369D01*
X144953898Y-117760829D01*
X145441803Y-117559231D01*
X145815419Y-117186266D01*
X145961209Y-116835167D01*
X146105469Y-117184303D01*
X146478434Y-117557919D01*
X146965985Y-117760369D01*
X147493898Y-117760829D01*
X147981803Y-117559231D01*
X148355419Y-117186266D01*
X148501209Y-116835167D01*
X148645469Y-117184303D01*
X149018434Y-117557919D01*
X149505985Y-117760369D01*
X150033898Y-117760829D01*
X150521803Y-117559231D01*
X150895419Y-117186266D01*
X151041209Y-116835167D01*
X151185469Y-117184303D01*
X151558434Y-117557919D01*
X152045985Y-117760369D01*
X152573898Y-117760829D01*
X153061803Y-117559231D01*
X153435419Y-117186266D01*
X153581209Y-116835167D01*
X153725469Y-117184303D01*
X154098434Y-117557919D01*
X154585985Y-117760369D01*
X155113898Y-117760829D01*
X155601803Y-117559231D01*
X155975419Y-117186266D01*
X156121209Y-116835167D01*
X156265469Y-117184303D01*
X156638434Y-117557919D01*
X157125985Y-117760369D01*
X157653898Y-117760829D01*
X158141803Y-117559231D01*
X158515419Y-117186266D01*
X158717869Y-116698715D01*
X158718329Y-116170802D01*
X158516731Y-115682897D01*
X158143766Y-115309281D01*
X157656215Y-115106831D01*
X157128302Y-115106371D01*
X156640397Y-115307969D01*
X156266781Y-115680934D01*
X156120991Y-116032033D01*
X155976731Y-115682897D01*
X155603766Y-115309281D01*
X155116215Y-115106831D01*
X154588302Y-115106371D01*
X154100397Y-115307969D01*
X153726781Y-115680934D01*
X153580991Y-116032033D01*
X153436731Y-115682897D01*
X153063766Y-115309281D01*
X152576215Y-115106831D01*
X152048302Y-115106371D01*
X151560397Y-115307969D01*
X151186781Y-115680934D01*
X151040991Y-116032033D01*
X150896731Y-115682897D01*
X150523766Y-115309281D01*
X150036215Y-115106831D01*
X149508302Y-115106371D01*
X149020397Y-115307969D01*
X148646781Y-115680934D01*
X148500991Y-116032033D01*
X148356731Y-115682897D01*
X147983766Y-115309281D01*
X147833100Y-115246719D01*
X147833100Y-114465100D01*
X147787275Y-114234725D01*
X147656778Y-114039422D01*
X144366000Y-110748644D01*
X144366000Y-110683485D01*
X148374830Y-110683485D01*
X148523256Y-111042703D01*
X148797851Y-111317778D01*
X149156810Y-111466830D01*
X149545485Y-111467170D01*
X149904703Y-111318744D01*
X149931494Y-111292000D01*
X151876635Y-111292000D01*
X151876635Y-111340000D01*
X151906409Y-111498237D01*
X151999927Y-111643567D01*
X152142619Y-111741064D01*
X152312000Y-111775365D01*
X153024546Y-111775365D01*
X152648295Y-111850206D01*
X152234007Y-112127025D01*
X152032901Y-112428000D01*
X150893755Y-112428000D01*
X150795149Y-112329222D01*
X150436190Y-112180170D01*
X150047515Y-112179830D01*
X149688297Y-112328256D01*
X149413222Y-112602851D01*
X149264170Y-112961810D01*
X149263830Y-113350485D01*
X149412256Y-113709703D01*
X149686851Y-113984778D01*
X150045810Y-114133830D01*
X150434485Y-114134170D01*
X150793703Y-113985744D01*
X151068778Y-113711149D01*
X151101643Y-113632000D01*
X152032901Y-113632000D01*
X152234007Y-113932975D01*
X152648295Y-114209794D01*
X153136982Y-114307000D01*
X153187018Y-114307000D01*
X153675705Y-114209794D01*
X154089993Y-113932975D01*
X154366812Y-113518687D01*
X154464018Y-113030000D01*
X154366812Y-112541313D01*
X154089993Y-112127025D01*
X153675705Y-111850206D01*
X153299454Y-111775365D01*
X154012000Y-111775365D01*
X154170237Y-111745591D01*
X154315567Y-111652073D01*
X154413064Y-111509381D01*
X154447365Y-111340000D01*
X154447365Y-109640000D01*
X154417591Y-109481763D01*
X154324073Y-109336433D01*
X154181381Y-109238936D01*
X154012000Y-109204635D01*
X153075000Y-109204635D01*
X153075000Y-104928365D01*
X154023000Y-104928365D01*
X154181237Y-104898591D01*
X154326567Y-104805073D01*
X154424064Y-104662381D01*
X154458365Y-104493000D01*
X154458365Y-102976750D01*
X156096000Y-102976750D01*
X156096000Y-104577936D01*
X156161007Y-104734876D01*
X156281124Y-104854993D01*
X156438065Y-104920000D01*
X158039250Y-104920000D01*
X158146000Y-104813250D01*
X158146000Y-102870000D01*
X158400000Y-102870000D01*
X158400000Y-104813250D01*
X158506750Y-104920000D01*
X160107935Y-104920000D01*
X160264876Y-104854993D01*
X160384993Y-104734876D01*
X160450000Y-104577936D01*
X160450000Y-102976750D01*
X160343250Y-102870000D01*
X158400000Y-102870000D01*
X158146000Y-102870000D01*
X156202750Y-102870000D01*
X156096000Y-102976750D01*
X154458365Y-102976750D01*
X154458365Y-100993000D01*
X154442384Y-100908064D01*
X156096000Y-100908064D01*
X156096000Y-102509250D01*
X156202750Y-102616000D01*
X158146000Y-102616000D01*
X158146000Y-100672750D01*
X158400000Y-100672750D01*
X158400000Y-102616000D01*
X160343250Y-102616000D01*
X160450000Y-102509250D01*
X160450000Y-100908064D01*
X160384993Y-100751124D01*
X160264876Y-100631007D01*
X160107935Y-100566000D01*
X158506750Y-100566000D01*
X158400000Y-100672750D01*
X158146000Y-100672750D01*
X158039250Y-100566000D01*
X156438065Y-100566000D01*
X156281124Y-100631007D01*
X156161007Y-100751124D01*
X156096000Y-100908064D01*
X154442384Y-100908064D01*
X154428591Y-100834763D01*
X154335073Y-100689433D01*
X154192381Y-100591936D01*
X154023000Y-100557635D01*
X150523000Y-100557635D01*
X150364763Y-100587409D01*
X150219433Y-100680927D01*
X150121936Y-100823619D01*
X150087635Y-100993000D01*
X150087635Y-104493000D01*
X150117409Y-104651237D01*
X150210927Y-104796567D01*
X150353619Y-104894064D01*
X150523000Y-104928365D01*
X151471000Y-104928365D01*
X151471000Y-109600995D01*
X151470999Y-109601000D01*
X151488305Y-109688000D01*
X149931882Y-109688000D01*
X149906149Y-109662222D01*
X149547190Y-109513170D01*
X149158515Y-109512830D01*
X148799297Y-109661256D01*
X148524222Y-109935851D01*
X148375170Y-110294810D01*
X148374830Y-110683485D01*
X144366000Y-110683485D01*
X144366000Y-107569000D01*
X144320175Y-107338625D01*
X144189678Y-107143322D01*
X143488678Y-106442322D01*
X143293375Y-106311825D01*
X143063000Y-106266000D01*
X141711256Y-106266000D01*
X141678073Y-106214433D01*
X141535381Y-106116936D01*
X141366000Y-106082635D01*
X140066000Y-106082635D01*
X139907763Y-106112409D01*
X139762433Y-106205927D01*
X139721387Y-106266000D01*
X138987430Y-106266000D01*
X138922073Y-106164433D01*
X138779381Y-106066936D01*
X138610000Y-106032635D01*
X137710000Y-106032635D01*
X137551763Y-106062409D01*
X137406433Y-106155927D01*
X137308936Y-106298619D01*
X137274635Y-106468000D01*
X137274635Y-107268000D01*
X137304409Y-107426237D01*
X137397927Y-107571567D01*
X137540619Y-107669064D01*
X137710000Y-107703365D01*
X138610000Y-107703365D01*
X138768237Y-107673591D01*
X138913567Y-107580073D01*
X138988776Y-107470000D01*
X139720744Y-107470000D01*
X139753927Y-107521567D01*
X139896619Y-107619064D01*
X140066000Y-107653365D01*
X141366000Y-107653365D01*
X141524237Y-107623591D01*
X141669567Y-107530073D01*
X141710613Y-107470000D01*
X142813644Y-107470000D01*
X143162000Y-107818356D01*
X143162000Y-110998000D01*
X143207825Y-111228375D01*
X143338322Y-111423678D01*
X146629100Y-114714456D01*
X146629100Y-115246526D01*
X146480397Y-115307969D01*
X146106781Y-115680934D01*
X145960991Y-116032033D01*
X145816731Y-115682897D01*
X145443766Y-115309281D01*
X145293100Y-115246719D01*
X145293100Y-114211100D01*
X145247275Y-113980725D01*
X145209424Y-113924077D01*
X145116779Y-113785422D01*
X142980678Y-111649322D01*
X142785375Y-111518825D01*
X142555000Y-111473000D01*
X141711256Y-111473000D01*
X141678073Y-111421433D01*
X141535381Y-111323936D01*
X141366000Y-111289635D01*
X140066000Y-111289635D01*
X139907763Y-111319409D01*
X139762433Y-111412927D01*
X139721387Y-111473000D01*
X138860430Y-111473000D01*
X138795073Y-111371433D01*
X138652381Y-111273936D01*
X138483000Y-111239635D01*
X137583000Y-111239635D01*
X137424763Y-111269409D01*
X137279433Y-111362927D01*
X137181936Y-111505619D01*
X137147635Y-111675000D01*
X136887988Y-111675000D01*
X136918365Y-111525000D01*
X136918365Y-110725000D01*
X136888591Y-110566763D01*
X136795073Y-110421433D01*
X136776511Y-110408750D01*
X137156000Y-110408750D01*
X137156000Y-110659936D01*
X137221007Y-110816876D01*
X137341124Y-110936993D01*
X137498065Y-111002000D01*
X137799250Y-111002000D01*
X137906000Y-110895250D01*
X137906000Y-110302000D01*
X138160000Y-110302000D01*
X138160000Y-110895250D01*
X138266750Y-111002000D01*
X138567935Y-111002000D01*
X138724876Y-110936993D01*
X138844993Y-110816876D01*
X138910000Y-110659936D01*
X138910000Y-110408750D01*
X139639000Y-110408750D01*
X139639000Y-110609935D01*
X139704007Y-110766876D01*
X139824124Y-110886993D01*
X139981064Y-110952000D01*
X140482250Y-110952000D01*
X140589000Y-110845250D01*
X140589000Y-110302000D01*
X140843000Y-110302000D01*
X140843000Y-110845250D01*
X140949750Y-110952000D01*
X141450936Y-110952000D01*
X141607876Y-110886993D01*
X141727993Y-110766876D01*
X141793000Y-110609935D01*
X141793000Y-110408750D01*
X141686250Y-110302000D01*
X140843000Y-110302000D01*
X140589000Y-110302000D01*
X139745750Y-110302000D01*
X139639000Y-110408750D01*
X138910000Y-110408750D01*
X138803250Y-110302000D01*
X138160000Y-110302000D01*
X137906000Y-110302000D01*
X137262750Y-110302000D01*
X137156000Y-110408750D01*
X136776511Y-110408750D01*
X136652381Y-110323936D01*
X136483000Y-110289635D01*
X135583000Y-110289635D01*
X135424763Y-110319409D01*
X135279433Y-110412927D01*
X135255469Y-110448000D01*
X135001000Y-110448000D01*
X134741924Y-110499533D01*
X134522289Y-110646288D01*
X133887289Y-111281289D01*
X133740534Y-111500923D01*
X133689000Y-111760000D01*
X133689000Y-113384577D01*
X133450578Y-113623000D01*
X133365365Y-113623000D01*
X133365365Y-113450000D01*
X133335591Y-113291763D01*
X133242073Y-113146433D01*
X133099381Y-113048936D01*
X132930000Y-113014635D01*
X132217454Y-113014635D01*
X132593705Y-112939794D01*
X133007993Y-112662975D01*
X133284812Y-112248687D01*
X133382018Y-111760000D01*
X133284812Y-111271313D01*
X133007993Y-110857025D01*
X132593705Y-110580206D01*
X132105018Y-110483000D01*
X132054982Y-110483000D01*
X131566295Y-110580206D01*
X131152007Y-110857025D01*
X131107634Y-110923434D01*
X130723000Y-110538800D01*
X130723000Y-109690064D01*
X137156000Y-109690064D01*
X137156000Y-109941250D01*
X137262750Y-110048000D01*
X137906000Y-110048000D01*
X137906000Y-109454750D01*
X138160000Y-109454750D01*
X138160000Y-110048000D01*
X138803250Y-110048000D01*
X138910000Y-109941250D01*
X138910000Y-109740065D01*
X139639000Y-109740065D01*
X139639000Y-109941250D01*
X139745750Y-110048000D01*
X140589000Y-110048000D01*
X140589000Y-109504750D01*
X140843000Y-109504750D01*
X140843000Y-110048000D01*
X141686250Y-110048000D01*
X141793000Y-109941250D01*
X141793000Y-109740065D01*
X141727993Y-109583124D01*
X141607876Y-109463007D01*
X141450936Y-109398000D01*
X140949750Y-109398000D01*
X140843000Y-109504750D01*
X140589000Y-109504750D01*
X140482250Y-109398000D01*
X139981064Y-109398000D01*
X139824124Y-109463007D01*
X139704007Y-109583124D01*
X139639000Y-109740065D01*
X138910000Y-109740065D01*
X138910000Y-109690064D01*
X138844993Y-109533124D01*
X138724876Y-109413007D01*
X138567935Y-109348000D01*
X138266750Y-109348000D01*
X138160000Y-109454750D01*
X137906000Y-109454750D01*
X137799250Y-109348000D01*
X137498065Y-109348000D01*
X137341124Y-109413007D01*
X137221007Y-109533124D01*
X137156000Y-109690064D01*
X130723000Y-109690064D01*
X130723000Y-97614200D01*
X131015199Y-97322000D01*
X131084538Y-97322000D01*
X131152007Y-97422975D01*
X131566295Y-97699794D01*
X132019791Y-97790000D01*
X131566295Y-97880206D01*
X131152007Y-98157025D01*
X130875188Y-98571313D01*
X130777982Y-99060000D01*
X130875188Y-99548687D01*
X131152007Y-99962975D01*
X131566295Y-100239794D01*
X132019791Y-100330000D01*
X131566295Y-100420206D01*
X131152007Y-100697025D01*
X130875188Y-101111313D01*
X130777982Y-101600000D01*
X130875188Y-102088687D01*
X131152007Y-102502975D01*
X131566295Y-102779794D01*
X131942546Y-102854635D01*
X131230000Y-102854635D01*
X131071763Y-102884409D01*
X130926433Y-102977927D01*
X130828936Y-103120619D01*
X130794635Y-103290000D01*
X130794635Y-104990000D01*
X130824409Y-105148237D01*
X130917927Y-105293567D01*
X131060619Y-105391064D01*
X131230000Y-105425365D01*
X131431318Y-105425365D01*
X131454534Y-105542077D01*
X131499836Y-105609876D01*
X131601289Y-105761711D01*
X132236289Y-106396712D01*
X132455924Y-106543467D01*
X132715000Y-106595000D01*
X135380831Y-106595000D01*
X135397927Y-106621567D01*
X135540619Y-106719064D01*
X135710000Y-106753365D01*
X136610000Y-106753365D01*
X136768237Y-106723591D01*
X136913567Y-106630073D01*
X137011064Y-106487381D01*
X137045365Y-106318000D01*
X137045365Y-105518000D01*
X137015591Y-105359763D01*
X136922073Y-105214433D01*
X136903511Y-105201750D01*
X137283000Y-105201750D01*
X137283000Y-105452936D01*
X137348007Y-105609876D01*
X137468124Y-105729993D01*
X137625065Y-105795000D01*
X137926250Y-105795000D01*
X138033000Y-105688250D01*
X138033000Y-105095000D01*
X138287000Y-105095000D01*
X138287000Y-105688250D01*
X138393750Y-105795000D01*
X138694935Y-105795000D01*
X138851876Y-105729993D01*
X138971993Y-105609876D01*
X139037000Y-105452936D01*
X139037000Y-105201750D01*
X139639000Y-105201750D01*
X139639000Y-105402935D01*
X139704007Y-105559876D01*
X139824124Y-105679993D01*
X139981064Y-105745000D01*
X140482250Y-105745000D01*
X140589000Y-105638250D01*
X140589000Y-105095000D01*
X140843000Y-105095000D01*
X140843000Y-105638250D01*
X140949750Y-105745000D01*
X141450936Y-105745000D01*
X141607876Y-105679993D01*
X141727993Y-105559876D01*
X141793000Y-105402935D01*
X141793000Y-105201750D01*
X141686250Y-105095000D01*
X140843000Y-105095000D01*
X140589000Y-105095000D01*
X139745750Y-105095000D01*
X139639000Y-105201750D01*
X139037000Y-105201750D01*
X138930250Y-105095000D01*
X138287000Y-105095000D01*
X138033000Y-105095000D01*
X137389750Y-105095000D01*
X137283000Y-105201750D01*
X136903511Y-105201750D01*
X136779381Y-105116936D01*
X136610000Y-105082635D01*
X135710000Y-105082635D01*
X135551763Y-105112409D01*
X135406433Y-105205927D01*
X135382469Y-105241000D01*
X133275296Y-105241000D01*
X133331064Y-105159381D01*
X133365365Y-104990000D01*
X133365365Y-104483064D01*
X137283000Y-104483064D01*
X137283000Y-104734250D01*
X137389750Y-104841000D01*
X138033000Y-104841000D01*
X138033000Y-104247750D01*
X138287000Y-104247750D01*
X138287000Y-104841000D01*
X138930250Y-104841000D01*
X139037000Y-104734250D01*
X139037000Y-104533065D01*
X139639000Y-104533065D01*
X139639000Y-104734250D01*
X139745750Y-104841000D01*
X140589000Y-104841000D01*
X140589000Y-104297750D01*
X140843000Y-104297750D01*
X140843000Y-104841000D01*
X141686250Y-104841000D01*
X141793000Y-104734250D01*
X141793000Y-104533065D01*
X141727993Y-104376124D01*
X141607876Y-104256007D01*
X141450936Y-104191000D01*
X140949750Y-104191000D01*
X140843000Y-104297750D01*
X140589000Y-104297750D01*
X140482250Y-104191000D01*
X139981064Y-104191000D01*
X139824124Y-104256007D01*
X139704007Y-104376124D01*
X139639000Y-104533065D01*
X139037000Y-104533065D01*
X139037000Y-104483064D01*
X138971993Y-104326124D01*
X138851876Y-104206007D01*
X138694935Y-104141000D01*
X138393750Y-104141000D01*
X138287000Y-104247750D01*
X138033000Y-104247750D01*
X137926250Y-104141000D01*
X137625065Y-104141000D01*
X137468124Y-104206007D01*
X137348007Y-104326124D01*
X137283000Y-104483064D01*
X133365365Y-104483064D01*
X133365365Y-103290000D01*
X133335591Y-103131763D01*
X133242073Y-102986433D01*
X133099381Y-102888936D01*
X132930000Y-102854635D01*
X132217454Y-102854635D01*
X132593705Y-102779794D01*
X133007993Y-102502975D01*
X133158985Y-102277000D01*
X135380831Y-102277000D01*
X135397927Y-102303567D01*
X135540619Y-102401064D01*
X135710000Y-102435365D01*
X136610000Y-102435365D01*
X136768237Y-102405591D01*
X136913567Y-102312073D01*
X137011064Y-102169381D01*
X137045365Y-102000000D01*
X137045365Y-101200000D01*
X137015591Y-101041763D01*
X136922073Y-100896433D01*
X136903511Y-100883750D01*
X137283000Y-100883750D01*
X137283000Y-101134936D01*
X137348007Y-101291876D01*
X137468124Y-101411993D01*
X137625065Y-101477000D01*
X137926250Y-101477000D01*
X138033000Y-101370250D01*
X138033000Y-100777000D01*
X138287000Y-100777000D01*
X138287000Y-101370250D01*
X138393750Y-101477000D01*
X138694935Y-101477000D01*
X138851876Y-101411993D01*
X138971993Y-101291876D01*
X139037000Y-101134936D01*
X139037000Y-100883750D01*
X139639000Y-100883750D01*
X139639000Y-101084935D01*
X139704007Y-101241876D01*
X139824124Y-101361993D01*
X139981064Y-101427000D01*
X140482250Y-101427000D01*
X140589000Y-101320250D01*
X140589000Y-100777000D01*
X140843000Y-100777000D01*
X140843000Y-101320250D01*
X140949750Y-101427000D01*
X141450936Y-101427000D01*
X141607876Y-101361993D01*
X141727993Y-101241876D01*
X141793000Y-101084935D01*
X141793000Y-100883750D01*
X141686250Y-100777000D01*
X140843000Y-100777000D01*
X140589000Y-100777000D01*
X139745750Y-100777000D01*
X139639000Y-100883750D01*
X139037000Y-100883750D01*
X138930250Y-100777000D01*
X138287000Y-100777000D01*
X138033000Y-100777000D01*
X137389750Y-100777000D01*
X137283000Y-100883750D01*
X136903511Y-100883750D01*
X136779381Y-100798936D01*
X136610000Y-100764635D01*
X135710000Y-100764635D01*
X135551763Y-100794409D01*
X135406433Y-100887927D01*
X135382469Y-100923000D01*
X133158985Y-100923000D01*
X133007993Y-100697025D01*
X132593705Y-100420206D01*
X132140209Y-100330000D01*
X132593705Y-100239794D01*
X132705546Y-100165064D01*
X137283000Y-100165064D01*
X137283000Y-100416250D01*
X137389750Y-100523000D01*
X138033000Y-100523000D01*
X138033000Y-99929750D01*
X138287000Y-99929750D01*
X138287000Y-100523000D01*
X138930250Y-100523000D01*
X139037000Y-100416250D01*
X139037000Y-100215065D01*
X139639000Y-100215065D01*
X139639000Y-100416250D01*
X139745750Y-100523000D01*
X140589000Y-100523000D01*
X140589000Y-99979750D01*
X140843000Y-99979750D01*
X140843000Y-100523000D01*
X141686250Y-100523000D01*
X141793000Y-100416250D01*
X141793000Y-100215065D01*
X141727993Y-100058124D01*
X141607876Y-99938007D01*
X141450936Y-99873000D01*
X140949750Y-99873000D01*
X140843000Y-99979750D01*
X140589000Y-99979750D01*
X140482250Y-99873000D01*
X139981064Y-99873000D01*
X139824124Y-99938007D01*
X139704007Y-100058124D01*
X139639000Y-100215065D01*
X139037000Y-100215065D01*
X139037000Y-100165064D01*
X138971993Y-100008124D01*
X138851876Y-99888007D01*
X138694935Y-99823000D01*
X138393750Y-99823000D01*
X138287000Y-99929750D01*
X138033000Y-99929750D01*
X137926250Y-99823000D01*
X137625065Y-99823000D01*
X137468124Y-99888007D01*
X137348007Y-100008124D01*
X137283000Y-100165064D01*
X132705546Y-100165064D01*
X133007993Y-99962975D01*
X133168640Y-99722551D01*
X133355077Y-99685466D01*
X133574711Y-99538711D01*
X135154422Y-97959000D01*
X135380831Y-97959000D01*
X135397927Y-97985567D01*
X135540619Y-98083064D01*
X135710000Y-98117365D01*
X136610000Y-98117365D01*
X136768237Y-98087591D01*
X136913567Y-97994073D01*
X137011064Y-97851381D01*
X137014988Y-97832000D01*
X137274635Y-97832000D01*
X137274635Y-98632000D01*
X137304409Y-98790237D01*
X137397927Y-98935567D01*
X137540619Y-99033064D01*
X137710000Y-99067365D01*
X138610000Y-99067365D01*
X138768237Y-99037591D01*
X138913567Y-98944073D01*
X138988776Y-98834000D01*
X139720744Y-98834000D01*
X139753927Y-98885567D01*
X139896619Y-98983064D01*
X140066000Y-99017365D01*
X141366000Y-99017365D01*
X141524237Y-98987591D01*
X141669567Y-98894073D01*
X141710613Y-98834000D01*
X143195000Y-98834000D01*
X143425375Y-98788175D01*
X143620678Y-98657678D01*
X144189679Y-98088678D01*
X144320175Y-97893375D01*
X144366000Y-97663000D01*
X144366000Y-95250000D01*
X144320175Y-95019625D01*
X144189678Y-94824322D01*
X144151924Y-94786568D01*
X144425985Y-94900369D01*
X144953898Y-94900829D01*
X145441803Y-94699231D01*
X145815419Y-94326266D01*
X145961209Y-93975167D01*
X146105469Y-94324303D01*
X146478434Y-94697919D01*
X146965985Y-94900369D01*
X147493898Y-94900829D01*
X147981803Y-94699231D01*
X148355419Y-94326266D01*
X148501209Y-93975167D01*
X148645469Y-94324303D01*
X149018434Y-94697919D01*
X149505985Y-94900369D01*
X149510573Y-94900373D01*
X149434322Y-94951322D01*
X142437644Y-101948000D01*
X141711256Y-101948000D01*
X141678073Y-101896433D01*
X141535381Y-101798936D01*
X141366000Y-101764635D01*
X140066000Y-101764635D01*
X139907763Y-101794409D01*
X139762433Y-101887927D01*
X139721387Y-101948000D01*
X138987430Y-101948000D01*
X138922073Y-101846433D01*
X138779381Y-101748936D01*
X138610000Y-101714635D01*
X137710000Y-101714635D01*
X137551763Y-101744409D01*
X137406433Y-101837927D01*
X137308936Y-101980619D01*
X137274635Y-102150000D01*
X137274635Y-102950000D01*
X137304409Y-103108237D01*
X137397927Y-103253567D01*
X137540619Y-103351064D01*
X137710000Y-103385365D01*
X138610000Y-103385365D01*
X138768237Y-103355591D01*
X138913567Y-103262073D01*
X138988776Y-103152000D01*
X139720744Y-103152000D01*
X139753927Y-103203567D01*
X139896619Y-103301064D01*
X140066000Y-103335365D01*
X141366000Y-103335365D01*
X141524237Y-103305591D01*
X141669567Y-103212073D01*
X141710613Y-103152000D01*
X142687000Y-103152000D01*
X142917375Y-103106175D01*
X143112678Y-102975678D01*
X147811606Y-98276750D01*
X153096000Y-98276750D01*
X153096000Y-99877936D01*
X153161007Y-100034876D01*
X153281124Y-100154993D01*
X153438065Y-100220000D01*
X155039250Y-100220000D01*
X155146000Y-100113250D01*
X155146000Y-98170000D01*
X155400000Y-98170000D01*
X155400000Y-100113250D01*
X155506750Y-100220000D01*
X157107935Y-100220000D01*
X157264876Y-100154993D01*
X157384993Y-100034876D01*
X157450000Y-99877936D01*
X157450000Y-98276750D01*
X157343250Y-98170000D01*
X155400000Y-98170000D01*
X155146000Y-98170000D01*
X153202750Y-98170000D01*
X153096000Y-98276750D01*
X147811606Y-98276750D01*
X150109356Y-95979000D01*
X153233131Y-95979000D01*
X153161007Y-96051124D01*
X153096000Y-96208064D01*
X153096000Y-97809250D01*
X153202750Y-97916000D01*
X155146000Y-97916000D01*
X155146000Y-95972750D01*
X155400000Y-95972750D01*
X155400000Y-97916000D01*
X157343250Y-97916000D01*
X157450000Y-97809250D01*
X157450000Y-96208064D01*
X157384993Y-96051124D01*
X157264876Y-95931007D01*
X157107935Y-95866000D01*
X155506750Y-95866000D01*
X155400000Y-95972750D01*
X155146000Y-95972750D01*
X155039250Y-95866000D01*
X153873910Y-95866000D01*
X153968678Y-95802678D01*
X154870739Y-94900617D01*
X155113898Y-94900829D01*
X155601803Y-94699231D01*
X155975419Y-94326266D01*
X156121209Y-93975167D01*
X156265469Y-94324303D01*
X156638434Y-94697919D01*
X157125985Y-94900369D01*
X157653898Y-94900829D01*
X158141803Y-94699231D01*
X158515419Y-94326266D01*
X158717869Y-93838715D01*
X158718329Y-93310802D01*
X158516731Y-92822897D01*
X158143766Y-92449281D01*
X157656215Y-92246831D01*
X157128302Y-92246371D01*
X156640397Y-92447969D01*
X156266781Y-92820934D01*
X156120991Y-93172033D01*
X155976731Y-92822897D01*
X155603766Y-92449281D01*
X155116215Y-92246831D01*
X154588302Y-92246371D01*
X154100397Y-92447969D01*
X153726781Y-92820934D01*
X153580991Y-93172033D01*
X153436731Y-92822897D01*
X153063766Y-92449281D01*
X152576215Y-92246831D01*
X152048302Y-92246371D01*
X151560397Y-92447969D01*
X151186781Y-92820934D01*
X151040991Y-93172033D01*
X150896731Y-92822897D01*
X150523766Y-92449281D01*
X150036215Y-92246831D01*
X149508302Y-92246371D01*
X149020397Y-92447969D01*
X148646781Y-92820934D01*
X148500991Y-93172033D01*
X148356731Y-92822897D01*
X147983766Y-92449281D01*
X147496215Y-92246831D01*
X146968302Y-92246371D01*
X146480397Y-92447969D01*
X146106781Y-92820934D01*
X145960991Y-93172033D01*
X145816731Y-92822897D01*
X145443766Y-92449281D01*
X144956215Y-92246831D01*
X144428302Y-92246371D01*
X143940397Y-92447969D01*
X143566781Y-92820934D01*
X143420991Y-93172033D01*
X143276731Y-92822897D01*
X142903766Y-92449281D01*
X142416215Y-92246831D01*
X141888302Y-92246371D01*
X141400397Y-92447969D01*
X141026781Y-92820934D01*
X140880991Y-93172033D01*
X140736731Y-92822897D01*
X140363766Y-92449281D01*
X139876215Y-92246831D01*
X139348302Y-92246371D01*
X138860397Y-92447969D01*
X138486781Y-92820934D01*
X138284331Y-93308485D01*
X138283871Y-93836398D01*
X138485469Y-94324303D01*
X138858434Y-94697919D01*
X139345985Y-94900369D01*
X139873898Y-94900829D01*
X140361803Y-94699231D01*
X140735419Y-94326266D01*
X140881209Y-93975167D01*
X141025469Y-94324303D01*
X141398434Y-94697919D01*
X141885985Y-94900369D01*
X142413898Y-94900829D01*
X142519740Y-94857096D01*
X143162000Y-95499356D01*
X143162000Y-97413643D01*
X142945644Y-97630000D01*
X141711256Y-97630000D01*
X141678073Y-97578433D01*
X141535381Y-97480936D01*
X141366000Y-97446635D01*
X140066000Y-97446635D01*
X139907763Y-97476409D01*
X139762433Y-97569927D01*
X139721387Y-97630000D01*
X138987430Y-97630000D01*
X138922073Y-97528433D01*
X138779381Y-97430936D01*
X138610000Y-97396635D01*
X137710000Y-97396635D01*
X137551763Y-97426409D01*
X137406433Y-97519927D01*
X137308936Y-97662619D01*
X137274635Y-97832000D01*
X137014988Y-97832000D01*
X137045365Y-97682000D01*
X137045365Y-96882000D01*
X137015591Y-96723763D01*
X136922073Y-96578433D01*
X136903511Y-96565750D01*
X137283000Y-96565750D01*
X137283000Y-96816936D01*
X137348007Y-96973876D01*
X137468124Y-97093993D01*
X137625065Y-97159000D01*
X137926250Y-97159000D01*
X138033000Y-97052250D01*
X138033000Y-96459000D01*
X138287000Y-96459000D01*
X138287000Y-97052250D01*
X138393750Y-97159000D01*
X138694935Y-97159000D01*
X138851876Y-97093993D01*
X138971993Y-96973876D01*
X139037000Y-96816936D01*
X139037000Y-96565750D01*
X139639000Y-96565750D01*
X139639000Y-96766935D01*
X139704007Y-96923876D01*
X139824124Y-97043993D01*
X139981064Y-97109000D01*
X140482250Y-97109000D01*
X140589000Y-97002250D01*
X140589000Y-96459000D01*
X140843000Y-96459000D01*
X140843000Y-97002250D01*
X140949750Y-97109000D01*
X141450936Y-97109000D01*
X141607876Y-97043993D01*
X141727993Y-96923876D01*
X141793000Y-96766935D01*
X141793000Y-96565750D01*
X141686250Y-96459000D01*
X140843000Y-96459000D01*
X140589000Y-96459000D01*
X139745750Y-96459000D01*
X139639000Y-96565750D01*
X139037000Y-96565750D01*
X138930250Y-96459000D01*
X138287000Y-96459000D01*
X138033000Y-96459000D01*
X137389750Y-96459000D01*
X137283000Y-96565750D01*
X136903511Y-96565750D01*
X136779381Y-96480936D01*
X136610000Y-96446635D01*
X135710000Y-96446635D01*
X135551763Y-96476409D01*
X135406433Y-96569927D01*
X135382469Y-96605000D01*
X134874000Y-96605000D01*
X134614924Y-96656533D01*
X134395289Y-96803289D01*
X133021435Y-98177143D01*
X133007993Y-98157025D01*
X132593705Y-97880206D01*
X132140209Y-97790000D01*
X132593705Y-97699794D01*
X133007993Y-97422975D01*
X133284812Y-97008687D01*
X133382018Y-96520000D01*
X133284812Y-96031313D01*
X133161701Y-95847064D01*
X137283000Y-95847064D01*
X137283000Y-96098250D01*
X137389750Y-96205000D01*
X138033000Y-96205000D01*
X138033000Y-95611750D01*
X138287000Y-95611750D01*
X138287000Y-96205000D01*
X138930250Y-96205000D01*
X139037000Y-96098250D01*
X139037000Y-95897065D01*
X139639000Y-95897065D01*
X139639000Y-96098250D01*
X139745750Y-96205000D01*
X140589000Y-96205000D01*
X140589000Y-95661750D01*
X140843000Y-95661750D01*
X140843000Y-96205000D01*
X141686250Y-96205000D01*
X141793000Y-96098250D01*
X141793000Y-95897065D01*
X141727993Y-95740124D01*
X141607876Y-95620007D01*
X141450936Y-95555000D01*
X140949750Y-95555000D01*
X140843000Y-95661750D01*
X140589000Y-95661750D01*
X140482250Y-95555000D01*
X139981064Y-95555000D01*
X139824124Y-95620007D01*
X139704007Y-95740124D01*
X139639000Y-95897065D01*
X139037000Y-95897065D01*
X139037000Y-95847064D01*
X138971993Y-95690124D01*
X138851876Y-95570007D01*
X138694935Y-95505000D01*
X138393750Y-95505000D01*
X138287000Y-95611750D01*
X138033000Y-95611750D01*
X137926250Y-95505000D01*
X137625065Y-95505000D01*
X137468124Y-95570007D01*
X137348007Y-95690124D01*
X137283000Y-95847064D01*
X133161701Y-95847064D01*
X133007993Y-95617025D01*
X132593705Y-95340206D01*
X132105018Y-95243000D01*
X132054982Y-95243000D01*
X131566295Y-95340206D01*
X131152007Y-95617025D01*
X131084538Y-95718000D01*
X130683005Y-95718000D01*
X130683000Y-95717999D01*
X130376088Y-95779049D01*
X130115900Y-95952900D01*
X130115898Y-95952903D01*
X129353900Y-96714900D01*
X129180049Y-96975088D01*
X129118999Y-97282000D01*
X129119000Y-97282005D01*
X129119000Y-110870995D01*
X129118999Y-110871000D01*
X129180049Y-111177912D01*
X129353900Y-111438100D01*
X129675800Y-111760000D01*
X129226900Y-112208900D01*
X129053049Y-112469088D01*
X128991999Y-112776000D01*
X128270000Y-112776000D01*
X128270000Y-91821000D01*
X165227000Y-91821000D01*
X165227000Y-118364000D01*
M02*
