G04 #@! TF.FileFunction,Legend,Bot*
%FSLAX46Y46*%
G04 Gerber Fmt 4.6, Leading zero omitted, Abs format (unit mm)*
G04 Created by KiCad (PCBNEW 4.0.7) date 02/12/20 22:04:27*
%MOMM*%
%LPD*%
G01*
G04 APERTURE LIST*
%ADD10C,0.100000*%
%ADD11C,0.200000*%
%ADD12C,0.300000*%
%ADD13C,0.120000*%
%ADD14C,0.150000*%
G04 APERTURE END LIST*
D10*
D11*
X149971428Y-73357143D02*
X149971428Y-74557143D01*
X150257143Y-74557143D01*
X150428571Y-74500000D01*
X150542857Y-74385714D01*
X150600000Y-74271429D01*
X150657143Y-74042857D01*
X150657143Y-73871429D01*
X150600000Y-73642857D01*
X150542857Y-73528571D01*
X150428571Y-73414286D01*
X150257143Y-73357143D01*
X149971428Y-73357143D01*
X151628571Y-73414286D02*
X151514285Y-73357143D01*
X151285714Y-73357143D01*
X151171428Y-73414286D01*
X151114285Y-73528571D01*
X151114285Y-73985714D01*
X151171428Y-74100000D01*
X151285714Y-74157143D01*
X151514285Y-74157143D01*
X151628571Y-74100000D01*
X151685714Y-73985714D01*
X151685714Y-73871429D01*
X151114285Y-73757143D01*
X152142856Y-73414286D02*
X152257142Y-73357143D01*
X152485714Y-73357143D01*
X152599999Y-73414286D01*
X152657142Y-73528571D01*
X152657142Y-73585714D01*
X152599999Y-73700000D01*
X152485714Y-73757143D01*
X152314285Y-73757143D01*
X152199999Y-73814286D01*
X152142856Y-73928571D01*
X152142856Y-73985714D01*
X152199999Y-74100000D01*
X152314285Y-74157143D01*
X152485714Y-74157143D01*
X152599999Y-74100000D01*
X153171428Y-73357143D02*
X153171428Y-74157143D01*
X153171428Y-74557143D02*
X153114285Y-74500000D01*
X153171428Y-74442857D01*
X153228571Y-74500000D01*
X153171428Y-74557143D01*
X153171428Y-74442857D01*
X154257143Y-74157143D02*
X154257143Y-73185714D01*
X154200000Y-73071429D01*
X154142857Y-73014286D01*
X154028572Y-72957143D01*
X153857143Y-72957143D01*
X153742857Y-73014286D01*
X154257143Y-73414286D02*
X154142857Y-73357143D01*
X153914286Y-73357143D01*
X153800000Y-73414286D01*
X153742857Y-73471429D01*
X153685714Y-73585714D01*
X153685714Y-73928571D01*
X153742857Y-74042857D01*
X153800000Y-74100000D01*
X153914286Y-74157143D01*
X154142857Y-74157143D01*
X154257143Y-74100000D01*
X154828571Y-74157143D02*
X154828571Y-73357143D01*
X154828571Y-74042857D02*
X154885714Y-74100000D01*
X155000000Y-74157143D01*
X155171428Y-74157143D01*
X155285714Y-74100000D01*
X155342857Y-73985714D01*
X155342857Y-73357143D01*
X156371428Y-73414286D02*
X156257142Y-73357143D01*
X156028571Y-73357143D01*
X155914285Y-73414286D01*
X155857142Y-73528571D01*
X155857142Y-73985714D01*
X155914285Y-74100000D01*
X156028571Y-74157143D01*
X156257142Y-74157143D01*
X156371428Y-74100000D01*
X156428571Y-73985714D01*
X156428571Y-73871429D01*
X155857142Y-73757143D01*
X157457142Y-73357143D02*
X157457142Y-74557143D01*
X157457142Y-73414286D02*
X157342856Y-73357143D01*
X157114285Y-73357143D01*
X156999999Y-73414286D01*
X156942856Y-73471429D01*
X156885713Y-73585714D01*
X156885713Y-73928571D01*
X156942856Y-74042857D01*
X156999999Y-74100000D01*
X157114285Y-74157143D01*
X157342856Y-74157143D01*
X157457142Y-74100000D01*
X158942856Y-73357143D02*
X158942856Y-74557143D01*
X158942856Y-74100000D02*
X159057142Y-74157143D01*
X159285713Y-74157143D01*
X159399999Y-74100000D01*
X159457142Y-74042857D01*
X159514285Y-73928571D01*
X159514285Y-73585714D01*
X159457142Y-73471429D01*
X159399999Y-73414286D01*
X159285713Y-73357143D01*
X159057142Y-73357143D01*
X158942856Y-73414286D01*
X159914285Y-74157143D02*
X160199999Y-73357143D01*
X160485713Y-74157143D02*
X160199999Y-73357143D01*
X160085713Y-73071429D01*
X160028570Y-73014286D01*
X159914285Y-72957143D01*
X160942856Y-73471429D02*
X160999999Y-73414286D01*
X160942856Y-73357143D01*
X160885713Y-73414286D01*
X160942856Y-73471429D01*
X160942856Y-73357143D01*
X160942856Y-74100000D02*
X160999999Y-74042857D01*
X160942856Y-73985714D01*
X160885713Y-74042857D01*
X160942856Y-74100000D01*
X160942856Y-73985714D01*
X162428571Y-73357143D02*
X162428571Y-74557143D01*
X163114286Y-73357143D02*
X162600000Y-74042857D01*
X163114286Y-74557143D02*
X162428571Y-73871429D01*
X163628571Y-73357143D02*
X163628571Y-74557143D01*
X164314286Y-73357143D02*
X163800000Y-74042857D01*
X164314286Y-74557143D02*
X163628571Y-73871429D01*
X165400000Y-73357143D02*
X164828571Y-73357143D01*
X164828571Y-74557143D01*
X164461905Y-56238095D02*
X164195238Y-56619048D01*
X164004762Y-56238095D02*
X164004762Y-57038095D01*
X164309524Y-57038095D01*
X164385715Y-57000000D01*
X164423810Y-56961905D01*
X164461905Y-56885714D01*
X164461905Y-56771429D01*
X164423810Y-56695238D01*
X164385715Y-56657143D01*
X164309524Y-56619048D01*
X164004762Y-56619048D01*
X164804762Y-56657143D02*
X165071429Y-56657143D01*
X165185715Y-56238095D02*
X164804762Y-56238095D01*
X164804762Y-57038095D01*
X165185715Y-57038095D01*
X165414286Y-57038095D02*
X165680953Y-56238095D01*
X165947620Y-57038095D01*
X166633334Y-56238095D02*
X166176191Y-56238095D01*
X166404762Y-56238095D02*
X166404762Y-57038095D01*
X166328572Y-56923810D01*
X166252381Y-56847619D01*
X166176191Y-56809524D01*
D12*
X146400000Y-75721429D02*
X145900000Y-76435714D01*
X145542857Y-75721429D02*
X145542857Y-77221429D01*
X146114285Y-77221429D01*
X146257143Y-77150000D01*
X146328571Y-77078571D01*
X146400000Y-76935714D01*
X146400000Y-76721429D01*
X146328571Y-76578571D01*
X146257143Y-76507143D01*
X146114285Y-76435714D01*
X145542857Y-76435714D01*
X147828571Y-77150000D02*
X147685714Y-77221429D01*
X147471428Y-77221429D01*
X147257143Y-77150000D01*
X147114285Y-77007143D01*
X147042857Y-76864286D01*
X146971428Y-76578571D01*
X146971428Y-76364286D01*
X147042857Y-76078571D01*
X147114285Y-75935714D01*
X147257143Y-75792857D01*
X147471428Y-75721429D01*
X147614285Y-75721429D01*
X147828571Y-75792857D01*
X147900000Y-75864286D01*
X147900000Y-76364286D01*
X147614285Y-76364286D01*
X149042857Y-76507143D02*
X149257143Y-76435714D01*
X149328571Y-76364286D01*
X149400000Y-76221429D01*
X149400000Y-76007143D01*
X149328571Y-75864286D01*
X149257143Y-75792857D01*
X149114285Y-75721429D01*
X148542857Y-75721429D01*
X148542857Y-77221429D01*
X149042857Y-77221429D01*
X149185714Y-77150000D01*
X149257143Y-77078571D01*
X149328571Y-76935714D01*
X149328571Y-76792857D01*
X149257143Y-76650000D01*
X149185714Y-76578571D01*
X149042857Y-76507143D01*
X148542857Y-76507143D01*
X149900000Y-77221429D02*
X150257143Y-75721429D01*
X150542857Y-76792857D01*
X150828571Y-75721429D01*
X151185714Y-77221429D01*
X152757143Y-77221429D02*
X153114286Y-75721429D01*
X153400000Y-76792857D01*
X153685714Y-75721429D01*
X154042857Y-77221429D01*
X155185714Y-75792857D02*
X155042857Y-75721429D01*
X154757143Y-75721429D01*
X154614286Y-75792857D01*
X154542857Y-75935714D01*
X154542857Y-76507143D01*
X154614286Y-76650000D01*
X154757143Y-76721429D01*
X155042857Y-76721429D01*
X155185714Y-76650000D01*
X155257143Y-76507143D01*
X155257143Y-76364286D01*
X154542857Y-76221429D01*
X155900000Y-75721429D02*
X155900000Y-76721429D01*
X155900000Y-76578571D02*
X155971428Y-76650000D01*
X156114286Y-76721429D01*
X156328571Y-76721429D01*
X156471428Y-76650000D01*
X156542857Y-76507143D01*
X156542857Y-75721429D01*
X156542857Y-76507143D02*
X156614286Y-76650000D01*
X156757143Y-76721429D01*
X156971428Y-76721429D01*
X157114286Y-76650000D01*
X157185714Y-76507143D01*
X157185714Y-75721429D01*
X158114286Y-75721429D02*
X157971428Y-75792857D01*
X157900000Y-75864286D01*
X157828571Y-76007143D01*
X157828571Y-76435714D01*
X157900000Y-76578571D01*
X157971428Y-76650000D01*
X158114286Y-76721429D01*
X158328571Y-76721429D01*
X158471428Y-76650000D01*
X158542857Y-76578571D01*
X158614286Y-76435714D01*
X158614286Y-76007143D01*
X158542857Y-75864286D01*
X158471428Y-75792857D01*
X158328571Y-75721429D01*
X158114286Y-75721429D01*
X159185714Y-75792857D02*
X159328571Y-75721429D01*
X159614286Y-75721429D01*
X159757143Y-75792857D01*
X159828571Y-75935714D01*
X159828571Y-76007143D01*
X159757143Y-76150000D01*
X159614286Y-76221429D01*
X159400000Y-76221429D01*
X159257143Y-76292857D01*
X159185714Y-76435714D01*
X159185714Y-76507143D01*
X159257143Y-76650000D01*
X159400000Y-76721429D01*
X159614286Y-76721429D01*
X159757143Y-76650000D01*
X161542857Y-75792857D02*
X161685714Y-75721429D01*
X161971429Y-75721429D01*
X162114286Y-75792857D01*
X162185714Y-75935714D01*
X162185714Y-76007143D01*
X162114286Y-76150000D01*
X161971429Y-76221429D01*
X161757143Y-76221429D01*
X161614286Y-76292857D01*
X161542857Y-76435714D01*
X161542857Y-76507143D01*
X161614286Y-76650000D01*
X161757143Y-76721429D01*
X161971429Y-76721429D01*
X162114286Y-76650000D01*
X162828572Y-75721429D02*
X162828572Y-77221429D01*
X163471429Y-75721429D02*
X163471429Y-76507143D01*
X163400000Y-76650000D01*
X163257143Y-76721429D01*
X163042858Y-76721429D01*
X162900000Y-76650000D01*
X162828572Y-76578571D01*
X164185715Y-75721429D02*
X164185715Y-76721429D01*
X164185715Y-77221429D02*
X164114286Y-77150000D01*
X164185715Y-77078571D01*
X164257143Y-77150000D01*
X164185715Y-77221429D01*
X164185715Y-77078571D01*
X165471429Y-75792857D02*
X165328572Y-75721429D01*
X165042858Y-75721429D01*
X164900001Y-75792857D01*
X164828572Y-75935714D01*
X164828572Y-76507143D01*
X164900001Y-76650000D01*
X165042858Y-76721429D01*
X165328572Y-76721429D01*
X165471429Y-76650000D01*
X165542858Y-76507143D01*
X165542858Y-76364286D01*
X164828572Y-76221429D01*
X166400001Y-75721429D02*
X166257143Y-75792857D01*
X166185715Y-75935714D01*
X166185715Y-77221429D01*
X167614286Y-75721429D02*
X167614286Y-77221429D01*
X167614286Y-75792857D02*
X167471429Y-75721429D01*
X167185715Y-75721429D01*
X167042857Y-75792857D01*
X166971429Y-75864286D01*
X166900000Y-76007143D01*
X166900000Y-76435714D01*
X166971429Y-76578571D01*
X167042857Y-76650000D01*
X167185715Y-76721429D01*
X167471429Y-76721429D01*
X167614286Y-76650000D01*
D13*
X134050000Y-66370000D02*
X136050000Y-66370000D01*
X136050000Y-69330000D02*
X134050000Y-69330000D01*
X134050000Y-69520000D02*
X136050000Y-69520000D01*
X136050000Y-72480000D02*
X134050000Y-72480000D01*
X134050000Y-58220000D02*
X136050000Y-58220000D01*
X136050000Y-61180000D02*
X134050000Y-61180000D01*
X134050000Y-55020000D02*
X136050000Y-55020000D01*
X136050000Y-57980000D02*
X134050000Y-57980000D01*
X141490000Y-61330000D02*
X141490000Y-60400000D01*
X141490000Y-58170000D02*
X141490000Y-59100000D01*
X141490000Y-58170000D02*
X143650000Y-58170000D01*
X141490000Y-61330000D02*
X142950000Y-61330000D01*
X141490000Y-64830000D02*
X141490000Y-63900000D01*
X141490000Y-61670000D02*
X141490000Y-62600000D01*
X141490000Y-61670000D02*
X143650000Y-61670000D01*
X141490000Y-64830000D02*
X142950000Y-64830000D01*
X141490000Y-68330000D02*
X141490000Y-67400000D01*
X141490000Y-65170000D02*
X141490000Y-66100000D01*
X141490000Y-65170000D02*
X143650000Y-65170000D01*
X141490000Y-68330000D02*
X142950000Y-68330000D01*
X141490000Y-71830000D02*
X141490000Y-70900000D01*
X141490000Y-68670000D02*
X141490000Y-69600000D01*
X141490000Y-68670000D02*
X143650000Y-68670000D01*
X141490000Y-71830000D02*
X142950000Y-71830000D01*
X146130000Y-60350000D02*
X146130000Y-59150000D01*
X144370000Y-59150000D02*
X144370000Y-60350000D01*
X146130000Y-63850000D02*
X146130000Y-62650000D01*
X144370000Y-62650000D02*
X144370000Y-63850000D01*
X146130000Y-67350000D02*
X146130000Y-66150000D01*
X144370000Y-66150000D02*
X144370000Y-67350000D01*
X146130000Y-70850000D02*
X146130000Y-69650000D01*
X144370000Y-69650000D02*
X144370000Y-70850000D01*
X134420000Y-63100000D02*
X134420000Y-64300000D01*
X136180000Y-64300000D02*
X136180000Y-63100000D01*
D14*
X135166666Y-68207143D02*
X135214285Y-68254762D01*
X135357142Y-68302381D01*
X135452380Y-68302381D01*
X135595238Y-68254762D01*
X135690476Y-68159524D01*
X135738095Y-68064286D01*
X135785714Y-67873810D01*
X135785714Y-67730952D01*
X135738095Y-67540476D01*
X135690476Y-67445238D01*
X135595238Y-67350000D01*
X135452380Y-67302381D01*
X135357142Y-67302381D01*
X135214285Y-67350000D01*
X135166666Y-67397619D01*
X134214285Y-68302381D02*
X134785714Y-68302381D01*
X134500000Y-68302381D02*
X134500000Y-67302381D01*
X134595238Y-67445238D01*
X134690476Y-67540476D01*
X134785714Y-67588095D01*
X135216666Y-71257143D02*
X135264285Y-71304762D01*
X135407142Y-71352381D01*
X135502380Y-71352381D01*
X135645238Y-71304762D01*
X135740476Y-71209524D01*
X135788095Y-71114286D01*
X135835714Y-70923810D01*
X135835714Y-70780952D01*
X135788095Y-70590476D01*
X135740476Y-70495238D01*
X135645238Y-70400000D01*
X135502380Y-70352381D01*
X135407142Y-70352381D01*
X135264285Y-70400000D01*
X135216666Y-70447619D01*
X134835714Y-70447619D02*
X134788095Y-70400000D01*
X134692857Y-70352381D01*
X134454761Y-70352381D01*
X134359523Y-70400000D01*
X134311904Y-70447619D01*
X134264285Y-70542857D01*
X134264285Y-70638095D01*
X134311904Y-70780952D01*
X134883333Y-71352381D01*
X134264285Y-71352381D01*
X135166666Y-59957143D02*
X135214285Y-60004762D01*
X135357142Y-60052381D01*
X135452380Y-60052381D01*
X135595238Y-60004762D01*
X135690476Y-59909524D01*
X135738095Y-59814286D01*
X135785714Y-59623810D01*
X135785714Y-59480952D01*
X135738095Y-59290476D01*
X135690476Y-59195238D01*
X135595238Y-59100000D01*
X135452380Y-59052381D01*
X135357142Y-59052381D01*
X135214285Y-59100000D01*
X135166666Y-59147619D01*
X134833333Y-59052381D02*
X134214285Y-59052381D01*
X134547619Y-59433333D01*
X134404761Y-59433333D01*
X134309523Y-59480952D01*
X134261904Y-59528571D01*
X134214285Y-59623810D01*
X134214285Y-59861905D01*
X134261904Y-59957143D01*
X134309523Y-60004762D01*
X134404761Y-60052381D01*
X134690476Y-60052381D01*
X134785714Y-60004762D01*
X134833333Y-59957143D01*
X135266666Y-56907143D02*
X135314285Y-56954762D01*
X135457142Y-57002381D01*
X135552380Y-57002381D01*
X135695238Y-56954762D01*
X135790476Y-56859524D01*
X135838095Y-56764286D01*
X135885714Y-56573810D01*
X135885714Y-56430952D01*
X135838095Y-56240476D01*
X135790476Y-56145238D01*
X135695238Y-56050000D01*
X135552380Y-56002381D01*
X135457142Y-56002381D01*
X135314285Y-56050000D01*
X135266666Y-56097619D01*
X134409523Y-56335714D02*
X134409523Y-57002381D01*
X134647619Y-55954762D02*
X134885714Y-56669048D01*
X134266666Y-56669048D01*
X147345238Y-61047619D02*
X147440476Y-61000000D01*
X147535714Y-60904762D01*
X147678571Y-60761905D01*
X147773810Y-60714286D01*
X147869048Y-60714286D01*
X147821429Y-60952381D02*
X147916667Y-60904762D01*
X148011905Y-60809524D01*
X148059524Y-60619048D01*
X148059524Y-60285714D01*
X148011905Y-60095238D01*
X147916667Y-60000000D01*
X147821429Y-59952381D01*
X147630952Y-59952381D01*
X147535714Y-60000000D01*
X147440476Y-60095238D01*
X147392857Y-60285714D01*
X147392857Y-60619048D01*
X147440476Y-60809524D01*
X147535714Y-60904762D01*
X147630952Y-60952381D01*
X147821429Y-60952381D01*
X146440476Y-60952381D02*
X147011905Y-60952381D01*
X146726191Y-60952381D02*
X146726191Y-59952381D01*
X146821429Y-60095238D01*
X146916667Y-60190476D01*
X147011905Y-60238095D01*
X147345238Y-64547619D02*
X147440476Y-64500000D01*
X147535714Y-64404762D01*
X147678571Y-64261905D01*
X147773810Y-64214286D01*
X147869048Y-64214286D01*
X147821429Y-64452381D02*
X147916667Y-64404762D01*
X148011905Y-64309524D01*
X148059524Y-64119048D01*
X148059524Y-63785714D01*
X148011905Y-63595238D01*
X147916667Y-63500000D01*
X147821429Y-63452381D01*
X147630952Y-63452381D01*
X147535714Y-63500000D01*
X147440476Y-63595238D01*
X147392857Y-63785714D01*
X147392857Y-64119048D01*
X147440476Y-64309524D01*
X147535714Y-64404762D01*
X147630952Y-64452381D01*
X147821429Y-64452381D01*
X147011905Y-63547619D02*
X146964286Y-63500000D01*
X146869048Y-63452381D01*
X146630952Y-63452381D01*
X146535714Y-63500000D01*
X146488095Y-63547619D01*
X146440476Y-63642857D01*
X146440476Y-63738095D01*
X146488095Y-63880952D01*
X147059524Y-64452381D01*
X146440476Y-64452381D01*
X147345238Y-68047619D02*
X147440476Y-68000000D01*
X147535714Y-67904762D01*
X147678571Y-67761905D01*
X147773810Y-67714286D01*
X147869048Y-67714286D01*
X147821429Y-67952381D02*
X147916667Y-67904762D01*
X148011905Y-67809524D01*
X148059524Y-67619048D01*
X148059524Y-67285714D01*
X148011905Y-67095238D01*
X147916667Y-67000000D01*
X147821429Y-66952381D01*
X147630952Y-66952381D01*
X147535714Y-67000000D01*
X147440476Y-67095238D01*
X147392857Y-67285714D01*
X147392857Y-67619048D01*
X147440476Y-67809524D01*
X147535714Y-67904762D01*
X147630952Y-67952381D01*
X147821429Y-67952381D01*
X147059524Y-66952381D02*
X146440476Y-66952381D01*
X146773810Y-67333333D01*
X146630952Y-67333333D01*
X146535714Y-67380952D01*
X146488095Y-67428571D01*
X146440476Y-67523810D01*
X146440476Y-67761905D01*
X146488095Y-67857143D01*
X146535714Y-67904762D01*
X146630952Y-67952381D01*
X146916667Y-67952381D01*
X147011905Y-67904762D01*
X147059524Y-67857143D01*
X147145238Y-71547619D02*
X147240476Y-71500000D01*
X147335714Y-71404762D01*
X147478571Y-71261905D01*
X147573810Y-71214286D01*
X147669048Y-71214286D01*
X147621429Y-71452381D02*
X147716667Y-71404762D01*
X147811905Y-71309524D01*
X147859524Y-71119048D01*
X147859524Y-70785714D01*
X147811905Y-70595238D01*
X147716667Y-70500000D01*
X147621429Y-70452381D01*
X147430952Y-70452381D01*
X147335714Y-70500000D01*
X147240476Y-70595238D01*
X147192857Y-70785714D01*
X147192857Y-71119048D01*
X147240476Y-71309524D01*
X147335714Y-71404762D01*
X147430952Y-71452381D01*
X147621429Y-71452381D01*
X146335714Y-70785714D02*
X146335714Y-71452381D01*
X146573810Y-70404762D02*
X146811905Y-71119048D01*
X146192857Y-71119048D01*
X147416666Y-59452381D02*
X147750000Y-58976190D01*
X147988095Y-59452381D02*
X147988095Y-58452381D01*
X147607142Y-58452381D01*
X147511904Y-58500000D01*
X147464285Y-58547619D01*
X147416666Y-58642857D01*
X147416666Y-58785714D01*
X147464285Y-58880952D01*
X147511904Y-58928571D01*
X147607142Y-58976190D01*
X147988095Y-58976190D01*
X146464285Y-59452381D02*
X147035714Y-59452381D01*
X146750000Y-59452381D02*
X146750000Y-58452381D01*
X146845238Y-58595238D01*
X146940476Y-58690476D01*
X147035714Y-58738095D01*
X147416666Y-62952381D02*
X147750000Y-62476190D01*
X147988095Y-62952381D02*
X147988095Y-61952381D01*
X147607142Y-61952381D01*
X147511904Y-62000000D01*
X147464285Y-62047619D01*
X147416666Y-62142857D01*
X147416666Y-62285714D01*
X147464285Y-62380952D01*
X147511904Y-62428571D01*
X147607142Y-62476190D01*
X147988095Y-62476190D01*
X147035714Y-62047619D02*
X146988095Y-62000000D01*
X146892857Y-61952381D01*
X146654761Y-61952381D01*
X146559523Y-62000000D01*
X146511904Y-62047619D01*
X146464285Y-62142857D01*
X146464285Y-62238095D01*
X146511904Y-62380952D01*
X147083333Y-62952381D01*
X146464285Y-62952381D01*
X147416666Y-66452381D02*
X147750000Y-65976190D01*
X147988095Y-66452381D02*
X147988095Y-65452381D01*
X147607142Y-65452381D01*
X147511904Y-65500000D01*
X147464285Y-65547619D01*
X147416666Y-65642857D01*
X147416666Y-65785714D01*
X147464285Y-65880952D01*
X147511904Y-65928571D01*
X147607142Y-65976190D01*
X147988095Y-65976190D01*
X147083333Y-65452381D02*
X146464285Y-65452381D01*
X146797619Y-65833333D01*
X146654761Y-65833333D01*
X146559523Y-65880952D01*
X146511904Y-65928571D01*
X146464285Y-66023810D01*
X146464285Y-66261905D01*
X146511904Y-66357143D01*
X146559523Y-66404762D01*
X146654761Y-66452381D01*
X146940476Y-66452381D01*
X147035714Y-66404762D01*
X147083333Y-66357143D01*
X147266666Y-69852381D02*
X147600000Y-69376190D01*
X147838095Y-69852381D02*
X147838095Y-68852381D01*
X147457142Y-68852381D01*
X147361904Y-68900000D01*
X147314285Y-68947619D01*
X147266666Y-69042857D01*
X147266666Y-69185714D01*
X147314285Y-69280952D01*
X147361904Y-69328571D01*
X147457142Y-69376190D01*
X147838095Y-69376190D01*
X146409523Y-69185714D02*
X146409523Y-69852381D01*
X146647619Y-68804762D02*
X146885714Y-69519048D01*
X146266666Y-69519048D01*
X162871429Y-67869048D02*
X162871429Y-68630953D01*
X162871429Y-64869048D02*
X162871429Y-65630953D01*
X163252381Y-65250001D02*
X162490476Y-65250001D01*
M02*
