G04 #@! TF.FileFunction,Copper,L2,Bot,Signal*
%FSLAX46Y46*%
G04 Gerber Fmt 4.6, Leading zero omitted, Abs format (unit mm)*
G04 Created by KiCad (PCBNEW 4.0.7) date 02/12/20 21:51:44*
%MOMM*%
%LPD*%
G01*
G04 APERTURE LIST*
%ADD10C,0.100000*%
%ADD11C,1.800000*%
%ADD12R,2.500000X1.000000*%
%ADD13R,2.600000X2.000000*%
%ADD14O,2.600000X2.000000*%
%ADD15R,3.500000X3.500000*%
%ADD16R,0.900000X0.800000*%
%ADD17R,1.300000X0.700000*%
%ADD18R,2.300000X1.500000*%
%ADD19O,10.000000X3.500000*%
%ADD20C,0.600000*%
%ADD21C,0.750000*%
%ADD22C,0.350000*%
%ADD23C,0.254000*%
G04 APERTURE END LIST*
D10*
D11*
X143360000Y-56570000D03*
X143360000Y-79430000D03*
X145900000Y-56570000D03*
X145900000Y-79430000D03*
X148440000Y-56570000D03*
X148440000Y-79430000D03*
X150980000Y-56570000D03*
X150980000Y-79430000D03*
X153520000Y-56570000D03*
X156060000Y-56570000D03*
X158600000Y-56570000D03*
X161140000Y-56570000D03*
D12*
X151750000Y-74000000D03*
X151750000Y-71000000D03*
X148250000Y-74000000D03*
X148250000Y-71000000D03*
D13*
X134000000Y-64000000D03*
D14*
X134000000Y-61460000D03*
X134000000Y-58920000D03*
X134000000Y-56380000D03*
D13*
X134000000Y-70500000D03*
D14*
X134000000Y-67960000D03*
D15*
X155500000Y-76500000D03*
X161500000Y-76500000D03*
X158500000Y-71800000D03*
D16*
X138500000Y-57050000D03*
X138500000Y-58950000D03*
X136500000Y-58000000D03*
X138500000Y-60550000D03*
X138500000Y-62450000D03*
X136500000Y-61500000D03*
X138500000Y-64050000D03*
X138500000Y-65950000D03*
X136500000Y-65000000D03*
X138500000Y-69550000D03*
X138500000Y-71450000D03*
X136500000Y-70500000D03*
D17*
X140500000Y-57050000D03*
X140500000Y-58950000D03*
X140500000Y-60550000D03*
X140500000Y-62450000D03*
X140500000Y-64050000D03*
X140500000Y-65950000D03*
X140500000Y-69550000D03*
X140500000Y-71450000D03*
D18*
X164000000Y-59940000D03*
X164000000Y-62480000D03*
X164000000Y-65020000D03*
X164000000Y-67560000D03*
D19*
X154000000Y-67000000D03*
D13*
X134000000Y-79500000D03*
D14*
X134000000Y-76960000D03*
X134000000Y-74420000D03*
D20*
X136300000Y-62800000D03*
X137100000Y-62800000D03*
X137100000Y-63600000D03*
X136000000Y-60200000D03*
X137100000Y-60200000D03*
X136900000Y-59400000D03*
X138800000Y-55400000D03*
X146600000Y-58600000D03*
X141800000Y-61600000D03*
X141900000Y-63100000D03*
X137200000Y-66200000D03*
X141900000Y-65200000D03*
X146500000Y-64000000D03*
X150000000Y-60500000D03*
X146200000Y-75900000D03*
X149250000Y-62500000D03*
X161000000Y-65750000D03*
X146000000Y-69500000D03*
D21*
X164000000Y-62480000D02*
X149270000Y-62480000D01*
X149270000Y-62480000D02*
X149250000Y-62500000D01*
X134000000Y-67960000D02*
X131540000Y-67960000D01*
X138750000Y-74000000D02*
X148250000Y-74000000D01*
X137250000Y-72500000D02*
X138750000Y-74000000D01*
X130750000Y-72500000D02*
X137250000Y-72500000D01*
X130250000Y-72000000D02*
X130750000Y-72500000D01*
X130250000Y-69250000D02*
X130250000Y-72000000D01*
X131540000Y-67960000D02*
X130250000Y-69250000D01*
X155500000Y-76500000D02*
X155500000Y-79000000D01*
X166480000Y-62480000D02*
X164000000Y-62480000D01*
X167750000Y-63750000D02*
X166480000Y-62480000D01*
X167750000Y-78750000D02*
X167750000Y-63750000D01*
X166500000Y-80000000D02*
X167750000Y-78750000D01*
X156500000Y-80000000D02*
X166500000Y-80000000D01*
X155500000Y-79000000D02*
X156500000Y-80000000D01*
X151750000Y-74000000D02*
X148250000Y-74000000D01*
X155500000Y-76500000D02*
X154250000Y-76500000D01*
X154250000Y-76500000D02*
X151750000Y-74000000D01*
X134000000Y-56380000D02*
X131870000Y-56380000D01*
X131870000Y-56380000D02*
X130500000Y-57750000D01*
X130500000Y-57750000D02*
X130500000Y-65250000D01*
X130500000Y-65250000D02*
X131250000Y-66000000D01*
X131250000Y-66000000D02*
X135000000Y-66000000D01*
X135000000Y-66000000D02*
X136500000Y-67500000D01*
X136500000Y-67500000D02*
X145000000Y-67500000D01*
X145000000Y-67500000D02*
X148750000Y-63750000D01*
X148750000Y-63750000D02*
X159000000Y-63750000D01*
X159000000Y-63750000D02*
X161000000Y-65750000D01*
X161810000Y-67560000D02*
X164000000Y-67560000D01*
X161000000Y-65750000D02*
X161000000Y-66750000D01*
X161000000Y-66750000D02*
X161810000Y-67560000D01*
D22*
X150980000Y-79430000D02*
X150980000Y-79230000D01*
X150980000Y-79230000D02*
X149250000Y-77500000D01*
X149250000Y-77500000D02*
X140750000Y-77500000D01*
X140750000Y-77500000D02*
X137670000Y-74420000D01*
X137670000Y-74420000D02*
X134000000Y-74420000D01*
D21*
X136500000Y-65000000D02*
X135500000Y-64000000D01*
X135500000Y-64000000D02*
X134000000Y-64000000D01*
X136500000Y-61500000D02*
X134040000Y-61500000D01*
X134040000Y-61500000D02*
X134000000Y-61460000D01*
X136500000Y-58000000D02*
X135500000Y-59000000D01*
X135500000Y-59000000D02*
X134080000Y-59000000D01*
X134080000Y-59000000D02*
X134000000Y-58920000D01*
X136500000Y-70500000D02*
X134000000Y-70500000D01*
D22*
X140500000Y-57050000D02*
X138500000Y-57050000D01*
X145900000Y-56570000D02*
X145900000Y-55150000D01*
X140500000Y-55250000D02*
X140500000Y-57050000D01*
X141000000Y-54750000D02*
X140500000Y-55250000D01*
X145500000Y-54750000D02*
X141000000Y-54750000D01*
X145900000Y-55150000D02*
X145500000Y-54750000D01*
X140500000Y-60550000D02*
X138500000Y-60550000D01*
X148440000Y-56570000D02*
X148440000Y-58560000D01*
X146450000Y-60550000D02*
X140500000Y-60550000D01*
X148440000Y-58560000D02*
X146450000Y-60550000D01*
X150980000Y-56570000D02*
X150980000Y-57270000D01*
X150980000Y-57270000D02*
X144200000Y-64050000D01*
X144200000Y-64050000D02*
X140500000Y-64050000D01*
X140500000Y-64050000D02*
X138500000Y-64050000D01*
X145950000Y-69550000D02*
X140500000Y-69550000D01*
X146000000Y-69500000D02*
X145950000Y-69550000D01*
X153520000Y-56570000D02*
X153430000Y-56570000D01*
X140500000Y-69500000D02*
X140500000Y-69550000D01*
X140500000Y-69550000D02*
X138500000Y-69550000D01*
X156060000Y-56570000D02*
X156060000Y-58810000D01*
X157190000Y-59940000D02*
X164000000Y-59940000D01*
X156060000Y-58810000D02*
X157190000Y-59940000D01*
D23*
G36*
X139751658Y-54940026D02*
X139690000Y-55250000D01*
X139690000Y-56082666D01*
X139614683Y-56096838D01*
X139426539Y-56217905D01*
X139414090Y-56198559D01*
X139201890Y-56053569D01*
X138950000Y-56002560D01*
X138050000Y-56002560D01*
X137814683Y-56046838D01*
X137598559Y-56185910D01*
X137453569Y-56398110D01*
X137402560Y-56650000D01*
X137402560Y-57140681D01*
X137201890Y-57003569D01*
X136950000Y-56952560D01*
X136050000Y-56952560D01*
X135851594Y-56989893D01*
X135972909Y-56380000D01*
X135848452Y-55754313D01*
X135494029Y-55223880D01*
X134963596Y-54869457D01*
X134337909Y-54745000D01*
X133662091Y-54745000D01*
X133036404Y-54869457D01*
X132505971Y-55223880D01*
X132408337Y-55370000D01*
X131870005Y-55370000D01*
X131870000Y-55369999D01*
X131483490Y-55446882D01*
X131155822Y-55665822D01*
X129785822Y-57035822D01*
X129566882Y-57363490D01*
X129490000Y-57750000D01*
X129490000Y-65250000D01*
X129566882Y-65636510D01*
X129785822Y-65964178D01*
X130535822Y-66714178D01*
X130863490Y-66933118D01*
X131244180Y-67008842D01*
X131153489Y-67026882D01*
X131023872Y-67113490D01*
X130825822Y-67245822D01*
X130825820Y-67245825D01*
X129535822Y-68535822D01*
X129316882Y-68863490D01*
X129240000Y-69250000D01*
X129240000Y-72000000D01*
X129316882Y-72386510D01*
X129535822Y-72714178D01*
X130035822Y-73214178D01*
X130363490Y-73433118D01*
X130750000Y-73510000D01*
X132341519Y-73510000D01*
X132151548Y-73794313D01*
X132027091Y-74420000D01*
X132151548Y-75045687D01*
X132505971Y-75576120D01*
X132676405Y-75690000D01*
X132505971Y-75803880D01*
X132151548Y-76334313D01*
X132027091Y-76960000D01*
X132151548Y-77585687D01*
X132389231Y-77941406D01*
X132340301Y-77961673D01*
X132161673Y-78140302D01*
X132065000Y-78373691D01*
X132065000Y-79214250D01*
X132223750Y-79373000D01*
X133873000Y-79373000D01*
X133873000Y-79353000D01*
X134127000Y-79353000D01*
X134127000Y-79373000D01*
X135776250Y-79373000D01*
X135935000Y-79214250D01*
X135935000Y-78373691D01*
X135838327Y-78140302D01*
X135659699Y-77961673D01*
X135610769Y-77941406D01*
X135848452Y-77585687D01*
X135972909Y-76960000D01*
X135848452Y-76334313D01*
X135494029Y-75803880D01*
X135323595Y-75690000D01*
X135494029Y-75576120D01*
X135725298Y-75230000D01*
X137334488Y-75230000D01*
X140177244Y-78072757D01*
X140440027Y-78248343D01*
X140577897Y-78275766D01*
X140750000Y-78310000D01*
X142309242Y-78310000D01*
X142059449Y-78559357D01*
X141825267Y-79123330D01*
X141824735Y-79733991D01*
X142057932Y-80298371D01*
X142489357Y-80730551D01*
X143053330Y-80964733D01*
X143663991Y-80965265D01*
X144228371Y-80732068D01*
X144450668Y-80510159D01*
X144999446Y-80510159D01*
X145085852Y-80766643D01*
X145659336Y-80976458D01*
X146269460Y-80950839D01*
X146714148Y-80766643D01*
X146800554Y-80510159D01*
X145900000Y-79609605D01*
X144999446Y-80510159D01*
X144450668Y-80510159D01*
X144660551Y-80300643D01*
X144669203Y-80279806D01*
X144819841Y-80330554D01*
X145720395Y-79430000D01*
X144819841Y-78529446D01*
X144669673Y-78580035D01*
X144662068Y-78561629D01*
X144410879Y-78310000D01*
X145012868Y-78310000D01*
X144999446Y-78349841D01*
X145900000Y-79250395D01*
X146800554Y-78349841D01*
X146787132Y-78310000D01*
X147389242Y-78310000D01*
X147139449Y-78559357D01*
X147130797Y-78580194D01*
X146980159Y-78529446D01*
X146079605Y-79430000D01*
X146980159Y-80330554D01*
X147130327Y-80279965D01*
X147137932Y-80298371D01*
X147569357Y-80730551D01*
X148133330Y-80964733D01*
X148743991Y-80965265D01*
X149308371Y-80732068D01*
X149710323Y-80330818D01*
X150109357Y-80730551D01*
X150673330Y-80964733D01*
X151283991Y-80965265D01*
X151848371Y-80732068D01*
X152280551Y-80300643D01*
X152514733Y-79736670D01*
X152515265Y-79126009D01*
X152282068Y-78561629D01*
X151850643Y-78129449D01*
X151286670Y-77895267D01*
X150790347Y-77894835D01*
X149822756Y-76927244D01*
X149761793Y-76886510D01*
X149559974Y-76751658D01*
X149250000Y-76690000D01*
X141085513Y-76690000D01*
X139405512Y-75010000D01*
X146621614Y-75010000D01*
X146748110Y-75096431D01*
X147000000Y-75147440D01*
X149500000Y-75147440D01*
X149735317Y-75103162D01*
X149880095Y-75010000D01*
X150121614Y-75010000D01*
X150248110Y-75096431D01*
X150500000Y-75147440D01*
X151469084Y-75147440D01*
X153102560Y-76780916D01*
X153102560Y-78250000D01*
X153146838Y-78485317D01*
X153285910Y-78701441D01*
X153498110Y-78846431D01*
X153750000Y-78897440D01*
X154490000Y-78897440D01*
X154490000Y-79000000D01*
X154566882Y-79386510D01*
X154785822Y-79714178D01*
X155785822Y-80714178D01*
X156113490Y-80933118D01*
X156500000Y-81010001D01*
X156500005Y-81010000D01*
X166500000Y-81010000D01*
X166886510Y-80933118D01*
X167214178Y-80714178D01*
X168464178Y-79464178D01*
X168683118Y-79136510D01*
X168760000Y-78750000D01*
X168760000Y-63750000D01*
X168683118Y-63363490D01*
X168464178Y-63035822D01*
X167194178Y-61765822D01*
X166866510Y-61546882D01*
X166480000Y-61470000D01*
X165737279Y-61470000D01*
X165614090Y-61278559D01*
X165514140Y-61210266D01*
X165601441Y-61154090D01*
X165746431Y-60941890D01*
X165797440Y-60690000D01*
X165797440Y-59190000D01*
X165753162Y-58954683D01*
X165614090Y-58738559D01*
X165401890Y-58593569D01*
X165150000Y-58542560D01*
X162850000Y-58542560D01*
X162614683Y-58586838D01*
X162398559Y-58725910D01*
X162253569Y-58938110D01*
X162214710Y-59130000D01*
X157525513Y-59130000D01*
X156870000Y-58474488D01*
X156870000Y-57896186D01*
X156928371Y-57872068D01*
X157330323Y-57470818D01*
X157729357Y-57870551D01*
X158293330Y-58104733D01*
X158903991Y-58105265D01*
X159468371Y-57872068D01*
X159870323Y-57470818D01*
X160269357Y-57870551D01*
X160833330Y-58104733D01*
X161443991Y-58105265D01*
X162008371Y-57872068D01*
X162440551Y-57440643D01*
X162674733Y-56876670D01*
X162675265Y-56266009D01*
X162442068Y-55701629D01*
X162010643Y-55269449D01*
X161446670Y-55035267D01*
X160836009Y-55034735D01*
X160271629Y-55267932D01*
X159869677Y-55669182D01*
X159470643Y-55269449D01*
X158906670Y-55035267D01*
X158296009Y-55034735D01*
X157731629Y-55267932D01*
X157329677Y-55669182D01*
X156930643Y-55269449D01*
X156366670Y-55035267D01*
X155756009Y-55034735D01*
X155191629Y-55267932D01*
X154789677Y-55669182D01*
X154390643Y-55269449D01*
X153826670Y-55035267D01*
X153216009Y-55034735D01*
X152651629Y-55267932D01*
X152249677Y-55669182D01*
X151850643Y-55269449D01*
X151286670Y-55035267D01*
X150676009Y-55034735D01*
X150111629Y-55267932D01*
X149709677Y-55669182D01*
X149310643Y-55269449D01*
X148746670Y-55035267D01*
X148136009Y-55034735D01*
X147571629Y-55267932D01*
X147169677Y-55669182D01*
X146770643Y-55269449D01*
X146710000Y-55244268D01*
X146710000Y-55150000D01*
X146648342Y-54840026D01*
X146561461Y-54710000D01*
X168680073Y-54710000D01*
X168951325Y-54763956D01*
X169122002Y-54877998D01*
X169236044Y-55048675D01*
X169290000Y-55319927D01*
X169290000Y-80930073D01*
X169236044Y-81201325D01*
X169122002Y-81372002D01*
X168951325Y-81486044D01*
X168680073Y-81540000D01*
X129210000Y-81540000D01*
X129210000Y-79785750D01*
X132065000Y-79785750D01*
X132065000Y-80626309D01*
X132161673Y-80859698D01*
X132340301Y-81038327D01*
X132573690Y-81135000D01*
X133714250Y-81135000D01*
X133873000Y-80976250D01*
X133873000Y-79627000D01*
X134127000Y-79627000D01*
X134127000Y-80976250D01*
X134285750Y-81135000D01*
X135426310Y-81135000D01*
X135659699Y-81038327D01*
X135838327Y-80859698D01*
X135935000Y-80626309D01*
X135935000Y-79785750D01*
X135776250Y-79627000D01*
X134127000Y-79627000D01*
X133873000Y-79627000D01*
X132223750Y-79627000D01*
X132065000Y-79785750D01*
X129210000Y-79785750D01*
X129210000Y-54710000D01*
X139905357Y-54710000D01*
X139751658Y-54940026D01*
X139751658Y-54940026D01*
G37*
X139751658Y-54940026D02*
X139690000Y-55250000D01*
X139690000Y-56082666D01*
X139614683Y-56096838D01*
X139426539Y-56217905D01*
X139414090Y-56198559D01*
X139201890Y-56053569D01*
X138950000Y-56002560D01*
X138050000Y-56002560D01*
X137814683Y-56046838D01*
X137598559Y-56185910D01*
X137453569Y-56398110D01*
X137402560Y-56650000D01*
X137402560Y-57140681D01*
X137201890Y-57003569D01*
X136950000Y-56952560D01*
X136050000Y-56952560D01*
X135851594Y-56989893D01*
X135972909Y-56380000D01*
X135848452Y-55754313D01*
X135494029Y-55223880D01*
X134963596Y-54869457D01*
X134337909Y-54745000D01*
X133662091Y-54745000D01*
X133036404Y-54869457D01*
X132505971Y-55223880D01*
X132408337Y-55370000D01*
X131870005Y-55370000D01*
X131870000Y-55369999D01*
X131483490Y-55446882D01*
X131155822Y-55665822D01*
X129785822Y-57035822D01*
X129566882Y-57363490D01*
X129490000Y-57750000D01*
X129490000Y-65250000D01*
X129566882Y-65636510D01*
X129785822Y-65964178D01*
X130535822Y-66714178D01*
X130863490Y-66933118D01*
X131244180Y-67008842D01*
X131153489Y-67026882D01*
X131023872Y-67113490D01*
X130825822Y-67245822D01*
X130825820Y-67245825D01*
X129535822Y-68535822D01*
X129316882Y-68863490D01*
X129240000Y-69250000D01*
X129240000Y-72000000D01*
X129316882Y-72386510D01*
X129535822Y-72714178D01*
X130035822Y-73214178D01*
X130363490Y-73433118D01*
X130750000Y-73510000D01*
X132341519Y-73510000D01*
X132151548Y-73794313D01*
X132027091Y-74420000D01*
X132151548Y-75045687D01*
X132505971Y-75576120D01*
X132676405Y-75690000D01*
X132505971Y-75803880D01*
X132151548Y-76334313D01*
X132027091Y-76960000D01*
X132151548Y-77585687D01*
X132389231Y-77941406D01*
X132340301Y-77961673D01*
X132161673Y-78140302D01*
X132065000Y-78373691D01*
X132065000Y-79214250D01*
X132223750Y-79373000D01*
X133873000Y-79373000D01*
X133873000Y-79353000D01*
X134127000Y-79353000D01*
X134127000Y-79373000D01*
X135776250Y-79373000D01*
X135935000Y-79214250D01*
X135935000Y-78373691D01*
X135838327Y-78140302D01*
X135659699Y-77961673D01*
X135610769Y-77941406D01*
X135848452Y-77585687D01*
X135972909Y-76960000D01*
X135848452Y-76334313D01*
X135494029Y-75803880D01*
X135323595Y-75690000D01*
X135494029Y-75576120D01*
X135725298Y-75230000D01*
X137334488Y-75230000D01*
X140177244Y-78072757D01*
X140440027Y-78248343D01*
X140577897Y-78275766D01*
X140750000Y-78310000D01*
X142309242Y-78310000D01*
X142059449Y-78559357D01*
X141825267Y-79123330D01*
X141824735Y-79733991D01*
X142057932Y-80298371D01*
X142489357Y-80730551D01*
X143053330Y-80964733D01*
X143663991Y-80965265D01*
X144228371Y-80732068D01*
X144450668Y-80510159D01*
X144999446Y-80510159D01*
X145085852Y-80766643D01*
X145659336Y-80976458D01*
X146269460Y-80950839D01*
X146714148Y-80766643D01*
X146800554Y-80510159D01*
X145900000Y-79609605D01*
X144999446Y-80510159D01*
X144450668Y-80510159D01*
X144660551Y-80300643D01*
X144669203Y-80279806D01*
X144819841Y-80330554D01*
X145720395Y-79430000D01*
X144819841Y-78529446D01*
X144669673Y-78580035D01*
X144662068Y-78561629D01*
X144410879Y-78310000D01*
X145012868Y-78310000D01*
X144999446Y-78349841D01*
X145900000Y-79250395D01*
X146800554Y-78349841D01*
X146787132Y-78310000D01*
X147389242Y-78310000D01*
X147139449Y-78559357D01*
X147130797Y-78580194D01*
X146980159Y-78529446D01*
X146079605Y-79430000D01*
X146980159Y-80330554D01*
X147130327Y-80279965D01*
X147137932Y-80298371D01*
X147569357Y-80730551D01*
X148133330Y-80964733D01*
X148743991Y-80965265D01*
X149308371Y-80732068D01*
X149710323Y-80330818D01*
X150109357Y-80730551D01*
X150673330Y-80964733D01*
X151283991Y-80965265D01*
X151848371Y-80732068D01*
X152280551Y-80300643D01*
X152514733Y-79736670D01*
X152515265Y-79126009D01*
X152282068Y-78561629D01*
X151850643Y-78129449D01*
X151286670Y-77895267D01*
X150790347Y-77894835D01*
X149822756Y-76927244D01*
X149761793Y-76886510D01*
X149559974Y-76751658D01*
X149250000Y-76690000D01*
X141085513Y-76690000D01*
X139405512Y-75010000D01*
X146621614Y-75010000D01*
X146748110Y-75096431D01*
X147000000Y-75147440D01*
X149500000Y-75147440D01*
X149735317Y-75103162D01*
X149880095Y-75010000D01*
X150121614Y-75010000D01*
X150248110Y-75096431D01*
X150500000Y-75147440D01*
X151469084Y-75147440D01*
X153102560Y-76780916D01*
X153102560Y-78250000D01*
X153146838Y-78485317D01*
X153285910Y-78701441D01*
X153498110Y-78846431D01*
X153750000Y-78897440D01*
X154490000Y-78897440D01*
X154490000Y-79000000D01*
X154566882Y-79386510D01*
X154785822Y-79714178D01*
X155785822Y-80714178D01*
X156113490Y-80933118D01*
X156500000Y-81010001D01*
X156500005Y-81010000D01*
X166500000Y-81010000D01*
X166886510Y-80933118D01*
X167214178Y-80714178D01*
X168464178Y-79464178D01*
X168683118Y-79136510D01*
X168760000Y-78750000D01*
X168760000Y-63750000D01*
X168683118Y-63363490D01*
X168464178Y-63035822D01*
X167194178Y-61765822D01*
X166866510Y-61546882D01*
X166480000Y-61470000D01*
X165737279Y-61470000D01*
X165614090Y-61278559D01*
X165514140Y-61210266D01*
X165601441Y-61154090D01*
X165746431Y-60941890D01*
X165797440Y-60690000D01*
X165797440Y-59190000D01*
X165753162Y-58954683D01*
X165614090Y-58738559D01*
X165401890Y-58593569D01*
X165150000Y-58542560D01*
X162850000Y-58542560D01*
X162614683Y-58586838D01*
X162398559Y-58725910D01*
X162253569Y-58938110D01*
X162214710Y-59130000D01*
X157525513Y-59130000D01*
X156870000Y-58474488D01*
X156870000Y-57896186D01*
X156928371Y-57872068D01*
X157330323Y-57470818D01*
X157729357Y-57870551D01*
X158293330Y-58104733D01*
X158903991Y-58105265D01*
X159468371Y-57872068D01*
X159870323Y-57470818D01*
X160269357Y-57870551D01*
X160833330Y-58104733D01*
X161443991Y-58105265D01*
X162008371Y-57872068D01*
X162440551Y-57440643D01*
X162674733Y-56876670D01*
X162675265Y-56266009D01*
X162442068Y-55701629D01*
X162010643Y-55269449D01*
X161446670Y-55035267D01*
X160836009Y-55034735D01*
X160271629Y-55267932D01*
X159869677Y-55669182D01*
X159470643Y-55269449D01*
X158906670Y-55035267D01*
X158296009Y-55034735D01*
X157731629Y-55267932D01*
X157329677Y-55669182D01*
X156930643Y-55269449D01*
X156366670Y-55035267D01*
X155756009Y-55034735D01*
X155191629Y-55267932D01*
X154789677Y-55669182D01*
X154390643Y-55269449D01*
X153826670Y-55035267D01*
X153216009Y-55034735D01*
X152651629Y-55267932D01*
X152249677Y-55669182D01*
X151850643Y-55269449D01*
X151286670Y-55035267D01*
X150676009Y-55034735D01*
X150111629Y-55267932D01*
X149709677Y-55669182D01*
X149310643Y-55269449D01*
X148746670Y-55035267D01*
X148136009Y-55034735D01*
X147571629Y-55267932D01*
X147169677Y-55669182D01*
X146770643Y-55269449D01*
X146710000Y-55244268D01*
X146710000Y-55150000D01*
X146648342Y-54840026D01*
X146561461Y-54710000D01*
X168680073Y-54710000D01*
X168951325Y-54763956D01*
X169122002Y-54877998D01*
X169236044Y-55048675D01*
X169290000Y-55319927D01*
X169290000Y-80930073D01*
X169236044Y-81201325D01*
X169122002Y-81372002D01*
X168951325Y-81486044D01*
X168680073Y-81540000D01*
X129210000Y-81540000D01*
X129210000Y-79785750D01*
X132065000Y-79785750D01*
X132065000Y-80626309D01*
X132161673Y-80859698D01*
X132340301Y-81038327D01*
X132573690Y-81135000D01*
X133714250Y-81135000D01*
X133873000Y-80976250D01*
X133873000Y-79627000D01*
X134127000Y-79627000D01*
X134127000Y-80976250D01*
X134285750Y-81135000D01*
X135426310Y-81135000D01*
X135659699Y-81038327D01*
X135838327Y-80859698D01*
X135935000Y-80626309D01*
X135935000Y-79785750D01*
X135776250Y-79627000D01*
X134127000Y-79627000D01*
X133873000Y-79627000D01*
X132223750Y-79627000D01*
X132065000Y-79785750D01*
X129210000Y-79785750D01*
X129210000Y-54710000D01*
X139905357Y-54710000D01*
X139751658Y-54940026D01*
G36*
X162385910Y-63681441D02*
X162477769Y-63744206D01*
X162311673Y-63910301D01*
X162215000Y-64143690D01*
X162215000Y-64734250D01*
X162373750Y-64893000D01*
X163873000Y-64893000D01*
X163873000Y-64873000D01*
X164127000Y-64873000D01*
X164127000Y-64893000D01*
X165626250Y-64893000D01*
X165785000Y-64734250D01*
X165785000Y-64143690D01*
X165688327Y-63910301D01*
X165522751Y-63744726D01*
X165601441Y-63694090D01*
X165740890Y-63490000D01*
X166061644Y-63490000D01*
X166740000Y-64168356D01*
X166740000Y-78331644D01*
X166081644Y-78990000D01*
X156918356Y-78990000D01*
X156825796Y-78897440D01*
X157250000Y-78897440D01*
X157485317Y-78853162D01*
X157701441Y-78714090D01*
X157846431Y-78501890D01*
X157897440Y-78250000D01*
X157897440Y-76785750D01*
X159115000Y-76785750D01*
X159115000Y-78376310D01*
X159211673Y-78609699D01*
X159390302Y-78788327D01*
X159623691Y-78885000D01*
X161214250Y-78885000D01*
X161373000Y-78726250D01*
X161373000Y-76627000D01*
X161627000Y-76627000D01*
X161627000Y-78726250D01*
X161785750Y-78885000D01*
X163376309Y-78885000D01*
X163609698Y-78788327D01*
X163788327Y-78609699D01*
X163885000Y-78376310D01*
X163885000Y-76785750D01*
X163726250Y-76627000D01*
X161627000Y-76627000D01*
X161373000Y-76627000D01*
X159273750Y-76627000D01*
X159115000Y-76785750D01*
X157897440Y-76785750D01*
X157897440Y-74750000D01*
X157853162Y-74514683D01*
X157714090Y-74298559D01*
X157547891Y-74185000D01*
X158214250Y-74185000D01*
X158373000Y-74026250D01*
X158373000Y-71927000D01*
X158627000Y-71927000D01*
X158627000Y-74026250D01*
X158785750Y-74185000D01*
X159454696Y-74185000D01*
X159390302Y-74211673D01*
X159211673Y-74390301D01*
X159115000Y-74623690D01*
X159115000Y-76214250D01*
X159273750Y-76373000D01*
X161373000Y-76373000D01*
X161373000Y-74273750D01*
X161627000Y-74273750D01*
X161627000Y-76373000D01*
X163726250Y-76373000D01*
X163885000Y-76214250D01*
X163885000Y-74623690D01*
X163788327Y-74390301D01*
X163609698Y-74211673D01*
X163376309Y-74115000D01*
X161785750Y-74115000D01*
X161627000Y-74273750D01*
X161373000Y-74273750D01*
X161214250Y-74115000D01*
X160545304Y-74115000D01*
X160609698Y-74088327D01*
X160788327Y-73909699D01*
X160885000Y-73676310D01*
X160885000Y-72085750D01*
X160726250Y-71927000D01*
X158627000Y-71927000D01*
X158373000Y-71927000D01*
X156273750Y-71927000D01*
X156115000Y-72085750D01*
X156115000Y-73676310D01*
X156211673Y-73909699D01*
X156390302Y-74088327D01*
X156424663Y-74102560D01*
X153750000Y-74102560D01*
X153647440Y-74121858D01*
X153647440Y-73500000D01*
X153603162Y-73264683D01*
X153464090Y-73048559D01*
X153251890Y-72903569D01*
X153000000Y-72852560D01*
X150500000Y-72852560D01*
X150264683Y-72896838D01*
X150119905Y-72990000D01*
X149878386Y-72990000D01*
X149751890Y-72903569D01*
X149500000Y-72852560D01*
X147000000Y-72852560D01*
X146764683Y-72896838D01*
X146619905Y-72990000D01*
X139168356Y-72990000D01*
X138627002Y-72448646D01*
X138627002Y-72326252D01*
X138785750Y-72485000D01*
X139076309Y-72485000D01*
X139309698Y-72388327D01*
X139425000Y-72273026D01*
X139490301Y-72338327D01*
X139723690Y-72435000D01*
X140214250Y-72435000D01*
X140373000Y-72276250D01*
X140373000Y-71577000D01*
X140627000Y-71577000D01*
X140627000Y-72276250D01*
X140785750Y-72435000D01*
X141276310Y-72435000D01*
X141509699Y-72338327D01*
X141688327Y-72159698D01*
X141785000Y-71926309D01*
X141785000Y-71735750D01*
X141626250Y-71577000D01*
X140627000Y-71577000D01*
X140373000Y-71577000D01*
X138627000Y-71577000D01*
X138627000Y-71597000D01*
X138373000Y-71597000D01*
X138373000Y-71577000D01*
X137651653Y-71577000D01*
X137636510Y-71566882D01*
X137250000Y-71490000D01*
X137205771Y-71490000D01*
X137401441Y-71364090D01*
X137488064Y-71237314D01*
X137573750Y-71323000D01*
X138373000Y-71323000D01*
X138373000Y-71303000D01*
X138627000Y-71303000D01*
X138627000Y-71323000D01*
X140373000Y-71323000D01*
X140373000Y-71303000D01*
X140627000Y-71303000D01*
X140627000Y-71323000D01*
X141626250Y-71323000D01*
X141663500Y-71285750D01*
X146365000Y-71285750D01*
X146365000Y-71626309D01*
X146461673Y-71859698D01*
X146640301Y-72038327D01*
X146873690Y-72135000D01*
X147964250Y-72135000D01*
X148123000Y-71976250D01*
X148123000Y-71127000D01*
X148377000Y-71127000D01*
X148377000Y-71976250D01*
X148535750Y-72135000D01*
X149626310Y-72135000D01*
X149859699Y-72038327D01*
X150000000Y-71898025D01*
X150140301Y-72038327D01*
X150373690Y-72135000D01*
X151464250Y-72135000D01*
X151623000Y-71976250D01*
X151623000Y-71127000D01*
X151877000Y-71127000D01*
X151877000Y-71976250D01*
X152035750Y-72135000D01*
X153126310Y-72135000D01*
X153359699Y-72038327D01*
X153538327Y-71859698D01*
X153635000Y-71626309D01*
X153635000Y-71285750D01*
X153476250Y-71127000D01*
X151877000Y-71127000D01*
X151623000Y-71127000D01*
X150023750Y-71127000D01*
X150000000Y-71150750D01*
X149976250Y-71127000D01*
X148377000Y-71127000D01*
X148123000Y-71127000D01*
X146523750Y-71127000D01*
X146365000Y-71285750D01*
X141663500Y-71285750D01*
X141785000Y-71164250D01*
X141785000Y-70973691D01*
X141688327Y-70740302D01*
X141509699Y-70561673D01*
X141373713Y-70505346D01*
X141385317Y-70503162D01*
X141601441Y-70364090D01*
X141604236Y-70360000D01*
X145632972Y-70360000D01*
X145813201Y-70434838D01*
X146185167Y-70435162D01*
X146371414Y-70358207D01*
X146365000Y-70373691D01*
X146365000Y-70714250D01*
X146523750Y-70873000D01*
X148123000Y-70873000D01*
X148123000Y-70023750D01*
X148377000Y-70023750D01*
X148377000Y-70873000D01*
X149976250Y-70873000D01*
X150000000Y-70849250D01*
X150023750Y-70873000D01*
X151623000Y-70873000D01*
X151623000Y-70023750D01*
X151877000Y-70023750D01*
X151877000Y-70873000D01*
X153476250Y-70873000D01*
X153635000Y-70714250D01*
X153635000Y-70373691D01*
X153538327Y-70140302D01*
X153359699Y-69961673D01*
X153268001Y-69923690D01*
X156115000Y-69923690D01*
X156115000Y-71514250D01*
X156273750Y-71673000D01*
X158373000Y-71673000D01*
X158373000Y-69573750D01*
X158627000Y-69573750D01*
X158627000Y-71673000D01*
X160726250Y-71673000D01*
X160885000Y-71514250D01*
X160885000Y-69923690D01*
X160788327Y-69690301D01*
X160609698Y-69511673D01*
X160376309Y-69415000D01*
X158785750Y-69415000D01*
X158627000Y-69573750D01*
X158373000Y-69573750D01*
X158214250Y-69415000D01*
X156623691Y-69415000D01*
X156390302Y-69511673D01*
X156211673Y-69690301D01*
X156115000Y-69923690D01*
X153268001Y-69923690D01*
X153126310Y-69865000D01*
X152035750Y-69865000D01*
X151877000Y-70023750D01*
X151623000Y-70023750D01*
X151464250Y-69865000D01*
X150373690Y-69865000D01*
X150140301Y-69961673D01*
X150000000Y-70101975D01*
X149859699Y-69961673D01*
X149626310Y-69865000D01*
X148535750Y-69865000D01*
X148377000Y-70023750D01*
X148123000Y-70023750D01*
X147964250Y-69865000D01*
X146873690Y-69865000D01*
X146858173Y-69871427D01*
X146934838Y-69686799D01*
X146935162Y-69314833D01*
X146793117Y-68971057D01*
X146530327Y-68707808D01*
X146186799Y-68565162D01*
X145814833Y-68564838D01*
X145471057Y-68706883D01*
X145437882Y-68740000D01*
X141601563Y-68740000D01*
X141401890Y-68603569D01*
X141150000Y-68552560D01*
X139850000Y-68552560D01*
X139614683Y-68596838D01*
X139426539Y-68717905D01*
X139414090Y-68698559D01*
X139201890Y-68553569D01*
X138986740Y-68510000D01*
X145000000Y-68510000D01*
X145386510Y-68433118D01*
X145714178Y-68214178D01*
X149168356Y-64760000D01*
X149910638Y-64760000D01*
X149726904Y-64796547D01*
X148953154Y-65313550D01*
X148436151Y-66087300D01*
X148254604Y-67000000D01*
X148436151Y-67912700D01*
X148953154Y-68686450D01*
X149726904Y-69203453D01*
X150639604Y-69385000D01*
X157360396Y-69385000D01*
X158273096Y-69203453D01*
X159046846Y-68686450D01*
X159563849Y-67912700D01*
X159745396Y-67000000D01*
X159563849Y-66087300D01*
X159046846Y-65313550D01*
X158273096Y-64796547D01*
X158089362Y-64760000D01*
X158581644Y-64760000D01*
X159990000Y-66168356D01*
X159990000Y-66750000D01*
X160066882Y-67136510D01*
X160285822Y-67464178D01*
X161095822Y-68274178D01*
X161423490Y-68493118D01*
X161810000Y-68570000D01*
X162262721Y-68570000D01*
X162385910Y-68761441D01*
X162598110Y-68906431D01*
X162850000Y-68957440D01*
X165150000Y-68957440D01*
X165385317Y-68913162D01*
X165601441Y-68774090D01*
X165746431Y-68561890D01*
X165797440Y-68310000D01*
X165797440Y-66810000D01*
X165753162Y-66574683D01*
X165614090Y-66358559D01*
X165522231Y-66295794D01*
X165688327Y-66129699D01*
X165785000Y-65896310D01*
X165785000Y-65305750D01*
X165626250Y-65147000D01*
X164127000Y-65147000D01*
X164127000Y-65167000D01*
X163873000Y-65167000D01*
X163873000Y-65147000D01*
X162373750Y-65147000D01*
X162215000Y-65305750D01*
X162215000Y-65896310D01*
X162311673Y-66129699D01*
X162477249Y-66295274D01*
X162398559Y-66345910D01*
X162259110Y-66550000D01*
X162228356Y-66550000D01*
X162010000Y-66331644D01*
X162010000Y-65750000D01*
X161933118Y-65363490D01*
X161714178Y-65035822D01*
X160168356Y-63490000D01*
X162262721Y-63490000D01*
X162385910Y-63681441D01*
X162385910Y-63681441D01*
G37*
X162385910Y-63681441D02*
X162477769Y-63744206D01*
X162311673Y-63910301D01*
X162215000Y-64143690D01*
X162215000Y-64734250D01*
X162373750Y-64893000D01*
X163873000Y-64893000D01*
X163873000Y-64873000D01*
X164127000Y-64873000D01*
X164127000Y-64893000D01*
X165626250Y-64893000D01*
X165785000Y-64734250D01*
X165785000Y-64143690D01*
X165688327Y-63910301D01*
X165522751Y-63744726D01*
X165601441Y-63694090D01*
X165740890Y-63490000D01*
X166061644Y-63490000D01*
X166740000Y-64168356D01*
X166740000Y-78331644D01*
X166081644Y-78990000D01*
X156918356Y-78990000D01*
X156825796Y-78897440D01*
X157250000Y-78897440D01*
X157485317Y-78853162D01*
X157701441Y-78714090D01*
X157846431Y-78501890D01*
X157897440Y-78250000D01*
X157897440Y-76785750D01*
X159115000Y-76785750D01*
X159115000Y-78376310D01*
X159211673Y-78609699D01*
X159390302Y-78788327D01*
X159623691Y-78885000D01*
X161214250Y-78885000D01*
X161373000Y-78726250D01*
X161373000Y-76627000D01*
X161627000Y-76627000D01*
X161627000Y-78726250D01*
X161785750Y-78885000D01*
X163376309Y-78885000D01*
X163609698Y-78788327D01*
X163788327Y-78609699D01*
X163885000Y-78376310D01*
X163885000Y-76785750D01*
X163726250Y-76627000D01*
X161627000Y-76627000D01*
X161373000Y-76627000D01*
X159273750Y-76627000D01*
X159115000Y-76785750D01*
X157897440Y-76785750D01*
X157897440Y-74750000D01*
X157853162Y-74514683D01*
X157714090Y-74298559D01*
X157547891Y-74185000D01*
X158214250Y-74185000D01*
X158373000Y-74026250D01*
X158373000Y-71927000D01*
X158627000Y-71927000D01*
X158627000Y-74026250D01*
X158785750Y-74185000D01*
X159454696Y-74185000D01*
X159390302Y-74211673D01*
X159211673Y-74390301D01*
X159115000Y-74623690D01*
X159115000Y-76214250D01*
X159273750Y-76373000D01*
X161373000Y-76373000D01*
X161373000Y-74273750D01*
X161627000Y-74273750D01*
X161627000Y-76373000D01*
X163726250Y-76373000D01*
X163885000Y-76214250D01*
X163885000Y-74623690D01*
X163788327Y-74390301D01*
X163609698Y-74211673D01*
X163376309Y-74115000D01*
X161785750Y-74115000D01*
X161627000Y-74273750D01*
X161373000Y-74273750D01*
X161214250Y-74115000D01*
X160545304Y-74115000D01*
X160609698Y-74088327D01*
X160788327Y-73909699D01*
X160885000Y-73676310D01*
X160885000Y-72085750D01*
X160726250Y-71927000D01*
X158627000Y-71927000D01*
X158373000Y-71927000D01*
X156273750Y-71927000D01*
X156115000Y-72085750D01*
X156115000Y-73676310D01*
X156211673Y-73909699D01*
X156390302Y-74088327D01*
X156424663Y-74102560D01*
X153750000Y-74102560D01*
X153647440Y-74121858D01*
X153647440Y-73500000D01*
X153603162Y-73264683D01*
X153464090Y-73048559D01*
X153251890Y-72903569D01*
X153000000Y-72852560D01*
X150500000Y-72852560D01*
X150264683Y-72896838D01*
X150119905Y-72990000D01*
X149878386Y-72990000D01*
X149751890Y-72903569D01*
X149500000Y-72852560D01*
X147000000Y-72852560D01*
X146764683Y-72896838D01*
X146619905Y-72990000D01*
X139168356Y-72990000D01*
X138627002Y-72448646D01*
X138627002Y-72326252D01*
X138785750Y-72485000D01*
X139076309Y-72485000D01*
X139309698Y-72388327D01*
X139425000Y-72273026D01*
X139490301Y-72338327D01*
X139723690Y-72435000D01*
X140214250Y-72435000D01*
X140373000Y-72276250D01*
X140373000Y-71577000D01*
X140627000Y-71577000D01*
X140627000Y-72276250D01*
X140785750Y-72435000D01*
X141276310Y-72435000D01*
X141509699Y-72338327D01*
X141688327Y-72159698D01*
X141785000Y-71926309D01*
X141785000Y-71735750D01*
X141626250Y-71577000D01*
X140627000Y-71577000D01*
X140373000Y-71577000D01*
X138627000Y-71577000D01*
X138627000Y-71597000D01*
X138373000Y-71597000D01*
X138373000Y-71577000D01*
X137651653Y-71577000D01*
X137636510Y-71566882D01*
X137250000Y-71490000D01*
X137205771Y-71490000D01*
X137401441Y-71364090D01*
X137488064Y-71237314D01*
X137573750Y-71323000D01*
X138373000Y-71323000D01*
X138373000Y-71303000D01*
X138627000Y-71303000D01*
X138627000Y-71323000D01*
X140373000Y-71323000D01*
X140373000Y-71303000D01*
X140627000Y-71303000D01*
X140627000Y-71323000D01*
X141626250Y-71323000D01*
X141663500Y-71285750D01*
X146365000Y-71285750D01*
X146365000Y-71626309D01*
X146461673Y-71859698D01*
X146640301Y-72038327D01*
X146873690Y-72135000D01*
X147964250Y-72135000D01*
X148123000Y-71976250D01*
X148123000Y-71127000D01*
X148377000Y-71127000D01*
X148377000Y-71976250D01*
X148535750Y-72135000D01*
X149626310Y-72135000D01*
X149859699Y-72038327D01*
X150000000Y-71898025D01*
X150140301Y-72038327D01*
X150373690Y-72135000D01*
X151464250Y-72135000D01*
X151623000Y-71976250D01*
X151623000Y-71127000D01*
X151877000Y-71127000D01*
X151877000Y-71976250D01*
X152035750Y-72135000D01*
X153126310Y-72135000D01*
X153359699Y-72038327D01*
X153538327Y-71859698D01*
X153635000Y-71626309D01*
X153635000Y-71285750D01*
X153476250Y-71127000D01*
X151877000Y-71127000D01*
X151623000Y-71127000D01*
X150023750Y-71127000D01*
X150000000Y-71150750D01*
X149976250Y-71127000D01*
X148377000Y-71127000D01*
X148123000Y-71127000D01*
X146523750Y-71127000D01*
X146365000Y-71285750D01*
X141663500Y-71285750D01*
X141785000Y-71164250D01*
X141785000Y-70973691D01*
X141688327Y-70740302D01*
X141509699Y-70561673D01*
X141373713Y-70505346D01*
X141385317Y-70503162D01*
X141601441Y-70364090D01*
X141604236Y-70360000D01*
X145632972Y-70360000D01*
X145813201Y-70434838D01*
X146185167Y-70435162D01*
X146371414Y-70358207D01*
X146365000Y-70373691D01*
X146365000Y-70714250D01*
X146523750Y-70873000D01*
X148123000Y-70873000D01*
X148123000Y-70023750D01*
X148377000Y-70023750D01*
X148377000Y-70873000D01*
X149976250Y-70873000D01*
X150000000Y-70849250D01*
X150023750Y-70873000D01*
X151623000Y-70873000D01*
X151623000Y-70023750D01*
X151877000Y-70023750D01*
X151877000Y-70873000D01*
X153476250Y-70873000D01*
X153635000Y-70714250D01*
X153635000Y-70373691D01*
X153538327Y-70140302D01*
X153359699Y-69961673D01*
X153268001Y-69923690D01*
X156115000Y-69923690D01*
X156115000Y-71514250D01*
X156273750Y-71673000D01*
X158373000Y-71673000D01*
X158373000Y-69573750D01*
X158627000Y-69573750D01*
X158627000Y-71673000D01*
X160726250Y-71673000D01*
X160885000Y-71514250D01*
X160885000Y-69923690D01*
X160788327Y-69690301D01*
X160609698Y-69511673D01*
X160376309Y-69415000D01*
X158785750Y-69415000D01*
X158627000Y-69573750D01*
X158373000Y-69573750D01*
X158214250Y-69415000D01*
X156623691Y-69415000D01*
X156390302Y-69511673D01*
X156211673Y-69690301D01*
X156115000Y-69923690D01*
X153268001Y-69923690D01*
X153126310Y-69865000D01*
X152035750Y-69865000D01*
X151877000Y-70023750D01*
X151623000Y-70023750D01*
X151464250Y-69865000D01*
X150373690Y-69865000D01*
X150140301Y-69961673D01*
X150000000Y-70101975D01*
X149859699Y-69961673D01*
X149626310Y-69865000D01*
X148535750Y-69865000D01*
X148377000Y-70023750D01*
X148123000Y-70023750D01*
X147964250Y-69865000D01*
X146873690Y-69865000D01*
X146858173Y-69871427D01*
X146934838Y-69686799D01*
X146935162Y-69314833D01*
X146793117Y-68971057D01*
X146530327Y-68707808D01*
X146186799Y-68565162D01*
X145814833Y-68564838D01*
X145471057Y-68706883D01*
X145437882Y-68740000D01*
X141601563Y-68740000D01*
X141401890Y-68603569D01*
X141150000Y-68552560D01*
X139850000Y-68552560D01*
X139614683Y-68596838D01*
X139426539Y-68717905D01*
X139414090Y-68698559D01*
X139201890Y-68553569D01*
X138986740Y-68510000D01*
X145000000Y-68510000D01*
X145386510Y-68433118D01*
X145714178Y-68214178D01*
X149168356Y-64760000D01*
X149910638Y-64760000D01*
X149726904Y-64796547D01*
X148953154Y-65313550D01*
X148436151Y-66087300D01*
X148254604Y-67000000D01*
X148436151Y-67912700D01*
X148953154Y-68686450D01*
X149726904Y-69203453D01*
X150639604Y-69385000D01*
X157360396Y-69385000D01*
X158273096Y-69203453D01*
X159046846Y-68686450D01*
X159563849Y-67912700D01*
X159745396Y-67000000D01*
X159563849Y-66087300D01*
X159046846Y-65313550D01*
X158273096Y-64796547D01*
X158089362Y-64760000D01*
X158581644Y-64760000D01*
X159990000Y-66168356D01*
X159990000Y-66750000D01*
X160066882Y-67136510D01*
X160285822Y-67464178D01*
X161095822Y-68274178D01*
X161423490Y-68493118D01*
X161810000Y-68570000D01*
X162262721Y-68570000D01*
X162385910Y-68761441D01*
X162598110Y-68906431D01*
X162850000Y-68957440D01*
X165150000Y-68957440D01*
X165385317Y-68913162D01*
X165601441Y-68774090D01*
X165746431Y-68561890D01*
X165797440Y-68310000D01*
X165797440Y-66810000D01*
X165753162Y-66574683D01*
X165614090Y-66358559D01*
X165522231Y-66295794D01*
X165688327Y-66129699D01*
X165785000Y-65896310D01*
X165785000Y-65305750D01*
X165626250Y-65147000D01*
X164127000Y-65147000D01*
X164127000Y-65167000D01*
X163873000Y-65167000D01*
X163873000Y-65147000D01*
X162373750Y-65147000D01*
X162215000Y-65305750D01*
X162215000Y-65896310D01*
X162311673Y-66129699D01*
X162477249Y-66295274D01*
X162398559Y-66345910D01*
X162259110Y-66550000D01*
X162228356Y-66550000D01*
X162010000Y-66331644D01*
X162010000Y-65750000D01*
X161933118Y-65363490D01*
X161714178Y-65035822D01*
X160168356Y-63490000D01*
X162262721Y-63490000D01*
X162385910Y-63681441D01*
G36*
X155189357Y-57870551D02*
X155250000Y-57895732D01*
X155250000Y-58810000D01*
X155311658Y-59119974D01*
X155436298Y-59306510D01*
X155487244Y-59382756D01*
X156617243Y-60512756D01*
X156672983Y-60550000D01*
X156880026Y-60688342D01*
X157190000Y-60750000D01*
X162213850Y-60750000D01*
X162246838Y-60925317D01*
X162385910Y-61141441D01*
X162485860Y-61209734D01*
X162398559Y-61265910D01*
X162259110Y-61470000D01*
X149270000Y-61470000D01*
X148883490Y-61546882D01*
X148555822Y-61765822D01*
X148535822Y-61785822D01*
X148316882Y-62113490D01*
X148240000Y-62500000D01*
X148310125Y-62852539D01*
X148035822Y-63035822D01*
X144581644Y-66490000D01*
X141758618Y-66490000D01*
X141785000Y-66426309D01*
X141785000Y-66235750D01*
X141626250Y-66077000D01*
X140627000Y-66077000D01*
X140627000Y-66097000D01*
X140373000Y-66097000D01*
X140373000Y-66077000D01*
X138627000Y-66077000D01*
X138627000Y-66097000D01*
X138373000Y-66097000D01*
X138373000Y-66077000D01*
X137573750Y-66077000D01*
X137415000Y-66235750D01*
X137415000Y-66476310D01*
X137420671Y-66490000D01*
X136918356Y-66490000D01*
X136475796Y-66047440D01*
X136950000Y-66047440D01*
X137185317Y-66003162D01*
X137401441Y-65864090D01*
X137488064Y-65737314D01*
X137573750Y-65823000D01*
X138373000Y-65823000D01*
X138373000Y-65803000D01*
X138627000Y-65803000D01*
X138627000Y-65823000D01*
X140373000Y-65823000D01*
X140373000Y-65803000D01*
X140627000Y-65803000D01*
X140627000Y-65823000D01*
X141626250Y-65823000D01*
X141785000Y-65664250D01*
X141785000Y-65473691D01*
X141688327Y-65240302D01*
X141509699Y-65061673D01*
X141373713Y-65005346D01*
X141385317Y-65003162D01*
X141601441Y-64864090D01*
X141604236Y-64860000D01*
X144200000Y-64860000D01*
X144509974Y-64798342D01*
X144772756Y-64622756D01*
X151294654Y-58100859D01*
X151848371Y-57872068D01*
X152250323Y-57470818D01*
X152649357Y-57870551D01*
X153213330Y-58104733D01*
X153823991Y-58105265D01*
X154388371Y-57872068D01*
X154790323Y-57470818D01*
X155189357Y-57870551D01*
X155189357Y-57870551D01*
G37*
X155189357Y-57870551D02*
X155250000Y-57895732D01*
X155250000Y-58810000D01*
X155311658Y-59119974D01*
X155436298Y-59306510D01*
X155487244Y-59382756D01*
X156617243Y-60512756D01*
X156672983Y-60550000D01*
X156880026Y-60688342D01*
X157190000Y-60750000D01*
X162213850Y-60750000D01*
X162246838Y-60925317D01*
X162385910Y-61141441D01*
X162485860Y-61209734D01*
X162398559Y-61265910D01*
X162259110Y-61470000D01*
X149270000Y-61470000D01*
X148883490Y-61546882D01*
X148555822Y-61765822D01*
X148535822Y-61785822D01*
X148316882Y-62113490D01*
X148240000Y-62500000D01*
X148310125Y-62852539D01*
X148035822Y-63035822D01*
X144581644Y-66490000D01*
X141758618Y-66490000D01*
X141785000Y-66426309D01*
X141785000Y-66235750D01*
X141626250Y-66077000D01*
X140627000Y-66077000D01*
X140627000Y-66097000D01*
X140373000Y-66097000D01*
X140373000Y-66077000D01*
X138627000Y-66077000D01*
X138627000Y-66097000D01*
X138373000Y-66097000D01*
X138373000Y-66077000D01*
X137573750Y-66077000D01*
X137415000Y-66235750D01*
X137415000Y-66476310D01*
X137420671Y-66490000D01*
X136918356Y-66490000D01*
X136475796Y-66047440D01*
X136950000Y-66047440D01*
X137185317Y-66003162D01*
X137401441Y-65864090D01*
X137488064Y-65737314D01*
X137573750Y-65823000D01*
X138373000Y-65823000D01*
X138373000Y-65803000D01*
X138627000Y-65803000D01*
X138627000Y-65823000D01*
X140373000Y-65823000D01*
X140373000Y-65803000D01*
X140627000Y-65803000D01*
X140627000Y-65823000D01*
X141626250Y-65823000D01*
X141785000Y-65664250D01*
X141785000Y-65473691D01*
X141688327Y-65240302D01*
X141509699Y-65061673D01*
X141373713Y-65005346D01*
X141385317Y-65003162D01*
X141601441Y-64864090D01*
X141604236Y-64860000D01*
X144200000Y-64860000D01*
X144509974Y-64798342D01*
X144772756Y-64622756D01*
X151294654Y-58100859D01*
X151848371Y-57872068D01*
X152250323Y-57470818D01*
X152649357Y-57870551D01*
X153213330Y-58104733D01*
X153823991Y-58105265D01*
X154388371Y-57872068D01*
X154790323Y-57470818D01*
X155189357Y-57870551D01*
G36*
X143864488Y-63240000D02*
X141608025Y-63240000D01*
X141688327Y-63159698D01*
X141785000Y-62926309D01*
X141785000Y-62735750D01*
X141626250Y-62577000D01*
X140627000Y-62577000D01*
X140627000Y-62597000D01*
X140373000Y-62597000D01*
X140373000Y-62577000D01*
X138627000Y-62577000D01*
X138627000Y-62597000D01*
X138373000Y-62597000D01*
X138373000Y-62577000D01*
X137573750Y-62577000D01*
X137415000Y-62735750D01*
X137415000Y-62976310D01*
X137511673Y-63209699D01*
X137553634Y-63251660D01*
X137453569Y-63398110D01*
X137402560Y-63650000D01*
X137402560Y-64140681D01*
X137201890Y-64003569D01*
X136950000Y-63952560D01*
X136880916Y-63952560D01*
X136214178Y-63285822D01*
X135947440Y-63107594D01*
X135947440Y-63000000D01*
X135903162Y-62764683D01*
X135764090Y-62548559D01*
X135707657Y-62510000D01*
X135865116Y-62510000D01*
X136050000Y-62547440D01*
X136950000Y-62547440D01*
X137185317Y-62503162D01*
X137401441Y-62364090D01*
X137488064Y-62237314D01*
X137573750Y-62323000D01*
X138373000Y-62323000D01*
X138373000Y-62303000D01*
X138627000Y-62303000D01*
X138627000Y-62323000D01*
X140373000Y-62323000D01*
X140373000Y-62303000D01*
X140627000Y-62303000D01*
X140627000Y-62323000D01*
X141626250Y-62323000D01*
X141785000Y-62164250D01*
X141785000Y-61973691D01*
X141688327Y-61740302D01*
X141509699Y-61561673D01*
X141373713Y-61505346D01*
X141385317Y-61503162D01*
X141601441Y-61364090D01*
X141604236Y-61360000D01*
X145744488Y-61360000D01*
X143864488Y-63240000D01*
X143864488Y-63240000D01*
G37*
X143864488Y-63240000D02*
X141608025Y-63240000D01*
X141688327Y-63159698D01*
X141785000Y-62926309D01*
X141785000Y-62735750D01*
X141626250Y-62577000D01*
X140627000Y-62577000D01*
X140627000Y-62597000D01*
X140373000Y-62597000D01*
X140373000Y-62577000D01*
X138627000Y-62577000D01*
X138627000Y-62597000D01*
X138373000Y-62597000D01*
X138373000Y-62577000D01*
X137573750Y-62577000D01*
X137415000Y-62735750D01*
X137415000Y-62976310D01*
X137511673Y-63209699D01*
X137553634Y-63251660D01*
X137453569Y-63398110D01*
X137402560Y-63650000D01*
X137402560Y-64140681D01*
X137201890Y-64003569D01*
X136950000Y-63952560D01*
X136880916Y-63952560D01*
X136214178Y-63285822D01*
X135947440Y-63107594D01*
X135947440Y-63000000D01*
X135903162Y-62764683D01*
X135764090Y-62548559D01*
X135707657Y-62510000D01*
X135865116Y-62510000D01*
X136050000Y-62547440D01*
X136950000Y-62547440D01*
X137185317Y-62503162D01*
X137401441Y-62364090D01*
X137488064Y-62237314D01*
X137573750Y-62323000D01*
X138373000Y-62323000D01*
X138373000Y-62303000D01*
X138627000Y-62303000D01*
X138627000Y-62323000D01*
X140373000Y-62323000D01*
X140373000Y-62303000D01*
X140627000Y-62303000D01*
X140627000Y-62323000D01*
X141626250Y-62323000D01*
X141785000Y-62164250D01*
X141785000Y-61973691D01*
X141688327Y-61740302D01*
X141509699Y-61561673D01*
X141373713Y-61505346D01*
X141385317Y-61503162D01*
X141601441Y-61364090D01*
X141604236Y-61360000D01*
X145744488Y-61360000D01*
X143864488Y-63240000D01*
G36*
X142059449Y-55699357D02*
X141825267Y-56263330D01*
X141824735Y-56873991D01*
X142057932Y-57438371D01*
X142489357Y-57870551D01*
X143053330Y-58104733D01*
X143663991Y-58105265D01*
X144228371Y-57872068D01*
X144630323Y-57470818D01*
X145029357Y-57870551D01*
X145593330Y-58104733D01*
X146203991Y-58105265D01*
X146768371Y-57872068D01*
X147170323Y-57470818D01*
X147569357Y-57870551D01*
X147630000Y-57895732D01*
X147630000Y-58224487D01*
X146114488Y-59740000D01*
X141608025Y-59740000D01*
X141688327Y-59659698D01*
X141785000Y-59426309D01*
X141785000Y-59235750D01*
X141626250Y-59077000D01*
X140627000Y-59077000D01*
X140627000Y-59097000D01*
X140373000Y-59097000D01*
X140373000Y-59077000D01*
X138627000Y-59077000D01*
X138627000Y-59097000D01*
X138373000Y-59097000D01*
X138373000Y-59077000D01*
X137573750Y-59077000D01*
X137415000Y-59235750D01*
X137415000Y-59476310D01*
X137511673Y-59709699D01*
X137553634Y-59751660D01*
X137453569Y-59898110D01*
X137402560Y-60150000D01*
X137402560Y-60640681D01*
X137201890Y-60503569D01*
X136950000Y-60452560D01*
X136050000Y-60452560D01*
X135851024Y-60490000D01*
X135618390Y-60490000D01*
X135494029Y-60303880D01*
X135323595Y-60190000D01*
X135494029Y-60076120D01*
X135544066Y-60001235D01*
X135886510Y-59933118D01*
X136214178Y-59714178D01*
X136880916Y-59047440D01*
X136950000Y-59047440D01*
X137185317Y-59003162D01*
X137401441Y-58864090D01*
X137488064Y-58737314D01*
X137573750Y-58823000D01*
X138373000Y-58823000D01*
X138373000Y-58803000D01*
X138627000Y-58803000D01*
X138627000Y-58823000D01*
X140373000Y-58823000D01*
X140373000Y-58803000D01*
X140627000Y-58803000D01*
X140627000Y-58823000D01*
X141626250Y-58823000D01*
X141785000Y-58664250D01*
X141785000Y-58473691D01*
X141688327Y-58240302D01*
X141509699Y-58061673D01*
X141373713Y-58005346D01*
X141385317Y-58003162D01*
X141601441Y-57864090D01*
X141746431Y-57651890D01*
X141797440Y-57400000D01*
X141797440Y-56700000D01*
X141753162Y-56464683D01*
X141614090Y-56248559D01*
X141401890Y-56103569D01*
X141310000Y-56084961D01*
X141310000Y-55585512D01*
X141335513Y-55560000D01*
X142199050Y-55560000D01*
X142059449Y-55699357D01*
X142059449Y-55699357D01*
G37*
X142059449Y-55699357D02*
X141825267Y-56263330D01*
X141824735Y-56873991D01*
X142057932Y-57438371D01*
X142489357Y-57870551D01*
X143053330Y-58104733D01*
X143663991Y-58105265D01*
X144228371Y-57872068D01*
X144630323Y-57470818D01*
X145029357Y-57870551D01*
X145593330Y-58104733D01*
X146203991Y-58105265D01*
X146768371Y-57872068D01*
X147170323Y-57470818D01*
X147569357Y-57870551D01*
X147630000Y-57895732D01*
X147630000Y-58224487D01*
X146114488Y-59740000D01*
X141608025Y-59740000D01*
X141688327Y-59659698D01*
X141785000Y-59426309D01*
X141785000Y-59235750D01*
X141626250Y-59077000D01*
X140627000Y-59077000D01*
X140627000Y-59097000D01*
X140373000Y-59097000D01*
X140373000Y-59077000D01*
X138627000Y-59077000D01*
X138627000Y-59097000D01*
X138373000Y-59097000D01*
X138373000Y-59077000D01*
X137573750Y-59077000D01*
X137415000Y-59235750D01*
X137415000Y-59476310D01*
X137511673Y-59709699D01*
X137553634Y-59751660D01*
X137453569Y-59898110D01*
X137402560Y-60150000D01*
X137402560Y-60640681D01*
X137201890Y-60503569D01*
X136950000Y-60452560D01*
X136050000Y-60452560D01*
X135851024Y-60490000D01*
X135618390Y-60490000D01*
X135494029Y-60303880D01*
X135323595Y-60190000D01*
X135494029Y-60076120D01*
X135544066Y-60001235D01*
X135886510Y-59933118D01*
X136214178Y-59714178D01*
X136880916Y-59047440D01*
X136950000Y-59047440D01*
X137185317Y-59003162D01*
X137401441Y-58864090D01*
X137488064Y-58737314D01*
X137573750Y-58823000D01*
X138373000Y-58823000D01*
X138373000Y-58803000D01*
X138627000Y-58803000D01*
X138627000Y-58823000D01*
X140373000Y-58823000D01*
X140373000Y-58803000D01*
X140627000Y-58803000D01*
X140627000Y-58823000D01*
X141626250Y-58823000D01*
X141785000Y-58664250D01*
X141785000Y-58473691D01*
X141688327Y-58240302D01*
X141509699Y-58061673D01*
X141373713Y-58005346D01*
X141385317Y-58003162D01*
X141601441Y-57864090D01*
X141746431Y-57651890D01*
X141797440Y-57400000D01*
X141797440Y-56700000D01*
X141753162Y-56464683D01*
X141614090Y-56248559D01*
X141401890Y-56103569D01*
X141310000Y-56084961D01*
X141310000Y-55585512D01*
X141335513Y-55560000D01*
X142199050Y-55560000D01*
X142059449Y-55699357D01*
M02*
