G04 #@! TF.FileFunction,Legend,Top*
%FSLAX46Y46*%
G04 Gerber Fmt 4.6, Leading zero omitted, Abs format (unit mm)*
G04 Created by KiCad (PCBNEW 4.0.7) date 02/12/20 20:20:43*
%MOMM*%
%LPD*%
G01*
G04 APERTURE LIST*
%ADD10C,0.100000*%
%ADD11C,0.120000*%
%ADD12C,0.150000*%
G04 APERTURE END LIST*
D10*
D11*
X157273000Y-98143000D02*
X166073000Y-98143000D01*
X166073000Y-98143000D02*
X166073000Y-107343000D01*
X151373000Y-100843000D02*
X151373000Y-98143000D01*
X151373000Y-98143000D02*
X153273000Y-98143000D01*
X166073000Y-107343000D02*
X151373000Y-107343000D01*
X151373000Y-107343000D02*
X151373000Y-104743000D01*
X130640000Y-115630000D02*
X130640000Y-110430000D01*
X130640000Y-110430000D02*
X127980000Y-110430000D01*
X127980000Y-110430000D02*
X127980000Y-115630000D01*
X127980000Y-115630000D02*
X130640000Y-115630000D01*
X127980000Y-114680000D02*
X121980000Y-114680000D01*
X121980000Y-114680000D02*
X121980000Y-113920000D01*
X121980000Y-113920000D02*
X127980000Y-113920000D01*
X127980000Y-114620000D02*
X121980000Y-114620000D01*
X127980000Y-114500000D02*
X121980000Y-114500000D01*
X127980000Y-114380000D02*
X121980000Y-114380000D01*
X127980000Y-114260000D02*
X121980000Y-114260000D01*
X127980000Y-114140000D02*
X121980000Y-114140000D01*
X127980000Y-114020000D02*
X121980000Y-114020000D01*
X130970000Y-114680000D02*
X130640000Y-114680000D01*
X130970000Y-113920000D02*
X130640000Y-113920000D01*
X130640000Y-113030000D02*
X127980000Y-113030000D01*
X127980000Y-112140000D02*
X121980000Y-112140000D01*
X121980000Y-112140000D02*
X121980000Y-111380000D01*
X121980000Y-111380000D02*
X127980000Y-111380000D01*
X131037071Y-112140000D02*
X130640000Y-112140000D01*
X131037071Y-111380000D02*
X130640000Y-111380000D01*
X133350000Y-114300000D02*
X133350000Y-115570000D01*
X133350000Y-115570000D02*
X132080000Y-115570000D01*
X130640000Y-105470000D02*
X130640000Y-95190000D01*
X130640000Y-95190000D02*
X127980000Y-95190000D01*
X127980000Y-95190000D02*
X127980000Y-105470000D01*
X127980000Y-105470000D02*
X130640000Y-105470000D01*
X127980000Y-104520000D02*
X121980000Y-104520000D01*
X121980000Y-104520000D02*
X121980000Y-103760000D01*
X121980000Y-103760000D02*
X127980000Y-103760000D01*
X127980000Y-104460000D02*
X121980000Y-104460000D01*
X127980000Y-104340000D02*
X121980000Y-104340000D01*
X127980000Y-104220000D02*
X121980000Y-104220000D01*
X127980000Y-104100000D02*
X121980000Y-104100000D01*
X127980000Y-103980000D02*
X121980000Y-103980000D01*
X127980000Y-103860000D02*
X121980000Y-103860000D01*
X130970000Y-104520000D02*
X130640000Y-104520000D01*
X130970000Y-103760000D02*
X130640000Y-103760000D01*
X130640000Y-102870000D02*
X127980000Y-102870000D01*
X127980000Y-101980000D02*
X121980000Y-101980000D01*
X121980000Y-101980000D02*
X121980000Y-101220000D01*
X121980000Y-101220000D02*
X127980000Y-101220000D01*
X131037071Y-101980000D02*
X130640000Y-101980000D01*
X131037071Y-101220000D02*
X130640000Y-101220000D01*
X130640000Y-100330000D02*
X127980000Y-100330000D01*
X127980000Y-99440000D02*
X121980000Y-99440000D01*
X121980000Y-99440000D02*
X121980000Y-98680000D01*
X121980000Y-98680000D02*
X127980000Y-98680000D01*
X131037071Y-99440000D02*
X130640000Y-99440000D01*
X131037071Y-98680000D02*
X130640000Y-98680000D01*
X130640000Y-97790000D02*
X127980000Y-97790000D01*
X127980000Y-96900000D02*
X121980000Y-96900000D01*
X121980000Y-96900000D02*
X121980000Y-96140000D01*
X121980000Y-96140000D02*
X127980000Y-96140000D01*
X131037071Y-96900000D02*
X130640000Y-96900000D01*
X131037071Y-96140000D02*
X130640000Y-96140000D01*
X133350000Y-104140000D02*
X133350000Y-105410000D01*
X133350000Y-105410000D02*
X132080000Y-105410000D01*
X136400000Y-100020000D02*
X136400000Y-100950000D01*
X136400000Y-103180000D02*
X136400000Y-102250000D01*
X136400000Y-103180000D02*
X138560000Y-103180000D01*
X136400000Y-100020000D02*
X137860000Y-100020000D01*
X136400000Y-95702000D02*
X136400000Y-96632000D01*
X136400000Y-98862000D02*
X136400000Y-97932000D01*
X136400000Y-98862000D02*
X138560000Y-98862000D01*
X136400000Y-95702000D02*
X137860000Y-95702000D01*
X136400000Y-104338000D02*
X136400000Y-105268000D01*
X136400000Y-107498000D02*
X136400000Y-106568000D01*
X136400000Y-107498000D02*
X138560000Y-107498000D01*
X136400000Y-104338000D02*
X137860000Y-104338000D01*
X136273000Y-109545000D02*
X136273000Y-110475000D01*
X136273000Y-112705000D02*
X136273000Y-111775000D01*
X136273000Y-112705000D02*
X138433000Y-112705000D01*
X136273000Y-109545000D02*
X137733000Y-109545000D01*
X141596000Y-101000000D02*
X141596000Y-102200000D01*
X139836000Y-102200000D02*
X139836000Y-101000000D01*
X141596000Y-96682000D02*
X141596000Y-97882000D01*
X139836000Y-97882000D02*
X139836000Y-96682000D01*
X141596000Y-105318000D02*
X141596000Y-106518000D01*
X139836000Y-106518000D02*
X139836000Y-105318000D01*
X141596000Y-110525000D02*
X141596000Y-111725000D01*
X139836000Y-111725000D02*
X139836000Y-110525000D01*
D12*
X130201100Y-118333600D02*
X163281100Y-118333600D01*
X165281100Y-116333600D02*
X165281100Y-93673600D01*
X163281100Y-91673600D02*
X137201100Y-91673600D01*
X130201100Y-93823600D02*
X130201100Y-101683600D01*
X130201100Y-101683600D02*
X131201100Y-101683600D01*
X131201100Y-101683600D02*
X131201100Y-109903600D01*
X131201100Y-109903600D02*
X130201100Y-109903600D01*
X130201100Y-109903600D02*
X130201100Y-118333599D01*
X165281100Y-93673600D02*
G75*
G03X163281100Y-91673600I-2000000J0D01*
G01*
X163281100Y-118333600D02*
G75*
G03X165281100Y-116333600I0J2000000D01*
G01*
X130201100Y-93823600D02*
X136201100Y-93823600D01*
X136201100Y-93823600D02*
G75*
G03X137201100Y-92823600I0J1000000D01*
G01*
X137201100Y-92833600D02*
X137201100Y-91673600D01*
X137201100Y-91673600D02*
X137201100Y-91673600D01*
D11*
X154602000Y-109160000D02*
X154602000Y-114360000D01*
X154602000Y-114360000D02*
X157262000Y-114360000D01*
X157262000Y-114360000D02*
X157262000Y-109160000D01*
X157262000Y-109160000D02*
X154602000Y-109160000D01*
X157262000Y-110110000D02*
X163262000Y-110110000D01*
X163262000Y-110110000D02*
X163262000Y-110870000D01*
X163262000Y-110870000D02*
X157262000Y-110870000D01*
X157262000Y-110170000D02*
X163262000Y-110170000D01*
X157262000Y-110290000D02*
X163262000Y-110290000D01*
X157262000Y-110410000D02*
X163262000Y-110410000D01*
X157262000Y-110530000D02*
X163262000Y-110530000D01*
X157262000Y-110650000D02*
X163262000Y-110650000D01*
X157262000Y-110770000D02*
X163262000Y-110770000D01*
X154272000Y-110110000D02*
X154602000Y-110110000D01*
X154272000Y-110870000D02*
X154602000Y-110870000D01*
X154602000Y-111760000D02*
X157262000Y-111760000D01*
X157262000Y-112650000D02*
X163262000Y-112650000D01*
X163262000Y-112650000D02*
X163262000Y-113410000D01*
X163262000Y-113410000D02*
X157262000Y-113410000D01*
X154204929Y-112650000D02*
X154602000Y-112650000D01*
X154204929Y-113410000D02*
X154602000Y-113410000D01*
X151892000Y-110490000D02*
X151892000Y-109220000D01*
X151892000Y-109220000D02*
X153162000Y-109220000D01*
D12*
X160389667Y-96445381D02*
X160389667Y-97159667D01*
X160342047Y-97302524D01*
X160246809Y-97397762D01*
X160103952Y-97445381D01*
X160008714Y-97445381D01*
X161389667Y-97445381D02*
X160818238Y-97445381D01*
X161103952Y-97445381D02*
X161103952Y-96445381D01*
X161008714Y-96588238D01*
X160913476Y-96683476D01*
X160818238Y-96731095D01*
X127361667Y-116022381D02*
X127361667Y-116736667D01*
X127314047Y-116879524D01*
X127218809Y-116974762D01*
X127075952Y-117022381D01*
X126980714Y-117022381D01*
X127790238Y-116117619D02*
X127837857Y-116070000D01*
X127933095Y-116022381D01*
X128171191Y-116022381D01*
X128266429Y-116070000D01*
X128314048Y-116117619D01*
X128361667Y-116212857D01*
X128361667Y-116308095D01*
X128314048Y-116450952D01*
X127742619Y-117022381D01*
X128361667Y-117022381D01*
X127361667Y-105862381D02*
X127361667Y-106576667D01*
X127314047Y-106719524D01*
X127218809Y-106814762D01*
X127075952Y-106862381D01*
X126980714Y-106862381D01*
X127742619Y-105862381D02*
X128361667Y-105862381D01*
X128028333Y-106243333D01*
X128171191Y-106243333D01*
X128266429Y-106290952D01*
X128314048Y-106338571D01*
X128361667Y-106433810D01*
X128361667Y-106671905D01*
X128314048Y-106767143D01*
X128266429Y-106814762D01*
X128171191Y-106862381D01*
X127885476Y-106862381D01*
X127790238Y-106814762D01*
X127742619Y-106767143D01*
X137064762Y-104647619D02*
X136969524Y-104600000D01*
X136874286Y-104504762D01*
X136731429Y-104361905D01*
X136636190Y-104314286D01*
X136540952Y-104314286D01*
X136588571Y-104552381D02*
X136493333Y-104504762D01*
X136398095Y-104409524D01*
X136350476Y-104219048D01*
X136350476Y-103885714D01*
X136398095Y-103695238D01*
X136493333Y-103600000D01*
X136588571Y-103552381D01*
X136779048Y-103552381D01*
X136874286Y-103600000D01*
X136969524Y-103695238D01*
X137017143Y-103885714D01*
X137017143Y-104219048D01*
X136969524Y-104409524D01*
X136874286Y-104504762D01*
X136779048Y-104552381D01*
X136588571Y-104552381D01*
X137969524Y-104552381D02*
X137398095Y-104552381D01*
X137683809Y-104552381D02*
X137683809Y-103552381D01*
X137588571Y-103695238D01*
X137493333Y-103790476D01*
X137398095Y-103838095D01*
X137064762Y-100329619D02*
X136969524Y-100282000D01*
X136874286Y-100186762D01*
X136731429Y-100043905D01*
X136636190Y-99996286D01*
X136540952Y-99996286D01*
X136588571Y-100234381D02*
X136493333Y-100186762D01*
X136398095Y-100091524D01*
X136350476Y-99901048D01*
X136350476Y-99567714D01*
X136398095Y-99377238D01*
X136493333Y-99282000D01*
X136588571Y-99234381D01*
X136779048Y-99234381D01*
X136874286Y-99282000D01*
X136969524Y-99377238D01*
X137017143Y-99567714D01*
X137017143Y-99901048D01*
X136969524Y-100091524D01*
X136874286Y-100186762D01*
X136779048Y-100234381D01*
X136588571Y-100234381D01*
X137398095Y-99329619D02*
X137445714Y-99282000D01*
X137540952Y-99234381D01*
X137779048Y-99234381D01*
X137874286Y-99282000D01*
X137921905Y-99329619D01*
X137969524Y-99424857D01*
X137969524Y-99520095D01*
X137921905Y-99662952D01*
X137350476Y-100234381D01*
X137969524Y-100234381D01*
X137064762Y-108965619D02*
X136969524Y-108918000D01*
X136874286Y-108822762D01*
X136731429Y-108679905D01*
X136636190Y-108632286D01*
X136540952Y-108632286D01*
X136588571Y-108870381D02*
X136493333Y-108822762D01*
X136398095Y-108727524D01*
X136350476Y-108537048D01*
X136350476Y-108203714D01*
X136398095Y-108013238D01*
X136493333Y-107918000D01*
X136588571Y-107870381D01*
X136779048Y-107870381D01*
X136874286Y-107918000D01*
X136969524Y-108013238D01*
X137017143Y-108203714D01*
X137017143Y-108537048D01*
X136969524Y-108727524D01*
X136874286Y-108822762D01*
X136779048Y-108870381D01*
X136588571Y-108870381D01*
X137350476Y-107870381D02*
X137969524Y-107870381D01*
X137636190Y-108251333D01*
X137779048Y-108251333D01*
X137874286Y-108298952D01*
X137921905Y-108346571D01*
X137969524Y-108441810D01*
X137969524Y-108679905D01*
X137921905Y-108775143D01*
X137874286Y-108822762D01*
X137779048Y-108870381D01*
X137493333Y-108870381D01*
X137398095Y-108822762D01*
X137350476Y-108775143D01*
X136937762Y-114172619D02*
X136842524Y-114125000D01*
X136747286Y-114029762D01*
X136604429Y-113886905D01*
X136509190Y-113839286D01*
X136413952Y-113839286D01*
X136461571Y-114077381D02*
X136366333Y-114029762D01*
X136271095Y-113934524D01*
X136223476Y-113744048D01*
X136223476Y-113410714D01*
X136271095Y-113220238D01*
X136366333Y-113125000D01*
X136461571Y-113077381D01*
X136652048Y-113077381D01*
X136747286Y-113125000D01*
X136842524Y-113220238D01*
X136890143Y-113410714D01*
X136890143Y-113744048D01*
X136842524Y-113934524D01*
X136747286Y-114029762D01*
X136652048Y-114077381D01*
X136461571Y-114077381D01*
X137747286Y-113410714D02*
X137747286Y-114077381D01*
X137509190Y-113029762D02*
X137271095Y-113744048D01*
X137890143Y-113744048D01*
X139518381Y-101766666D02*
X139042190Y-102100000D01*
X139518381Y-102338095D02*
X138518381Y-102338095D01*
X138518381Y-101957142D01*
X138566000Y-101861904D01*
X138613619Y-101814285D01*
X138708857Y-101766666D01*
X138851714Y-101766666D01*
X138946952Y-101814285D01*
X138994571Y-101861904D01*
X139042190Y-101957142D01*
X139042190Y-102338095D01*
X139518381Y-100814285D02*
X139518381Y-101385714D01*
X139518381Y-101100000D02*
X138518381Y-101100000D01*
X138661238Y-101195238D01*
X138756476Y-101290476D01*
X138804095Y-101385714D01*
X139518381Y-97448666D02*
X139042190Y-97782000D01*
X139518381Y-98020095D02*
X138518381Y-98020095D01*
X138518381Y-97639142D01*
X138566000Y-97543904D01*
X138613619Y-97496285D01*
X138708857Y-97448666D01*
X138851714Y-97448666D01*
X138946952Y-97496285D01*
X138994571Y-97543904D01*
X139042190Y-97639142D01*
X139042190Y-98020095D01*
X138613619Y-97067714D02*
X138566000Y-97020095D01*
X138518381Y-96924857D01*
X138518381Y-96686761D01*
X138566000Y-96591523D01*
X138613619Y-96543904D01*
X138708857Y-96496285D01*
X138804095Y-96496285D01*
X138946952Y-96543904D01*
X139518381Y-97115333D01*
X139518381Y-96496285D01*
X139518381Y-106084666D02*
X139042190Y-106418000D01*
X139518381Y-106656095D02*
X138518381Y-106656095D01*
X138518381Y-106275142D01*
X138566000Y-106179904D01*
X138613619Y-106132285D01*
X138708857Y-106084666D01*
X138851714Y-106084666D01*
X138946952Y-106132285D01*
X138994571Y-106179904D01*
X139042190Y-106275142D01*
X139042190Y-106656095D01*
X138518381Y-105751333D02*
X138518381Y-105132285D01*
X138899333Y-105465619D01*
X138899333Y-105322761D01*
X138946952Y-105227523D01*
X138994571Y-105179904D01*
X139089810Y-105132285D01*
X139327905Y-105132285D01*
X139423143Y-105179904D01*
X139470762Y-105227523D01*
X139518381Y-105322761D01*
X139518381Y-105608476D01*
X139470762Y-105703714D01*
X139423143Y-105751333D01*
X139518381Y-111291666D02*
X139042190Y-111625000D01*
X139518381Y-111863095D02*
X138518381Y-111863095D01*
X138518381Y-111482142D01*
X138566000Y-111386904D01*
X138613619Y-111339285D01*
X138708857Y-111291666D01*
X138851714Y-111291666D01*
X138946952Y-111339285D01*
X138994571Y-111386904D01*
X139042190Y-111482142D01*
X139042190Y-111863095D01*
X138851714Y-110434523D02*
X139518381Y-110434523D01*
X138470762Y-110672619D02*
X139185048Y-110910714D01*
X139185048Y-110291666D01*
X128653481Y-105765505D02*
X129463005Y-105765505D01*
X129558243Y-105717886D01*
X129605862Y-105670267D01*
X129653481Y-105575029D01*
X129653481Y-105384552D01*
X129605862Y-105289314D01*
X129558243Y-105241695D01*
X129463005Y-105194076D01*
X128653481Y-105194076D01*
X129653481Y-104194076D02*
X129653481Y-104765505D01*
X129653481Y-104479791D02*
X128653481Y-104479791D01*
X128796338Y-104575029D01*
X128891576Y-104670267D01*
X128939195Y-104765505D01*
X157213667Y-107672381D02*
X157213667Y-108386667D01*
X157166047Y-108529524D01*
X157070809Y-108624762D01*
X156927952Y-108672381D01*
X156832714Y-108672381D01*
X158118429Y-108005714D02*
X158118429Y-108672381D01*
X157880333Y-107624762D02*
X157642238Y-108339048D01*
X158261286Y-108339048D01*
M02*
