M48
INCH,TZ
T1C0.012
T2C0.016
T3C0.039
T4C0.040
T5C0.047
T6C0.098
%
G90
G05
T1
X52618Y-24409
X52618Y-24744
X52618Y-25394
X52618Y-25728
X52953Y-28917
X52953Y-29252
X52953Y-29587
X52953Y-29921
X52953Y-30276
X52953Y-30610
X52953Y-30945
X52953Y-31280
X53189Y-22087
X53189Y-22421
X53189Y-23287
X53189Y-23622
X53189Y-26575
X53189Y-26909
X53189Y-27776
X53189Y-28110
X53287Y-28917
X53287Y-29252
X53287Y-29587
X53287Y-29921
X53287Y-30276
X53287Y-30610
X53287Y-30945
X53287Y-31280
X55453Y-21831
X55453Y-22165
X55787Y-21831
X55787Y-22165
X55984Y-26673
X56024Y-25453
X56063Y-24075
X56102Y-27756
X56122Y-24980
X56122Y-28248
X56142Y-23602
X56594Y-27776
X56614Y-24980
X56614Y-28287
X56654Y-23583
X56654Y-24094
X56673Y-25512
X57717Y-22992
X57933Y-22697
X58740Y-25453
X58740Y-25787
X58740Y-26122
X59075Y-25453
X59075Y-25787
X59075Y-26122
X61890Y-24665
X62224Y-24665
X63524Y-29016
X63524Y-29350
X63858Y-29016
X63858Y-29350
X64980Y-23425
X64980Y-23760
X65315Y-23425
X65315Y-23760
T2
X57579Y-29685
X57933Y-30335
X58799Y-28307
X59705Y-23543
X63012Y-25138
T4
X56441Y-22272
X56441Y-31272
X57441Y-22272
X57441Y-31272
X58441Y-22272
X58441Y-31272
X59441Y-22272
X59441Y-31272
X60441Y-22272
X60441Y-31272
X61441Y-22272
X61441Y-31272
X62441Y-22272
X62441Y-31272
X63441Y-22272
X63441Y-31272
T5
X54626Y-22197
X54626Y-23197
X54626Y-24197
X54626Y-25197
X54626Y-26756
X54626Y-27756
X54626Y-29339
X54626Y-30339
X54626Y-31339
T3
X66634Y-25000G85X66634Y-27559
G05
X66654Y-23917G85X66654Y-23130
G05
X68110Y-22343G85X68898Y-22343
G05
X68110Y-24705G85X68898Y-24705
G05
T6
X62402Y-27551G85X59843Y-27551
G05
X60531Y-25992G85X63091Y-25992
G05
T0
M30
