G04 #@! TF.FileFunction,Soldermask,Top*
%FSLAX46Y46*%
G04 Gerber Fmt 4.6, Leading zero omitted, Abs format (unit mm)*
G04 Created by KiCad (PCBNEW 4.0.7) date 02/12/20 22:04:27*
%MOMM*%
%LPD*%
G01*
G04 APERTURE LIST*
%ADD10C,0.100000*%
%ADD11R,2.700000X1.900000*%
%ADD12O,9.400000X2.900000*%
%ADD13R,3.900000X3.900000*%
%ADD14R,3.400000X3.900000*%
%ADD15R,3.000000X2.400000*%
%ADD16O,3.000000X2.400000*%
%ADD17C,2.200000*%
%ADD18R,1.700000X1.100000*%
G04 APERTURE END LIST*
D10*
D11*
X147000000Y-61480000D03*
X147000000Y-64020000D03*
X147000000Y-66560000D03*
D12*
X157000000Y-66020000D03*
D13*
X174000000Y-56750000D03*
X174000000Y-62750000D03*
D14*
X169300000Y-59750000D03*
D15*
X138750000Y-79600000D03*
D16*
X138750000Y-77060000D03*
X138750000Y-74520000D03*
D15*
X138750000Y-70500000D03*
D16*
X138750000Y-67960000D03*
D15*
X138750000Y-64000000D03*
D16*
X138750000Y-61460000D03*
X138750000Y-58920000D03*
X138750000Y-56380000D03*
D17*
X143360000Y-56570000D03*
X143360000Y-79430000D03*
X145900000Y-56570000D03*
X145900000Y-79430000D03*
X148440000Y-56570000D03*
X148440000Y-79430000D03*
X150980000Y-56570000D03*
X150980000Y-79430000D03*
X153520000Y-56570000D03*
X153520000Y-79430000D03*
X156060000Y-56570000D03*
X156060000Y-79430000D03*
X158600000Y-56570000D03*
X158600000Y-79430000D03*
X161140000Y-56570000D03*
X161140000Y-79430000D03*
D18*
X146500000Y-72050000D03*
X146500000Y-73950000D03*
X146500000Y-73000000D03*
D11*
X165250000Y-77060000D03*
X165250000Y-74520000D03*
X165250000Y-71980000D03*
X165250000Y-69440000D03*
D12*
X155250000Y-69980000D03*
M02*
