G04 #@! TF.FileFunction,Soldermask,Bot*
%FSLAX46Y46*%
G04 Gerber Fmt 4.6, Leading zero omitted, Abs format (unit mm)*
G04 Created by KiCad (PCBNEW 4.0.7) date 02/12/20 21:51:44*
%MOMM*%
%LPD*%
G01*
G04 APERTURE LIST*
%ADD10C,0.100000*%
%ADD11C,2.200000*%
%ADD12R,2.900000X1.400000*%
%ADD13R,3.000000X2.400000*%
%ADD14O,3.000000X2.400000*%
%ADD15R,3.900000X3.900000*%
%ADD16R,1.300000X1.200000*%
%ADD17R,1.700000X1.100000*%
%ADD18R,2.700000X1.900000*%
%ADD19O,10.400000X3.900000*%
G04 APERTURE END LIST*
D10*
D11*
X143360000Y-56570000D03*
X143360000Y-79430000D03*
X145900000Y-56570000D03*
X145900000Y-79430000D03*
X148440000Y-56570000D03*
X148440000Y-79430000D03*
X150980000Y-56570000D03*
X150980000Y-79430000D03*
X153520000Y-56570000D03*
X156060000Y-56570000D03*
X158600000Y-56570000D03*
X161140000Y-56570000D03*
D12*
X151750000Y-74000000D03*
X151750000Y-71000000D03*
X148250000Y-74000000D03*
X148250000Y-71000000D03*
D13*
X134000000Y-64000000D03*
D14*
X134000000Y-61460000D03*
X134000000Y-58920000D03*
X134000000Y-56380000D03*
D13*
X134000000Y-70500000D03*
D14*
X134000000Y-67960000D03*
D15*
X155500000Y-76500000D03*
X161500000Y-76500000D03*
X158500000Y-71800000D03*
D16*
X138500000Y-57050000D03*
X138500000Y-58950000D03*
X136500000Y-58000000D03*
X138500000Y-60550000D03*
X138500000Y-62450000D03*
X136500000Y-61500000D03*
X138500000Y-64050000D03*
X138500000Y-65950000D03*
X136500000Y-65000000D03*
X138500000Y-69550000D03*
X138500000Y-71450000D03*
X136500000Y-70500000D03*
D17*
X140500000Y-57050000D03*
X140500000Y-58950000D03*
X140500000Y-60550000D03*
X140500000Y-62450000D03*
X140500000Y-64050000D03*
X140500000Y-65950000D03*
X140500000Y-69550000D03*
X140500000Y-71450000D03*
D18*
X164000000Y-59940000D03*
X164000000Y-62480000D03*
X164000000Y-65020000D03*
X164000000Y-67560000D03*
D19*
X154000000Y-67000000D03*
D13*
X134000000Y-79500000D03*
D14*
X134000000Y-76960000D03*
X134000000Y-74420000D03*
M02*
