G04 #@! TF.FileFunction,Copper,L2,Bot,Signal*
%FSLAX46Y46*%
G04 Gerber Fmt 4.6, Leading zero omitted, Abs format (unit mm)*
G04 Created by KiCad (PCBNEW 4.0.7) date 02/12/20 20:20:43*
%MOMM*%
%LPD*%
G01*
G04 APERTURE LIST*
%ADD10C,0.100000*%
%ADD11R,3.500000X3.500000*%
%ADD12R,1.700000X1.700000*%
%ADD13O,1.700000X1.700000*%
%ADD14C,1.800000*%
%ADD15C,1.100000*%
%ADD16C,0.750000*%
%ADD17C,0.350000*%
G04 APERTURE END LIST*
D10*
D11*
X152273000Y-102743000D03*
X158273000Y-102743000D03*
X155273000Y-98043000D03*
D12*
X132080000Y-114300000D03*
D13*
X132080000Y-111760000D03*
D12*
X132080000Y-104140000D03*
D13*
X132080000Y-101600000D03*
X132080000Y-99060000D03*
X132080000Y-96520000D03*
D14*
X139611100Y-93573600D03*
X139611100Y-116433600D03*
X142151100Y-93573600D03*
X142151100Y-116433600D03*
X144691100Y-93573600D03*
X144691100Y-116433600D03*
X147231100Y-93573600D03*
X147231100Y-116433600D03*
X149771100Y-93573600D03*
X149771100Y-116433600D03*
X152311100Y-93573600D03*
X152311100Y-116433600D03*
X154851100Y-93573600D03*
X154851100Y-116433600D03*
X157391100Y-93573600D03*
X157391100Y-116433600D03*
D12*
X153162000Y-110490000D03*
D13*
X153162000Y-113030000D03*
D15*
X149352000Y-110490000D03*
X135763000Y-116205000D03*
X150241000Y-113157000D03*
X140081000Y-113919000D03*
D16*
X138176000Y-110490000D02*
X149352000Y-110490000D01*
X136398000Y-112268000D02*
X138176000Y-110490000D01*
X136398000Y-115570000D02*
X136398000Y-112268000D01*
X135763000Y-116205000D02*
X136398000Y-115570000D01*
D17*
X140843000Y-113157000D02*
X150241000Y-113157000D01*
X140081000Y-113919000D02*
X140843000Y-113157000D01*
M02*
