M48
INCH,TZ
T1C0.012
T2C0.016
T3C0.039
T4C0.040
T5C0.047
T6C0.138
%
G90
G05
T1
X53543Y-23701
X53661Y-24724
X53898Y-23386
X53976Y-23701
X53976Y-24724
X53976Y-25039
X54016Y-26063
X54646Y-21811
X55827Y-24252
X55866Y-24843
X55866Y-25669
X57559Y-29882
X57677Y-25197
X57717Y-23071
X59055Y-23819
T2
X57480Y-27362
X58760Y-24606
X63386Y-25886
T4
X56441Y-22272
X56441Y-31272
X57441Y-22272
X57441Y-31272
X58441Y-22272
X58441Y-31272
X59441Y-22272
X59441Y-31272
X60441Y-22272
X61441Y-22272
X62441Y-22272
X63441Y-22272
T5
X52756Y-22197
X52756Y-23197
X52756Y-24197
X52756Y-25197
X52756Y-26756
X52756Y-27756
X52756Y-29299
X52756Y-30299
X52756Y-31299
T3
X61220Y-30512G85X61220Y-29724
G05
X62795Y-28268G85X62008Y-28268
G05
X63583Y-30512G85X63583Y-29724
G05
T6
X61909Y-26378G85X59350Y-26378
G05
T0
M30
