G04 #@! TF.FileFunction,Soldermask,Top*
%FSLAX46Y46*%
G04 Gerber Fmt 4.6, Leading zero omitted, Abs format (unit mm)*
G04 Created by KiCad (PCBNEW 4.0.7) date 02/12/20 20:20:43*
%MOMM*%
%LPD*%
G01*
G04 APERTURE LIST*
%ADD10C,0.100000*%
%ADD11R,3.900000X3.900000*%
%ADD12R,2.100000X2.100000*%
%ADD13O,2.100000X2.100000*%
%ADD14R,1.300000X1.200000*%
%ADD15R,1.700000X1.100000*%
%ADD16C,2.200000*%
G04 APERTURE END LIST*
D10*
D11*
X152273000Y-102743000D03*
X158273000Y-102743000D03*
X155273000Y-98043000D03*
D12*
X132080000Y-114300000D03*
D13*
X132080000Y-111760000D03*
D12*
X132080000Y-104140000D03*
D13*
X132080000Y-101600000D03*
X132080000Y-99060000D03*
X132080000Y-96520000D03*
D14*
X138160000Y-102550000D03*
X138160000Y-100650000D03*
X136160000Y-101600000D03*
X138160000Y-98232000D03*
X138160000Y-96332000D03*
X136160000Y-97282000D03*
X138160000Y-106868000D03*
X138160000Y-104968000D03*
X136160000Y-105918000D03*
X138033000Y-112075000D03*
X138033000Y-110175000D03*
X136033000Y-111125000D03*
D15*
X140716000Y-102550000D03*
X140716000Y-100650000D03*
X140716000Y-98232000D03*
X140716000Y-96332000D03*
X140716000Y-106868000D03*
X140716000Y-104968000D03*
X140716000Y-112075000D03*
X140716000Y-110175000D03*
D16*
X139611100Y-93573600D03*
X139611100Y-116433600D03*
X142151100Y-93573600D03*
X142151100Y-116433600D03*
X144691100Y-93573600D03*
X144691100Y-116433600D03*
X147231100Y-93573600D03*
X147231100Y-116433600D03*
X149771100Y-93573600D03*
X149771100Y-116433600D03*
X152311100Y-93573600D03*
X152311100Y-116433600D03*
X154851100Y-93573600D03*
X154851100Y-116433600D03*
X157391100Y-93573600D03*
X157391100Y-116433600D03*
D12*
X153162000Y-110490000D03*
D13*
X153162000Y-113030000D03*
M02*
