G04 #@! TF.FileFunction,Copper,L1,Top,Signal*
%FSLAX46Y46*%
G04 Gerber Fmt 4.6, Leading zero omitted, Abs format (unit mm)*
G04 Created by KiCad (PCBNEW 4.0.7) date 02/12/20 22:04:26*
%MOMM*%
%LPD*%
G01*
G04 APERTURE LIST*
%ADD10C,0.100000*%
%ADD11C,0.600000*%
%ADD12R,2.300000X1.500000*%
%ADD13O,9.000000X2.500000*%
%ADD14R,3.500000X3.500000*%
%ADD15R,3.000000X3.500000*%
%ADD16R,2.600000X2.000000*%
%ADD17O,2.600000X2.000000*%
%ADD18C,1.800000*%
%ADD19O,1.000000X7.500000*%
%ADD20R,1.300000X0.700000*%
%ADD21C,0.750000*%
%ADD22C,0.350000*%
%ADD23C,0.254000*%
G04 APERTURE END LIST*
D10*
D11*
X135100000Y-67500000D03*
X135100000Y-71400000D03*
X135100000Y-68350000D03*
X135100000Y-70550000D03*
X135100000Y-59150000D03*
X135100000Y-56950000D03*
X135100000Y-60000000D03*
X135100000Y-56100000D03*
X165900000Y-59500000D03*
X165050000Y-60350000D03*
X165900000Y-60350000D03*
X165050000Y-59500000D03*
X143900000Y-59900000D03*
X142400000Y-61150000D03*
X143900000Y-61200000D03*
X142600000Y-59950000D03*
X142550000Y-63450000D03*
X143950000Y-64800000D03*
X142300000Y-64650000D03*
X143800000Y-63450000D03*
X142200000Y-67750000D03*
X143750000Y-70550000D03*
X142550000Y-71750000D03*
X143800000Y-71850000D03*
X142500000Y-70500000D03*
X161350000Y-73700000D03*
X162200000Y-74550000D03*
X161350000Y-74550000D03*
X162200000Y-73700000D03*
X141700000Y-55450000D03*
X140850000Y-56300000D03*
X141700000Y-56300000D03*
X140850000Y-55450000D03*
X146600000Y-58400000D03*
X147150000Y-57650000D03*
X135350000Y-76900000D03*
X134500000Y-77750000D03*
X135350000Y-77750000D03*
X134500000Y-76900000D03*
X134500000Y-78600000D03*
X135350000Y-79450000D03*
X134500000Y-79450000D03*
X135350000Y-78600000D03*
X135350000Y-75150000D03*
X134500000Y-76000000D03*
X135350000Y-76000000D03*
X134500000Y-75150000D03*
X134500000Y-73450000D03*
X135350000Y-74300000D03*
X134500000Y-74300000D03*
X135350000Y-73450000D03*
X133650000Y-62000000D03*
X133650000Y-65350000D03*
X133650000Y-62850000D03*
X133650000Y-64500000D03*
D12*
X147000000Y-61480000D03*
X147000000Y-64020000D03*
X147000000Y-66560000D03*
D13*
X157000000Y-66020000D03*
D11*
X157200000Y-62650000D03*
X158050000Y-62650000D03*
X150050000Y-64650000D03*
X149200000Y-64650000D03*
X149200000Y-65500000D03*
X150050000Y-66350000D03*
X149200000Y-66350000D03*
X150050000Y-65500000D03*
D14*
X174000000Y-56750000D03*
X174000000Y-62750000D03*
D15*
X169300000Y-59750000D03*
D16*
X138750000Y-79600000D03*
D17*
X138750000Y-77060000D03*
X138750000Y-74520000D03*
D16*
X138750000Y-70500000D03*
D17*
X138750000Y-67960000D03*
D16*
X138750000Y-64000000D03*
D17*
X138750000Y-61460000D03*
X138750000Y-58920000D03*
X138750000Y-56380000D03*
D18*
X143360000Y-56570000D03*
X143360000Y-79430000D03*
X145900000Y-56570000D03*
X145900000Y-79430000D03*
X148440000Y-56570000D03*
X148440000Y-79430000D03*
X150980000Y-56570000D03*
X150980000Y-79430000D03*
X153520000Y-56570000D03*
X153520000Y-79430000D03*
X156060000Y-56570000D03*
X156060000Y-79430000D03*
X158600000Y-56570000D03*
X158600000Y-79430000D03*
X161140000Y-56570000D03*
X161140000Y-79430000D03*
D19*
X169250000Y-66750000D03*
D20*
X146500000Y-72050000D03*
X146500000Y-73950000D03*
X146500000Y-73000000D03*
D12*
X165250000Y-77060000D03*
X165250000Y-74520000D03*
X165250000Y-71980000D03*
X165250000Y-69440000D03*
D13*
X155250000Y-69980000D03*
D11*
X160050000Y-63850000D03*
X147150000Y-77050000D03*
X146250000Y-75400000D03*
X149350000Y-71900000D03*
X151650000Y-59800000D03*
D21*
X168000000Y-72750000D02*
X168000000Y-63900000D01*
X165950000Y-61850000D02*
X160650000Y-61850000D01*
X168000000Y-63900000D02*
X165950000Y-61850000D01*
X138750000Y-67960000D02*
X140410000Y-67960000D01*
X152850000Y-63800000D02*
X158700000Y-63800000D01*
X151650000Y-65000000D02*
X152850000Y-63800000D01*
X151650000Y-67350000D02*
X151650000Y-65000000D01*
X150050000Y-68950000D02*
X151650000Y-67350000D01*
X141400000Y-68950000D02*
X150050000Y-68950000D01*
X140410000Y-67960000D02*
X141400000Y-68950000D01*
X149050000Y-61500000D02*
X149050000Y-61480000D01*
X149050000Y-61480000D02*
X149050000Y-61500000D01*
X149050000Y-61500000D02*
X149050000Y-61480000D01*
X158700000Y-63800000D02*
X160000000Y-63800000D01*
X160000000Y-63800000D02*
X160050000Y-63850000D01*
X158700000Y-63800000D02*
X160650000Y-61850000D01*
X160650000Y-61850000D02*
X161020000Y-61480000D01*
X174000000Y-56750000D02*
X170500000Y-56750000D01*
X161020000Y-61480000D02*
X149050000Y-61480000D01*
X149050000Y-61480000D02*
X147000000Y-61480000D01*
X165500000Y-57000000D02*
X161020000Y-61480000D01*
X170250000Y-57000000D02*
X165500000Y-57000000D01*
X170500000Y-56750000D02*
X170250000Y-57000000D01*
X174000000Y-56750000D02*
X177000000Y-56750000D01*
X167730000Y-74520000D02*
X165250000Y-74520000D01*
X168000000Y-74250000D02*
X167730000Y-74520000D01*
X168000000Y-72750000D02*
X168000000Y-74250000D01*
X169250000Y-71500000D02*
X168000000Y-72750000D01*
X175750000Y-71500000D02*
X169250000Y-71500000D01*
X178000000Y-69250000D02*
X175750000Y-71500000D01*
X178000000Y-57750000D02*
X178000000Y-69250000D01*
X177000000Y-56750000D02*
X178000000Y-57750000D01*
X138750000Y-56380000D02*
X139380000Y-56380000D01*
X139380000Y-56380000D02*
X141000000Y-58000000D01*
X141000000Y-58000000D02*
X141000000Y-65750000D01*
X141000000Y-65750000D02*
X141810000Y-66560000D01*
X141810000Y-66560000D02*
X147000000Y-66560000D01*
D22*
X158600000Y-77850000D02*
X158600000Y-79430000D01*
X157800000Y-77050000D02*
X158600000Y-77850000D01*
X156350000Y-77050000D02*
X157800000Y-77050000D01*
X147150000Y-77050000D02*
X156350000Y-77050000D01*
X161140000Y-78490000D02*
X161140000Y-79430000D01*
X158050000Y-75400000D02*
X161140000Y-78490000D01*
X146250000Y-75400000D02*
X158050000Y-75400000D01*
X143360000Y-56570000D02*
X143360000Y-58010000D01*
X149200000Y-72050000D02*
X146500000Y-72050000D01*
X149350000Y-71900000D02*
X149200000Y-72050000D01*
X151050000Y-59200000D02*
X151650000Y-59800000D01*
X144550000Y-59200000D02*
X151050000Y-59200000D01*
X143360000Y-58010000D02*
X144550000Y-59200000D01*
X146500000Y-73950000D02*
X144550000Y-73950000D01*
X143360000Y-75140000D02*
X143360000Y-79430000D01*
X144550000Y-73950000D02*
X143360000Y-75140000D01*
X146500000Y-73000000D02*
X159000000Y-73000000D01*
X162560000Y-69440000D02*
X165250000Y-69440000D01*
X159000000Y-73000000D02*
X162560000Y-69440000D01*
D23*
G36*
X137370790Y-55335603D02*
X137050617Y-55814777D01*
X136938187Y-56380000D01*
X137050617Y-56945223D01*
X137370790Y-57424397D01*
X137708430Y-57650000D01*
X137370790Y-57875603D01*
X137050617Y-58354777D01*
X136938187Y-58920000D01*
X137050617Y-59485223D01*
X137370790Y-59964397D01*
X137708430Y-60190000D01*
X137370790Y-60415603D01*
X137050617Y-60894777D01*
X136938187Y-61460000D01*
X137050617Y-62025223D01*
X137370790Y-62504397D01*
X137399007Y-62523251D01*
X137273235Y-62546917D01*
X137110887Y-62651385D01*
X137001973Y-62810785D01*
X136963656Y-63000000D01*
X136963656Y-65000000D01*
X136996917Y-65176765D01*
X137101385Y-65339113D01*
X137260785Y-65448027D01*
X137450000Y-65486344D01*
X140050000Y-65486344D01*
X140148000Y-65467904D01*
X140148000Y-65750000D01*
X140212855Y-66076046D01*
X140397545Y-66352455D01*
X141207545Y-67162455D01*
X141483954Y-67347145D01*
X141810000Y-67412000D01*
X145382849Y-67412000D01*
X145396917Y-67486765D01*
X145501385Y-67649113D01*
X145660785Y-67758027D01*
X145850000Y-67796344D01*
X148150000Y-67796344D01*
X148326765Y-67763083D01*
X148489113Y-67658615D01*
X148598027Y-67499215D01*
X148636344Y-67310000D01*
X148636344Y-65810000D01*
X148603083Y-65633235D01*
X148498615Y-65470887D01*
X148354678Y-65372538D01*
X148509698Y-65308327D01*
X148688327Y-65129699D01*
X148785000Y-64896310D01*
X148785000Y-64553750D01*
X148626250Y-64395000D01*
X147575000Y-64395000D01*
X147575000Y-64663000D01*
X146425000Y-64663000D01*
X146425000Y-64395000D01*
X145373750Y-64395000D01*
X145215000Y-64553750D01*
X145215000Y-64896310D01*
X145311673Y-65129699D01*
X145490302Y-65308327D01*
X145647534Y-65373455D01*
X145510887Y-65461385D01*
X145401973Y-65620785D01*
X145384312Y-65708000D01*
X142162910Y-65708000D01*
X141852000Y-65397090D01*
X141852000Y-58000000D01*
X141787145Y-57673954D01*
X141602455Y-57397545D01*
X141047611Y-56842701D01*
X141982762Y-56842701D01*
X142191956Y-57348989D01*
X142578974Y-57736683D01*
X142708000Y-57790259D01*
X142708000Y-58009995D01*
X142707999Y-58010000D01*
X142749396Y-58218113D01*
X142757631Y-58259510D01*
X142802089Y-58326046D01*
X142898966Y-58471034D01*
X144088966Y-59661034D01*
X144300490Y-59802369D01*
X144550000Y-59852000D01*
X150779932Y-59852000D01*
X150872874Y-59944942D01*
X150872866Y-59953877D01*
X150990908Y-60239560D01*
X151209290Y-60458324D01*
X151494767Y-60576865D01*
X151803877Y-60577134D01*
X152089560Y-60459092D01*
X152308324Y-60240710D01*
X152426865Y-59955233D01*
X152427134Y-59646123D01*
X152309092Y-59360440D01*
X152090710Y-59141676D01*
X151805233Y-59023135D01*
X151795194Y-59023126D01*
X151511034Y-58738966D01*
X151417943Y-58676765D01*
X151299510Y-58597631D01*
X151258113Y-58589396D01*
X151050000Y-58547999D01*
X151049995Y-58548000D01*
X144820068Y-58548000D01*
X144047793Y-57775725D01*
X144138989Y-57738044D01*
X144526683Y-57351026D01*
X144629995Y-57102224D01*
X144731956Y-57348989D01*
X145118974Y-57736683D01*
X145624896Y-57946760D01*
X146172701Y-57947238D01*
X146678989Y-57738044D01*
X147066683Y-57351026D01*
X147169995Y-57102224D01*
X147271956Y-57348989D01*
X147658974Y-57736683D01*
X148164896Y-57946760D01*
X148712701Y-57947238D01*
X149218989Y-57738044D01*
X149606683Y-57351026D01*
X149709995Y-57102224D01*
X149811956Y-57348989D01*
X150198974Y-57736683D01*
X150704896Y-57946760D01*
X151252701Y-57947238D01*
X151758989Y-57738044D01*
X152146683Y-57351026D01*
X152249995Y-57102224D01*
X152351956Y-57348989D01*
X152738974Y-57736683D01*
X153244896Y-57946760D01*
X153792701Y-57947238D01*
X154298989Y-57738044D01*
X154686683Y-57351026D01*
X154789995Y-57102224D01*
X154891956Y-57348989D01*
X155278974Y-57736683D01*
X155784896Y-57946760D01*
X156332701Y-57947238D01*
X156838989Y-57738044D01*
X157226683Y-57351026D01*
X157329995Y-57102224D01*
X157431956Y-57348989D01*
X157818974Y-57736683D01*
X158324896Y-57946760D01*
X158872701Y-57947238D01*
X159378989Y-57738044D01*
X159766683Y-57351026D01*
X159869995Y-57102224D01*
X159971956Y-57348989D01*
X160358974Y-57736683D01*
X160864896Y-57946760D01*
X161412701Y-57947238D01*
X161918989Y-57738044D01*
X162306683Y-57351026D01*
X162516760Y-56845104D01*
X162517238Y-56297299D01*
X162308044Y-55791011D01*
X161921026Y-55403317D01*
X161415104Y-55193240D01*
X160867299Y-55192762D01*
X160361011Y-55401956D01*
X159973317Y-55788974D01*
X159870005Y-56037776D01*
X159768044Y-55791011D01*
X159381026Y-55403317D01*
X158875104Y-55193240D01*
X158327299Y-55192762D01*
X157821011Y-55401956D01*
X157433317Y-55788974D01*
X157330005Y-56037776D01*
X157228044Y-55791011D01*
X156841026Y-55403317D01*
X156335104Y-55193240D01*
X155787299Y-55192762D01*
X155281011Y-55401956D01*
X154893317Y-55788974D01*
X154790005Y-56037776D01*
X154688044Y-55791011D01*
X154301026Y-55403317D01*
X153795104Y-55193240D01*
X153247299Y-55192762D01*
X152741011Y-55401956D01*
X152353317Y-55788974D01*
X152250005Y-56037776D01*
X152148044Y-55791011D01*
X151761026Y-55403317D01*
X151255104Y-55193240D01*
X150707299Y-55192762D01*
X150201011Y-55401956D01*
X149813317Y-55788974D01*
X149710005Y-56037776D01*
X149608044Y-55791011D01*
X149221026Y-55403317D01*
X148715104Y-55193240D01*
X148167299Y-55192762D01*
X147661011Y-55401956D01*
X147273317Y-55788974D01*
X147170005Y-56037776D01*
X147068044Y-55791011D01*
X146681026Y-55403317D01*
X146175104Y-55193240D01*
X145627299Y-55192762D01*
X145121011Y-55401956D01*
X144733317Y-55788974D01*
X144630005Y-56037776D01*
X144528044Y-55791011D01*
X144141026Y-55403317D01*
X143635104Y-55193240D01*
X143087299Y-55192762D01*
X142581011Y-55401956D01*
X142193317Y-55788974D01*
X141983240Y-56294896D01*
X141982762Y-56842701D01*
X141047611Y-56842701D01*
X140556078Y-56351168D01*
X140449383Y-55814777D01*
X140129210Y-55335603D01*
X139704767Y-55052000D01*
X167445631Y-55052000D01*
X167667305Y-55096093D01*
X167809137Y-55190863D01*
X167903907Y-55332696D01*
X167958606Y-55607689D01*
X168015696Y-55894702D01*
X168015696Y-55894705D01*
X168098119Y-56093689D01*
X168134409Y-56148000D01*
X165500000Y-56148000D01*
X165173954Y-56212855D01*
X164897545Y-56397545D01*
X160667090Y-60628000D01*
X148617151Y-60628000D01*
X148603083Y-60553235D01*
X148498615Y-60390887D01*
X148339215Y-60281973D01*
X148150000Y-60243656D01*
X145850000Y-60243656D01*
X145673235Y-60276917D01*
X145510887Y-60381385D01*
X145401973Y-60540785D01*
X145363656Y-60730000D01*
X145363656Y-62230000D01*
X145396917Y-62406765D01*
X145501385Y-62569113D01*
X145645322Y-62667462D01*
X145490302Y-62731673D01*
X145311673Y-62910301D01*
X145215000Y-63143690D01*
X145215000Y-63486250D01*
X145373750Y-63645000D01*
X146425000Y-63645000D01*
X146425000Y-63377000D01*
X147575000Y-63377000D01*
X147575000Y-63645000D01*
X148626250Y-63645000D01*
X148785000Y-63486250D01*
X148785000Y-63143690D01*
X148688327Y-62910301D01*
X148509698Y-62731673D01*
X148352466Y-62666545D01*
X148489113Y-62578615D01*
X148598027Y-62419215D01*
X148615688Y-62332000D01*
X148949454Y-62332000D01*
X149050000Y-62352000D01*
X149150546Y-62332000D01*
X158963090Y-62332000D01*
X158347090Y-62948000D01*
X152850000Y-62948000D01*
X152523954Y-63012855D01*
X152247545Y-63197545D01*
X151047545Y-64397545D01*
X150862855Y-64673954D01*
X150798000Y-65000000D01*
X150798000Y-66997090D01*
X149697090Y-68098000D01*
X141752910Y-68098000D01*
X141012455Y-67357545D01*
X140736046Y-67172855D01*
X140410000Y-67108000D01*
X140257765Y-67108000D01*
X140129210Y-66915603D01*
X139650036Y-66595430D01*
X139084813Y-66483000D01*
X138415187Y-66483000D01*
X137849964Y-66595430D01*
X137370790Y-66915603D01*
X137050617Y-67394777D01*
X136938187Y-67960000D01*
X137050617Y-68525223D01*
X137370790Y-69004397D01*
X137399007Y-69023251D01*
X137273235Y-69046917D01*
X137110887Y-69151385D01*
X137001973Y-69310785D01*
X136963656Y-69500000D01*
X136963656Y-71500000D01*
X136996917Y-71676765D01*
X137101385Y-71839113D01*
X137260785Y-71948027D01*
X137450000Y-71986344D01*
X140050000Y-71986344D01*
X140226765Y-71953083D01*
X140389113Y-71848615D01*
X140498027Y-71689215D01*
X140536344Y-71500000D01*
X140536344Y-69500000D01*
X140503083Y-69323235D01*
X140398615Y-69160887D01*
X140239215Y-69051973D01*
X140100153Y-69023812D01*
X140129210Y-69004397D01*
X140177386Y-68932296D01*
X140797545Y-69552455D01*
X141073953Y-69737145D01*
X141400000Y-69802000D01*
X150050000Y-69802000D01*
X150217530Y-69768676D01*
X150175495Y-69980000D01*
X150306955Y-70640894D01*
X150681322Y-71201173D01*
X151241601Y-71575540D01*
X151902495Y-71707000D01*
X158597505Y-71707000D01*
X159258399Y-71575540D01*
X159818678Y-71201173D01*
X160193045Y-70640894D01*
X160324505Y-69980000D01*
X160193045Y-69319106D01*
X159818678Y-68758827D01*
X159258399Y-68384460D01*
X158597505Y-68253000D01*
X151951910Y-68253000D01*
X152252455Y-67952455D01*
X152437145Y-67676046D01*
X152502000Y-67350000D01*
X152502000Y-67288399D01*
X152991601Y-67615540D01*
X153652495Y-67747000D01*
X160347505Y-67747000D01*
X161008399Y-67615540D01*
X161568678Y-67241173D01*
X161943045Y-66680894D01*
X162074505Y-66020000D01*
X161943045Y-65359106D01*
X161568678Y-64798827D01*
X161008399Y-64424460D01*
X160710724Y-64365249D01*
X160837145Y-64176046D01*
X160902000Y-63850000D01*
X160837145Y-63523954D01*
X160652455Y-63247545D01*
X160602455Y-63197545D01*
X160545453Y-63159457D01*
X161002910Y-62702000D01*
X165597090Y-62702000D01*
X167148000Y-64252910D01*
X167148000Y-73668000D01*
X166867151Y-73668000D01*
X166853083Y-73593235D01*
X166748615Y-73430887D01*
X166604678Y-73332538D01*
X166759698Y-73268327D01*
X166938327Y-73089699D01*
X167035000Y-72856310D01*
X167035000Y-72513750D01*
X166876250Y-72355000D01*
X165825000Y-72355000D01*
X165825000Y-72623000D01*
X164675000Y-72623000D01*
X164675000Y-72355000D01*
X163623750Y-72355000D01*
X163465000Y-72513750D01*
X163465000Y-72856310D01*
X163561673Y-73089699D01*
X163740302Y-73268327D01*
X163897534Y-73333455D01*
X163760887Y-73421385D01*
X163651973Y-73580785D01*
X163613656Y-73770000D01*
X163613656Y-75270000D01*
X163646917Y-75446765D01*
X163751385Y-75609113D01*
X163910785Y-75718027D01*
X164100000Y-75756344D01*
X166400000Y-75756344D01*
X166576765Y-75723083D01*
X166739113Y-75618615D01*
X166848027Y-75459215D01*
X166865688Y-75372000D01*
X167730000Y-75372000D01*
X168056046Y-75307145D01*
X168332455Y-75122455D01*
X168602455Y-74852455D01*
X168698000Y-74709461D01*
X168698000Y-79445631D01*
X168577787Y-80049987D01*
X168266245Y-80516244D01*
X167799988Y-80827787D01*
X167195635Y-80948000D01*
X146276314Y-80948000D01*
X146714148Y-80766643D01*
X146800554Y-80510159D01*
X145900000Y-79609605D01*
X144999446Y-80510159D01*
X145085852Y-80766643D01*
X145581552Y-80948000D01*
X140593172Y-80948000D01*
X140685000Y-80726309D01*
X140685000Y-79885750D01*
X140526250Y-79727000D01*
X138877000Y-79727000D01*
X138877000Y-79747000D01*
X138623000Y-79747000D01*
X138623000Y-79727000D01*
X136973750Y-79727000D01*
X136815000Y-79885750D01*
X136815000Y-80726309D01*
X136906828Y-80948000D01*
X133302000Y-80948000D01*
X133302000Y-79702701D01*
X141982762Y-79702701D01*
X142191956Y-80208989D01*
X142578974Y-80596683D01*
X143084896Y-80806760D01*
X143632701Y-80807238D01*
X144138989Y-80598044D01*
X144526683Y-80211026D01*
X144538174Y-80183352D01*
X144563357Y-80244148D01*
X144819841Y-80330554D01*
X145720395Y-79430000D01*
X144819841Y-78529446D01*
X144563357Y-78615852D01*
X144539951Y-78679828D01*
X144528044Y-78651011D01*
X144227400Y-78349841D01*
X144999446Y-78349841D01*
X145900000Y-79250395D01*
X146800554Y-78349841D01*
X146714148Y-78093357D01*
X146140664Y-77883542D01*
X145530540Y-77909161D01*
X145085852Y-78093357D01*
X144999446Y-78349841D01*
X144227400Y-78349841D01*
X144141026Y-78263317D01*
X144012000Y-78209741D01*
X144012000Y-75410068D01*
X144820068Y-74602000D01*
X145477503Y-74602000D01*
X145501385Y-74639113D01*
X145660785Y-74748027D01*
X145779272Y-74772021D01*
X145591676Y-74959290D01*
X145473135Y-75244767D01*
X145472866Y-75553877D01*
X145590908Y-75839560D01*
X145809290Y-76058324D01*
X146094767Y-76176865D01*
X146403877Y-76177134D01*
X146689560Y-76059092D01*
X146696664Y-76052000D01*
X157779932Y-76052000D01*
X160175288Y-78447356D01*
X159973317Y-78648974D01*
X159870005Y-78897776D01*
X159768044Y-78651011D01*
X159381026Y-78263317D01*
X159252000Y-78209741D01*
X159252000Y-77850005D01*
X159252001Y-77850000D01*
X159202370Y-77600491D01*
X159061034Y-77388966D01*
X158261034Y-76588966D01*
X158120069Y-76494777D01*
X158049510Y-76447631D01*
X158008113Y-76439396D01*
X157800000Y-76397999D01*
X157799995Y-76398000D01*
X147597023Y-76398000D01*
X147590710Y-76391676D01*
X147305233Y-76273135D01*
X146996123Y-76272866D01*
X146710440Y-76390908D01*
X146491676Y-76609290D01*
X146373135Y-76894767D01*
X146372866Y-77203877D01*
X146490908Y-77489560D01*
X146709290Y-77708324D01*
X146994767Y-77826865D01*
X147303877Y-77827134D01*
X147589560Y-77709092D01*
X147596664Y-77702000D01*
X157529932Y-77702000D01*
X157948000Y-78120068D01*
X157948000Y-78209485D01*
X157821011Y-78261956D01*
X157433317Y-78648974D01*
X157330005Y-78897776D01*
X157228044Y-78651011D01*
X156841026Y-78263317D01*
X156335104Y-78053240D01*
X155787299Y-78052762D01*
X155281011Y-78261956D01*
X154893317Y-78648974D01*
X154790005Y-78897776D01*
X154688044Y-78651011D01*
X154301026Y-78263317D01*
X153795104Y-78053240D01*
X153247299Y-78052762D01*
X152741011Y-78261956D01*
X152353317Y-78648974D01*
X152250005Y-78897776D01*
X152148044Y-78651011D01*
X151761026Y-78263317D01*
X151255104Y-78053240D01*
X150707299Y-78052762D01*
X150201011Y-78261956D01*
X149813317Y-78648974D01*
X149710005Y-78897776D01*
X149608044Y-78651011D01*
X149221026Y-78263317D01*
X148715104Y-78053240D01*
X148167299Y-78052762D01*
X147661011Y-78261956D01*
X147273317Y-78648974D01*
X147261826Y-78676648D01*
X147236643Y-78615852D01*
X146980159Y-78529446D01*
X146079605Y-79430000D01*
X146980159Y-80330554D01*
X147236643Y-80244148D01*
X147260049Y-80180172D01*
X147271956Y-80208989D01*
X147658974Y-80596683D01*
X148164896Y-80806760D01*
X148712701Y-80807238D01*
X149218989Y-80598044D01*
X149606683Y-80211026D01*
X149709995Y-79962224D01*
X149811956Y-80208989D01*
X150198974Y-80596683D01*
X150704896Y-80806760D01*
X151252701Y-80807238D01*
X151758989Y-80598044D01*
X152146683Y-80211026D01*
X152249995Y-79962224D01*
X152351956Y-80208989D01*
X152738974Y-80596683D01*
X153244896Y-80806760D01*
X153792701Y-80807238D01*
X154298989Y-80598044D01*
X154686683Y-80211026D01*
X154789995Y-79962224D01*
X154891956Y-80208989D01*
X155278974Y-80596683D01*
X155784896Y-80806760D01*
X156332701Y-80807238D01*
X156838989Y-80598044D01*
X157226683Y-80211026D01*
X157329995Y-79962224D01*
X157431956Y-80208989D01*
X157818974Y-80596683D01*
X158324896Y-80806760D01*
X158872701Y-80807238D01*
X159378989Y-80598044D01*
X159766683Y-80211026D01*
X159869995Y-79962224D01*
X159971956Y-80208989D01*
X160358974Y-80596683D01*
X160864896Y-80806760D01*
X161412701Y-80807238D01*
X161918989Y-80598044D01*
X162306683Y-80211026D01*
X162516760Y-79705104D01*
X162517238Y-79157299D01*
X162308044Y-78651011D01*
X161921026Y-78263317D01*
X161694876Y-78169411D01*
X161601034Y-78028966D01*
X159882068Y-76310000D01*
X163613656Y-76310000D01*
X163613656Y-77810000D01*
X163646917Y-77986765D01*
X163751385Y-78149113D01*
X163910785Y-78258027D01*
X164100000Y-78296344D01*
X166400000Y-78296344D01*
X166576765Y-78263083D01*
X166739113Y-78158615D01*
X166848027Y-77999215D01*
X166886344Y-77810000D01*
X166886344Y-76310000D01*
X166853083Y-76133235D01*
X166748615Y-75970887D01*
X166589215Y-75861973D01*
X166400000Y-75823656D01*
X164100000Y-75823656D01*
X163923235Y-75856917D01*
X163760887Y-75961385D01*
X163651973Y-76120785D01*
X163613656Y-76310000D01*
X159882068Y-76310000D01*
X158511034Y-74938966D01*
X158299510Y-74797631D01*
X158242767Y-74786344D01*
X158050000Y-74747999D01*
X158049995Y-74748000D01*
X147334664Y-74748000D01*
X147489113Y-74648615D01*
X147598027Y-74489215D01*
X147636344Y-74300000D01*
X147636344Y-73652000D01*
X158999995Y-73652000D01*
X159000000Y-73652001D01*
X159208113Y-73610604D01*
X159249510Y-73602369D01*
X159461034Y-73461034D01*
X162830067Y-70092000D01*
X163613656Y-70092000D01*
X163613656Y-70190000D01*
X163646917Y-70366765D01*
X163751385Y-70529113D01*
X163895322Y-70627462D01*
X163740302Y-70691673D01*
X163561673Y-70870301D01*
X163465000Y-71103690D01*
X163465000Y-71446250D01*
X163623750Y-71605000D01*
X164675000Y-71605000D01*
X164675000Y-71337000D01*
X165825000Y-71337000D01*
X165825000Y-71605000D01*
X166876250Y-71605000D01*
X167035000Y-71446250D01*
X167035000Y-71103690D01*
X166938327Y-70870301D01*
X166759698Y-70691673D01*
X166602466Y-70626545D01*
X166739113Y-70538615D01*
X166848027Y-70379215D01*
X166886344Y-70190000D01*
X166886344Y-68690000D01*
X166853083Y-68513235D01*
X166748615Y-68350887D01*
X166589215Y-68241973D01*
X166400000Y-68203656D01*
X164100000Y-68203656D01*
X163923235Y-68236917D01*
X163760887Y-68341385D01*
X163651973Y-68500785D01*
X163613656Y-68690000D01*
X163613656Y-68788000D01*
X162560000Y-68788000D01*
X162310490Y-68837631D01*
X162098966Y-68978966D01*
X162098964Y-68978969D01*
X158729932Y-72348000D01*
X150001021Y-72348000D01*
X150008324Y-72340710D01*
X150126865Y-72055233D01*
X150127134Y-71746123D01*
X150009092Y-71460440D01*
X149790710Y-71241676D01*
X149505233Y-71123135D01*
X149196123Y-71122866D01*
X148910440Y-71240908D01*
X148753073Y-71398000D01*
X147522497Y-71398000D01*
X147498615Y-71360887D01*
X147339215Y-71251973D01*
X147150000Y-71213656D01*
X145850000Y-71213656D01*
X145673235Y-71246917D01*
X145510887Y-71351385D01*
X145401973Y-71510785D01*
X145363656Y-71700000D01*
X145363656Y-72400000D01*
X145388040Y-72529588D01*
X145363656Y-72650000D01*
X145363656Y-73298000D01*
X144550000Y-73298000D01*
X144300490Y-73347631D01*
X144128044Y-73462855D01*
X144088966Y-73488966D01*
X142898966Y-74678966D01*
X142757631Y-74890490D01*
X142757631Y-74890491D01*
X142707999Y-75140000D01*
X142708000Y-75140005D01*
X142708000Y-78209485D01*
X142581011Y-78261956D01*
X142193317Y-78648974D01*
X141983240Y-79154896D01*
X141982762Y-79702701D01*
X133302000Y-79702701D01*
X133302000Y-78473691D01*
X136815000Y-78473691D01*
X136815000Y-79314250D01*
X136973750Y-79473000D01*
X138623000Y-79473000D01*
X138623000Y-79453000D01*
X138877000Y-79453000D01*
X138877000Y-79473000D01*
X140526250Y-79473000D01*
X140685000Y-79314250D01*
X140685000Y-78473691D01*
X140588327Y-78240302D01*
X140409699Y-78061673D01*
X140212371Y-77979937D01*
X140449383Y-77625223D01*
X140561813Y-77060000D01*
X140449383Y-76494777D01*
X140129210Y-76015603D01*
X139791570Y-75790000D01*
X140129210Y-75564397D01*
X140449383Y-75085223D01*
X140561813Y-74520000D01*
X140449383Y-73954777D01*
X140129210Y-73475603D01*
X139650036Y-73155430D01*
X139084813Y-73043000D01*
X138415187Y-73043000D01*
X137849964Y-73155430D01*
X137370790Y-73475603D01*
X137050617Y-73954777D01*
X136938187Y-74520000D01*
X137050617Y-75085223D01*
X137370790Y-75564397D01*
X137708430Y-75790000D01*
X137370790Y-76015603D01*
X137050617Y-76494777D01*
X136938187Y-77060000D01*
X137050617Y-77625223D01*
X137287629Y-77979937D01*
X137090301Y-78061673D01*
X136911673Y-78240302D01*
X136815000Y-78473691D01*
X133302000Y-78473691D01*
X133302000Y-55052000D01*
X137795233Y-55052000D01*
X137370790Y-55335603D01*
X137370790Y-55335603D01*
G37*
X137370790Y-55335603D02*
X137050617Y-55814777D01*
X136938187Y-56380000D01*
X137050617Y-56945223D01*
X137370790Y-57424397D01*
X137708430Y-57650000D01*
X137370790Y-57875603D01*
X137050617Y-58354777D01*
X136938187Y-58920000D01*
X137050617Y-59485223D01*
X137370790Y-59964397D01*
X137708430Y-60190000D01*
X137370790Y-60415603D01*
X137050617Y-60894777D01*
X136938187Y-61460000D01*
X137050617Y-62025223D01*
X137370790Y-62504397D01*
X137399007Y-62523251D01*
X137273235Y-62546917D01*
X137110887Y-62651385D01*
X137001973Y-62810785D01*
X136963656Y-63000000D01*
X136963656Y-65000000D01*
X136996917Y-65176765D01*
X137101385Y-65339113D01*
X137260785Y-65448027D01*
X137450000Y-65486344D01*
X140050000Y-65486344D01*
X140148000Y-65467904D01*
X140148000Y-65750000D01*
X140212855Y-66076046D01*
X140397545Y-66352455D01*
X141207545Y-67162455D01*
X141483954Y-67347145D01*
X141810000Y-67412000D01*
X145382849Y-67412000D01*
X145396917Y-67486765D01*
X145501385Y-67649113D01*
X145660785Y-67758027D01*
X145850000Y-67796344D01*
X148150000Y-67796344D01*
X148326765Y-67763083D01*
X148489113Y-67658615D01*
X148598027Y-67499215D01*
X148636344Y-67310000D01*
X148636344Y-65810000D01*
X148603083Y-65633235D01*
X148498615Y-65470887D01*
X148354678Y-65372538D01*
X148509698Y-65308327D01*
X148688327Y-65129699D01*
X148785000Y-64896310D01*
X148785000Y-64553750D01*
X148626250Y-64395000D01*
X147575000Y-64395000D01*
X147575000Y-64663000D01*
X146425000Y-64663000D01*
X146425000Y-64395000D01*
X145373750Y-64395000D01*
X145215000Y-64553750D01*
X145215000Y-64896310D01*
X145311673Y-65129699D01*
X145490302Y-65308327D01*
X145647534Y-65373455D01*
X145510887Y-65461385D01*
X145401973Y-65620785D01*
X145384312Y-65708000D01*
X142162910Y-65708000D01*
X141852000Y-65397090D01*
X141852000Y-58000000D01*
X141787145Y-57673954D01*
X141602455Y-57397545D01*
X141047611Y-56842701D01*
X141982762Y-56842701D01*
X142191956Y-57348989D01*
X142578974Y-57736683D01*
X142708000Y-57790259D01*
X142708000Y-58009995D01*
X142707999Y-58010000D01*
X142749396Y-58218113D01*
X142757631Y-58259510D01*
X142802089Y-58326046D01*
X142898966Y-58471034D01*
X144088966Y-59661034D01*
X144300490Y-59802369D01*
X144550000Y-59852000D01*
X150779932Y-59852000D01*
X150872874Y-59944942D01*
X150872866Y-59953877D01*
X150990908Y-60239560D01*
X151209290Y-60458324D01*
X151494767Y-60576865D01*
X151803877Y-60577134D01*
X152089560Y-60459092D01*
X152308324Y-60240710D01*
X152426865Y-59955233D01*
X152427134Y-59646123D01*
X152309092Y-59360440D01*
X152090710Y-59141676D01*
X151805233Y-59023135D01*
X151795194Y-59023126D01*
X151511034Y-58738966D01*
X151417943Y-58676765D01*
X151299510Y-58597631D01*
X151258113Y-58589396D01*
X151050000Y-58547999D01*
X151049995Y-58548000D01*
X144820068Y-58548000D01*
X144047793Y-57775725D01*
X144138989Y-57738044D01*
X144526683Y-57351026D01*
X144629995Y-57102224D01*
X144731956Y-57348989D01*
X145118974Y-57736683D01*
X145624896Y-57946760D01*
X146172701Y-57947238D01*
X146678989Y-57738044D01*
X147066683Y-57351026D01*
X147169995Y-57102224D01*
X147271956Y-57348989D01*
X147658974Y-57736683D01*
X148164896Y-57946760D01*
X148712701Y-57947238D01*
X149218989Y-57738044D01*
X149606683Y-57351026D01*
X149709995Y-57102224D01*
X149811956Y-57348989D01*
X150198974Y-57736683D01*
X150704896Y-57946760D01*
X151252701Y-57947238D01*
X151758989Y-57738044D01*
X152146683Y-57351026D01*
X152249995Y-57102224D01*
X152351956Y-57348989D01*
X152738974Y-57736683D01*
X153244896Y-57946760D01*
X153792701Y-57947238D01*
X154298989Y-57738044D01*
X154686683Y-57351026D01*
X154789995Y-57102224D01*
X154891956Y-57348989D01*
X155278974Y-57736683D01*
X155784896Y-57946760D01*
X156332701Y-57947238D01*
X156838989Y-57738044D01*
X157226683Y-57351026D01*
X157329995Y-57102224D01*
X157431956Y-57348989D01*
X157818974Y-57736683D01*
X158324896Y-57946760D01*
X158872701Y-57947238D01*
X159378989Y-57738044D01*
X159766683Y-57351026D01*
X159869995Y-57102224D01*
X159971956Y-57348989D01*
X160358974Y-57736683D01*
X160864896Y-57946760D01*
X161412701Y-57947238D01*
X161918989Y-57738044D01*
X162306683Y-57351026D01*
X162516760Y-56845104D01*
X162517238Y-56297299D01*
X162308044Y-55791011D01*
X161921026Y-55403317D01*
X161415104Y-55193240D01*
X160867299Y-55192762D01*
X160361011Y-55401956D01*
X159973317Y-55788974D01*
X159870005Y-56037776D01*
X159768044Y-55791011D01*
X159381026Y-55403317D01*
X158875104Y-55193240D01*
X158327299Y-55192762D01*
X157821011Y-55401956D01*
X157433317Y-55788974D01*
X157330005Y-56037776D01*
X157228044Y-55791011D01*
X156841026Y-55403317D01*
X156335104Y-55193240D01*
X155787299Y-55192762D01*
X155281011Y-55401956D01*
X154893317Y-55788974D01*
X154790005Y-56037776D01*
X154688044Y-55791011D01*
X154301026Y-55403317D01*
X153795104Y-55193240D01*
X153247299Y-55192762D01*
X152741011Y-55401956D01*
X152353317Y-55788974D01*
X152250005Y-56037776D01*
X152148044Y-55791011D01*
X151761026Y-55403317D01*
X151255104Y-55193240D01*
X150707299Y-55192762D01*
X150201011Y-55401956D01*
X149813317Y-55788974D01*
X149710005Y-56037776D01*
X149608044Y-55791011D01*
X149221026Y-55403317D01*
X148715104Y-55193240D01*
X148167299Y-55192762D01*
X147661011Y-55401956D01*
X147273317Y-55788974D01*
X147170005Y-56037776D01*
X147068044Y-55791011D01*
X146681026Y-55403317D01*
X146175104Y-55193240D01*
X145627299Y-55192762D01*
X145121011Y-55401956D01*
X144733317Y-55788974D01*
X144630005Y-56037776D01*
X144528044Y-55791011D01*
X144141026Y-55403317D01*
X143635104Y-55193240D01*
X143087299Y-55192762D01*
X142581011Y-55401956D01*
X142193317Y-55788974D01*
X141983240Y-56294896D01*
X141982762Y-56842701D01*
X141047611Y-56842701D01*
X140556078Y-56351168D01*
X140449383Y-55814777D01*
X140129210Y-55335603D01*
X139704767Y-55052000D01*
X167445631Y-55052000D01*
X167667305Y-55096093D01*
X167809137Y-55190863D01*
X167903907Y-55332696D01*
X167958606Y-55607689D01*
X168015696Y-55894702D01*
X168015696Y-55894705D01*
X168098119Y-56093689D01*
X168134409Y-56148000D01*
X165500000Y-56148000D01*
X165173954Y-56212855D01*
X164897545Y-56397545D01*
X160667090Y-60628000D01*
X148617151Y-60628000D01*
X148603083Y-60553235D01*
X148498615Y-60390887D01*
X148339215Y-60281973D01*
X148150000Y-60243656D01*
X145850000Y-60243656D01*
X145673235Y-60276917D01*
X145510887Y-60381385D01*
X145401973Y-60540785D01*
X145363656Y-60730000D01*
X145363656Y-62230000D01*
X145396917Y-62406765D01*
X145501385Y-62569113D01*
X145645322Y-62667462D01*
X145490302Y-62731673D01*
X145311673Y-62910301D01*
X145215000Y-63143690D01*
X145215000Y-63486250D01*
X145373750Y-63645000D01*
X146425000Y-63645000D01*
X146425000Y-63377000D01*
X147575000Y-63377000D01*
X147575000Y-63645000D01*
X148626250Y-63645000D01*
X148785000Y-63486250D01*
X148785000Y-63143690D01*
X148688327Y-62910301D01*
X148509698Y-62731673D01*
X148352466Y-62666545D01*
X148489113Y-62578615D01*
X148598027Y-62419215D01*
X148615688Y-62332000D01*
X148949454Y-62332000D01*
X149050000Y-62352000D01*
X149150546Y-62332000D01*
X158963090Y-62332000D01*
X158347090Y-62948000D01*
X152850000Y-62948000D01*
X152523954Y-63012855D01*
X152247545Y-63197545D01*
X151047545Y-64397545D01*
X150862855Y-64673954D01*
X150798000Y-65000000D01*
X150798000Y-66997090D01*
X149697090Y-68098000D01*
X141752910Y-68098000D01*
X141012455Y-67357545D01*
X140736046Y-67172855D01*
X140410000Y-67108000D01*
X140257765Y-67108000D01*
X140129210Y-66915603D01*
X139650036Y-66595430D01*
X139084813Y-66483000D01*
X138415187Y-66483000D01*
X137849964Y-66595430D01*
X137370790Y-66915603D01*
X137050617Y-67394777D01*
X136938187Y-67960000D01*
X137050617Y-68525223D01*
X137370790Y-69004397D01*
X137399007Y-69023251D01*
X137273235Y-69046917D01*
X137110887Y-69151385D01*
X137001973Y-69310785D01*
X136963656Y-69500000D01*
X136963656Y-71500000D01*
X136996917Y-71676765D01*
X137101385Y-71839113D01*
X137260785Y-71948027D01*
X137450000Y-71986344D01*
X140050000Y-71986344D01*
X140226765Y-71953083D01*
X140389113Y-71848615D01*
X140498027Y-71689215D01*
X140536344Y-71500000D01*
X140536344Y-69500000D01*
X140503083Y-69323235D01*
X140398615Y-69160887D01*
X140239215Y-69051973D01*
X140100153Y-69023812D01*
X140129210Y-69004397D01*
X140177386Y-68932296D01*
X140797545Y-69552455D01*
X141073953Y-69737145D01*
X141400000Y-69802000D01*
X150050000Y-69802000D01*
X150217530Y-69768676D01*
X150175495Y-69980000D01*
X150306955Y-70640894D01*
X150681322Y-71201173D01*
X151241601Y-71575540D01*
X151902495Y-71707000D01*
X158597505Y-71707000D01*
X159258399Y-71575540D01*
X159818678Y-71201173D01*
X160193045Y-70640894D01*
X160324505Y-69980000D01*
X160193045Y-69319106D01*
X159818678Y-68758827D01*
X159258399Y-68384460D01*
X158597505Y-68253000D01*
X151951910Y-68253000D01*
X152252455Y-67952455D01*
X152437145Y-67676046D01*
X152502000Y-67350000D01*
X152502000Y-67288399D01*
X152991601Y-67615540D01*
X153652495Y-67747000D01*
X160347505Y-67747000D01*
X161008399Y-67615540D01*
X161568678Y-67241173D01*
X161943045Y-66680894D01*
X162074505Y-66020000D01*
X161943045Y-65359106D01*
X161568678Y-64798827D01*
X161008399Y-64424460D01*
X160710724Y-64365249D01*
X160837145Y-64176046D01*
X160902000Y-63850000D01*
X160837145Y-63523954D01*
X160652455Y-63247545D01*
X160602455Y-63197545D01*
X160545453Y-63159457D01*
X161002910Y-62702000D01*
X165597090Y-62702000D01*
X167148000Y-64252910D01*
X167148000Y-73668000D01*
X166867151Y-73668000D01*
X166853083Y-73593235D01*
X166748615Y-73430887D01*
X166604678Y-73332538D01*
X166759698Y-73268327D01*
X166938327Y-73089699D01*
X167035000Y-72856310D01*
X167035000Y-72513750D01*
X166876250Y-72355000D01*
X165825000Y-72355000D01*
X165825000Y-72623000D01*
X164675000Y-72623000D01*
X164675000Y-72355000D01*
X163623750Y-72355000D01*
X163465000Y-72513750D01*
X163465000Y-72856310D01*
X163561673Y-73089699D01*
X163740302Y-73268327D01*
X163897534Y-73333455D01*
X163760887Y-73421385D01*
X163651973Y-73580785D01*
X163613656Y-73770000D01*
X163613656Y-75270000D01*
X163646917Y-75446765D01*
X163751385Y-75609113D01*
X163910785Y-75718027D01*
X164100000Y-75756344D01*
X166400000Y-75756344D01*
X166576765Y-75723083D01*
X166739113Y-75618615D01*
X166848027Y-75459215D01*
X166865688Y-75372000D01*
X167730000Y-75372000D01*
X168056046Y-75307145D01*
X168332455Y-75122455D01*
X168602455Y-74852455D01*
X168698000Y-74709461D01*
X168698000Y-79445631D01*
X168577787Y-80049987D01*
X168266245Y-80516244D01*
X167799988Y-80827787D01*
X167195635Y-80948000D01*
X146276314Y-80948000D01*
X146714148Y-80766643D01*
X146800554Y-80510159D01*
X145900000Y-79609605D01*
X144999446Y-80510159D01*
X145085852Y-80766643D01*
X145581552Y-80948000D01*
X140593172Y-80948000D01*
X140685000Y-80726309D01*
X140685000Y-79885750D01*
X140526250Y-79727000D01*
X138877000Y-79727000D01*
X138877000Y-79747000D01*
X138623000Y-79747000D01*
X138623000Y-79727000D01*
X136973750Y-79727000D01*
X136815000Y-79885750D01*
X136815000Y-80726309D01*
X136906828Y-80948000D01*
X133302000Y-80948000D01*
X133302000Y-79702701D01*
X141982762Y-79702701D01*
X142191956Y-80208989D01*
X142578974Y-80596683D01*
X143084896Y-80806760D01*
X143632701Y-80807238D01*
X144138989Y-80598044D01*
X144526683Y-80211026D01*
X144538174Y-80183352D01*
X144563357Y-80244148D01*
X144819841Y-80330554D01*
X145720395Y-79430000D01*
X144819841Y-78529446D01*
X144563357Y-78615852D01*
X144539951Y-78679828D01*
X144528044Y-78651011D01*
X144227400Y-78349841D01*
X144999446Y-78349841D01*
X145900000Y-79250395D01*
X146800554Y-78349841D01*
X146714148Y-78093357D01*
X146140664Y-77883542D01*
X145530540Y-77909161D01*
X145085852Y-78093357D01*
X144999446Y-78349841D01*
X144227400Y-78349841D01*
X144141026Y-78263317D01*
X144012000Y-78209741D01*
X144012000Y-75410068D01*
X144820068Y-74602000D01*
X145477503Y-74602000D01*
X145501385Y-74639113D01*
X145660785Y-74748027D01*
X145779272Y-74772021D01*
X145591676Y-74959290D01*
X145473135Y-75244767D01*
X145472866Y-75553877D01*
X145590908Y-75839560D01*
X145809290Y-76058324D01*
X146094767Y-76176865D01*
X146403877Y-76177134D01*
X146689560Y-76059092D01*
X146696664Y-76052000D01*
X157779932Y-76052000D01*
X160175288Y-78447356D01*
X159973317Y-78648974D01*
X159870005Y-78897776D01*
X159768044Y-78651011D01*
X159381026Y-78263317D01*
X159252000Y-78209741D01*
X159252000Y-77850005D01*
X159252001Y-77850000D01*
X159202370Y-77600491D01*
X159061034Y-77388966D01*
X158261034Y-76588966D01*
X158120069Y-76494777D01*
X158049510Y-76447631D01*
X158008113Y-76439396D01*
X157800000Y-76397999D01*
X157799995Y-76398000D01*
X147597023Y-76398000D01*
X147590710Y-76391676D01*
X147305233Y-76273135D01*
X146996123Y-76272866D01*
X146710440Y-76390908D01*
X146491676Y-76609290D01*
X146373135Y-76894767D01*
X146372866Y-77203877D01*
X146490908Y-77489560D01*
X146709290Y-77708324D01*
X146994767Y-77826865D01*
X147303877Y-77827134D01*
X147589560Y-77709092D01*
X147596664Y-77702000D01*
X157529932Y-77702000D01*
X157948000Y-78120068D01*
X157948000Y-78209485D01*
X157821011Y-78261956D01*
X157433317Y-78648974D01*
X157330005Y-78897776D01*
X157228044Y-78651011D01*
X156841026Y-78263317D01*
X156335104Y-78053240D01*
X155787299Y-78052762D01*
X155281011Y-78261956D01*
X154893317Y-78648974D01*
X154790005Y-78897776D01*
X154688044Y-78651011D01*
X154301026Y-78263317D01*
X153795104Y-78053240D01*
X153247299Y-78052762D01*
X152741011Y-78261956D01*
X152353317Y-78648974D01*
X152250005Y-78897776D01*
X152148044Y-78651011D01*
X151761026Y-78263317D01*
X151255104Y-78053240D01*
X150707299Y-78052762D01*
X150201011Y-78261956D01*
X149813317Y-78648974D01*
X149710005Y-78897776D01*
X149608044Y-78651011D01*
X149221026Y-78263317D01*
X148715104Y-78053240D01*
X148167299Y-78052762D01*
X147661011Y-78261956D01*
X147273317Y-78648974D01*
X147261826Y-78676648D01*
X147236643Y-78615852D01*
X146980159Y-78529446D01*
X146079605Y-79430000D01*
X146980159Y-80330554D01*
X147236643Y-80244148D01*
X147260049Y-80180172D01*
X147271956Y-80208989D01*
X147658974Y-80596683D01*
X148164896Y-80806760D01*
X148712701Y-80807238D01*
X149218989Y-80598044D01*
X149606683Y-80211026D01*
X149709995Y-79962224D01*
X149811956Y-80208989D01*
X150198974Y-80596683D01*
X150704896Y-80806760D01*
X151252701Y-80807238D01*
X151758989Y-80598044D01*
X152146683Y-80211026D01*
X152249995Y-79962224D01*
X152351956Y-80208989D01*
X152738974Y-80596683D01*
X153244896Y-80806760D01*
X153792701Y-80807238D01*
X154298989Y-80598044D01*
X154686683Y-80211026D01*
X154789995Y-79962224D01*
X154891956Y-80208989D01*
X155278974Y-80596683D01*
X155784896Y-80806760D01*
X156332701Y-80807238D01*
X156838989Y-80598044D01*
X157226683Y-80211026D01*
X157329995Y-79962224D01*
X157431956Y-80208989D01*
X157818974Y-80596683D01*
X158324896Y-80806760D01*
X158872701Y-80807238D01*
X159378989Y-80598044D01*
X159766683Y-80211026D01*
X159869995Y-79962224D01*
X159971956Y-80208989D01*
X160358974Y-80596683D01*
X160864896Y-80806760D01*
X161412701Y-80807238D01*
X161918989Y-80598044D01*
X162306683Y-80211026D01*
X162516760Y-79705104D01*
X162517238Y-79157299D01*
X162308044Y-78651011D01*
X161921026Y-78263317D01*
X161694876Y-78169411D01*
X161601034Y-78028966D01*
X159882068Y-76310000D01*
X163613656Y-76310000D01*
X163613656Y-77810000D01*
X163646917Y-77986765D01*
X163751385Y-78149113D01*
X163910785Y-78258027D01*
X164100000Y-78296344D01*
X166400000Y-78296344D01*
X166576765Y-78263083D01*
X166739113Y-78158615D01*
X166848027Y-77999215D01*
X166886344Y-77810000D01*
X166886344Y-76310000D01*
X166853083Y-76133235D01*
X166748615Y-75970887D01*
X166589215Y-75861973D01*
X166400000Y-75823656D01*
X164100000Y-75823656D01*
X163923235Y-75856917D01*
X163760887Y-75961385D01*
X163651973Y-76120785D01*
X163613656Y-76310000D01*
X159882068Y-76310000D01*
X158511034Y-74938966D01*
X158299510Y-74797631D01*
X158242767Y-74786344D01*
X158050000Y-74747999D01*
X158049995Y-74748000D01*
X147334664Y-74748000D01*
X147489113Y-74648615D01*
X147598027Y-74489215D01*
X147636344Y-74300000D01*
X147636344Y-73652000D01*
X158999995Y-73652000D01*
X159000000Y-73652001D01*
X159208113Y-73610604D01*
X159249510Y-73602369D01*
X159461034Y-73461034D01*
X162830067Y-70092000D01*
X163613656Y-70092000D01*
X163613656Y-70190000D01*
X163646917Y-70366765D01*
X163751385Y-70529113D01*
X163895322Y-70627462D01*
X163740302Y-70691673D01*
X163561673Y-70870301D01*
X163465000Y-71103690D01*
X163465000Y-71446250D01*
X163623750Y-71605000D01*
X164675000Y-71605000D01*
X164675000Y-71337000D01*
X165825000Y-71337000D01*
X165825000Y-71605000D01*
X166876250Y-71605000D01*
X167035000Y-71446250D01*
X167035000Y-71103690D01*
X166938327Y-70870301D01*
X166759698Y-70691673D01*
X166602466Y-70626545D01*
X166739113Y-70538615D01*
X166848027Y-70379215D01*
X166886344Y-70190000D01*
X166886344Y-68690000D01*
X166853083Y-68513235D01*
X166748615Y-68350887D01*
X166589215Y-68241973D01*
X166400000Y-68203656D01*
X164100000Y-68203656D01*
X163923235Y-68236917D01*
X163760887Y-68341385D01*
X163651973Y-68500785D01*
X163613656Y-68690000D01*
X163613656Y-68788000D01*
X162560000Y-68788000D01*
X162310490Y-68837631D01*
X162098966Y-68978966D01*
X162098964Y-68978969D01*
X158729932Y-72348000D01*
X150001021Y-72348000D01*
X150008324Y-72340710D01*
X150126865Y-72055233D01*
X150127134Y-71746123D01*
X150009092Y-71460440D01*
X149790710Y-71241676D01*
X149505233Y-71123135D01*
X149196123Y-71122866D01*
X148910440Y-71240908D01*
X148753073Y-71398000D01*
X147522497Y-71398000D01*
X147498615Y-71360887D01*
X147339215Y-71251973D01*
X147150000Y-71213656D01*
X145850000Y-71213656D01*
X145673235Y-71246917D01*
X145510887Y-71351385D01*
X145401973Y-71510785D01*
X145363656Y-71700000D01*
X145363656Y-72400000D01*
X145388040Y-72529588D01*
X145363656Y-72650000D01*
X145363656Y-73298000D01*
X144550000Y-73298000D01*
X144300490Y-73347631D01*
X144128044Y-73462855D01*
X144088966Y-73488966D01*
X142898966Y-74678966D01*
X142757631Y-74890490D01*
X142757631Y-74890491D01*
X142707999Y-75140000D01*
X142708000Y-75140005D01*
X142708000Y-78209485D01*
X142581011Y-78261956D01*
X142193317Y-78648974D01*
X141983240Y-79154896D01*
X141982762Y-79702701D01*
X133302000Y-79702701D01*
X133302000Y-78473691D01*
X136815000Y-78473691D01*
X136815000Y-79314250D01*
X136973750Y-79473000D01*
X138623000Y-79473000D01*
X138623000Y-79453000D01*
X138877000Y-79453000D01*
X138877000Y-79473000D01*
X140526250Y-79473000D01*
X140685000Y-79314250D01*
X140685000Y-78473691D01*
X140588327Y-78240302D01*
X140409699Y-78061673D01*
X140212371Y-77979937D01*
X140449383Y-77625223D01*
X140561813Y-77060000D01*
X140449383Y-76494777D01*
X140129210Y-76015603D01*
X139791570Y-75790000D01*
X140129210Y-75564397D01*
X140449383Y-75085223D01*
X140561813Y-74520000D01*
X140449383Y-73954777D01*
X140129210Y-73475603D01*
X139650036Y-73155430D01*
X139084813Y-73043000D01*
X138415187Y-73043000D01*
X137849964Y-73155430D01*
X137370790Y-73475603D01*
X137050617Y-73954777D01*
X136938187Y-74520000D01*
X137050617Y-75085223D01*
X137370790Y-75564397D01*
X137708430Y-75790000D01*
X137370790Y-76015603D01*
X137050617Y-76494777D01*
X136938187Y-77060000D01*
X137050617Y-77625223D01*
X137287629Y-77979937D01*
X137090301Y-78061673D01*
X136911673Y-78240302D01*
X136815000Y-78473691D01*
X133302000Y-78473691D01*
X133302000Y-55052000D01*
X137795233Y-55052000D01*
X137370790Y-55335603D01*
G36*
X171763656Y-58500000D02*
X171796917Y-58676765D01*
X171901385Y-58839113D01*
X172060785Y-58948027D01*
X172250000Y-58986344D01*
X175750000Y-58986344D01*
X175926765Y-58953083D01*
X176089113Y-58848615D01*
X176198027Y-58689215D01*
X176236344Y-58500000D01*
X176236344Y-57602000D01*
X176647090Y-57602000D01*
X177148000Y-58102910D01*
X177148000Y-68897090D01*
X175397090Y-70648000D01*
X170024803Y-70648000D01*
X170152630Y-70456694D01*
X170227000Y-70082812D01*
X170227000Y-63781750D01*
X171615000Y-63781750D01*
X171615000Y-64626309D01*
X171711673Y-64859698D01*
X171890301Y-65038327D01*
X172123690Y-65135000D01*
X172968250Y-65135000D01*
X173127000Y-64976250D01*
X173127000Y-63623000D01*
X174873000Y-63623000D01*
X174873000Y-64976250D01*
X175031750Y-65135000D01*
X175876310Y-65135000D01*
X176109699Y-65038327D01*
X176288327Y-64859698D01*
X176385000Y-64626309D01*
X176385000Y-63781750D01*
X176226250Y-63623000D01*
X174873000Y-63623000D01*
X173127000Y-63623000D01*
X171773750Y-63623000D01*
X171615000Y-63781750D01*
X170227000Y-63781750D01*
X170227000Y-63417188D01*
X170152630Y-63043306D01*
X169940843Y-62726345D01*
X169623882Y-62514558D01*
X169250000Y-62440188D01*
X168876118Y-62514558D01*
X168559157Y-62726345D01*
X168347709Y-63042799D01*
X166552455Y-61247545D01*
X166276046Y-61062855D01*
X165950000Y-60998000D01*
X162706910Y-60998000D01*
X162923160Y-60781750D01*
X167165000Y-60781750D01*
X167165000Y-61626309D01*
X167261673Y-61859698D01*
X167440301Y-62038327D01*
X167673690Y-62135000D01*
X168391250Y-62135000D01*
X168550000Y-61976250D01*
X168550000Y-60623000D01*
X170050000Y-60623000D01*
X170050000Y-61976250D01*
X170208750Y-62135000D01*
X170926310Y-62135000D01*
X171159699Y-62038327D01*
X171338327Y-61859698D01*
X171435000Y-61626309D01*
X171435000Y-60873691D01*
X171615000Y-60873691D01*
X171615000Y-61718250D01*
X171773750Y-61877000D01*
X173127000Y-61877000D01*
X173127000Y-60523750D01*
X174873000Y-60523750D01*
X174873000Y-61877000D01*
X176226250Y-61877000D01*
X176385000Y-61718250D01*
X176385000Y-60873691D01*
X176288327Y-60640302D01*
X176109699Y-60461673D01*
X175876310Y-60365000D01*
X175031750Y-60365000D01*
X174873000Y-60523750D01*
X173127000Y-60523750D01*
X172968250Y-60365000D01*
X172123690Y-60365000D01*
X171890301Y-60461673D01*
X171711673Y-60640302D01*
X171615000Y-60873691D01*
X171435000Y-60873691D01*
X171435000Y-60781750D01*
X171276250Y-60623000D01*
X170050000Y-60623000D01*
X168550000Y-60623000D01*
X167323750Y-60623000D01*
X167165000Y-60781750D01*
X162923160Y-60781750D01*
X165852910Y-57852000D01*
X167173985Y-57852000D01*
X167165000Y-57873691D01*
X167165000Y-58718250D01*
X167323750Y-58877000D01*
X168550000Y-58877000D01*
X168550000Y-58857000D01*
X170050000Y-58857000D01*
X170050000Y-58877000D01*
X171276250Y-58877000D01*
X171435000Y-58718250D01*
X171435000Y-57873691D01*
X171338327Y-57640302D01*
X171300025Y-57602000D01*
X171763656Y-57602000D01*
X171763656Y-58500000D01*
X171763656Y-58500000D01*
G37*
X171763656Y-58500000D02*
X171796917Y-58676765D01*
X171901385Y-58839113D01*
X172060785Y-58948027D01*
X172250000Y-58986344D01*
X175750000Y-58986344D01*
X175926765Y-58953083D01*
X176089113Y-58848615D01*
X176198027Y-58689215D01*
X176236344Y-58500000D01*
X176236344Y-57602000D01*
X176647090Y-57602000D01*
X177148000Y-58102910D01*
X177148000Y-68897090D01*
X175397090Y-70648000D01*
X170024803Y-70648000D01*
X170152630Y-70456694D01*
X170227000Y-70082812D01*
X170227000Y-63781750D01*
X171615000Y-63781750D01*
X171615000Y-64626309D01*
X171711673Y-64859698D01*
X171890301Y-65038327D01*
X172123690Y-65135000D01*
X172968250Y-65135000D01*
X173127000Y-64976250D01*
X173127000Y-63623000D01*
X174873000Y-63623000D01*
X174873000Y-64976250D01*
X175031750Y-65135000D01*
X175876310Y-65135000D01*
X176109699Y-65038327D01*
X176288327Y-64859698D01*
X176385000Y-64626309D01*
X176385000Y-63781750D01*
X176226250Y-63623000D01*
X174873000Y-63623000D01*
X173127000Y-63623000D01*
X171773750Y-63623000D01*
X171615000Y-63781750D01*
X170227000Y-63781750D01*
X170227000Y-63417188D01*
X170152630Y-63043306D01*
X169940843Y-62726345D01*
X169623882Y-62514558D01*
X169250000Y-62440188D01*
X168876118Y-62514558D01*
X168559157Y-62726345D01*
X168347709Y-63042799D01*
X166552455Y-61247545D01*
X166276046Y-61062855D01*
X165950000Y-60998000D01*
X162706910Y-60998000D01*
X162923160Y-60781750D01*
X167165000Y-60781750D01*
X167165000Y-61626309D01*
X167261673Y-61859698D01*
X167440301Y-62038327D01*
X167673690Y-62135000D01*
X168391250Y-62135000D01*
X168550000Y-61976250D01*
X168550000Y-60623000D01*
X170050000Y-60623000D01*
X170050000Y-61976250D01*
X170208750Y-62135000D01*
X170926310Y-62135000D01*
X171159699Y-62038327D01*
X171338327Y-61859698D01*
X171435000Y-61626309D01*
X171435000Y-60873691D01*
X171615000Y-60873691D01*
X171615000Y-61718250D01*
X171773750Y-61877000D01*
X173127000Y-61877000D01*
X173127000Y-60523750D01*
X174873000Y-60523750D01*
X174873000Y-61877000D01*
X176226250Y-61877000D01*
X176385000Y-61718250D01*
X176385000Y-60873691D01*
X176288327Y-60640302D01*
X176109699Y-60461673D01*
X175876310Y-60365000D01*
X175031750Y-60365000D01*
X174873000Y-60523750D01*
X173127000Y-60523750D01*
X172968250Y-60365000D01*
X172123690Y-60365000D01*
X171890301Y-60461673D01*
X171711673Y-60640302D01*
X171615000Y-60873691D01*
X171435000Y-60873691D01*
X171435000Y-60781750D01*
X171276250Y-60623000D01*
X170050000Y-60623000D01*
X168550000Y-60623000D01*
X167323750Y-60623000D01*
X167165000Y-60781750D01*
X162923160Y-60781750D01*
X165852910Y-57852000D01*
X167173985Y-57852000D01*
X167165000Y-57873691D01*
X167165000Y-58718250D01*
X167323750Y-58877000D01*
X168550000Y-58877000D01*
X168550000Y-58857000D01*
X170050000Y-58857000D01*
X170050000Y-58877000D01*
X171276250Y-58877000D01*
X171435000Y-58718250D01*
X171435000Y-57873691D01*
X171338327Y-57640302D01*
X171300025Y-57602000D01*
X171763656Y-57602000D01*
X171763656Y-58500000D01*
M02*
