M48
INCH,TZ
T1C0.016
T2C0.039
T3C0.040
%
G90
G05
T1
X53450Y-45750
X55150Y-44850
X58800Y-43500
X59150Y-44550
T2
X52000Y-38000
X52000Y-39000
X52000Y-40000
X52000Y-41000
X52000Y-44000
X52000Y-45000
X60300Y-43500
X60300Y-44500
T3
X54965Y-36840
X54965Y-45840
X55965Y-36840
X55965Y-45840
X56965Y-36840
X56965Y-45840
X57965Y-36840
X57965Y-45840
X58965Y-36840
X58965Y-45840
X59965Y-36840
X59965Y-45840
X60965Y-36840
X60965Y-45840
X61965Y-36840
X61965Y-45840
T2
X59950Y-40844G85X59950Y-40056
G05
X61525Y-38600G85X60737Y-38600
G05
X62312Y-40844G85X62312Y-40056
G05
T0
M30
